G04 #@! TF.GenerationSoftware,KiCad,Pcbnew,9.0.0*
G04 #@! TF.CreationDate,2025-04-09T20:43:05+09:00*
G04 #@! TF.ProjectId,2_wheels_mini_Motor_inverted_Pendulum,325f7768-6565-46c7-935f-6d696e695f4d,rev?*
G04 #@! TF.SameCoordinates,Original*
G04 #@! TF.FileFunction,Soldermask,Bot*
G04 #@! TF.FilePolarity,Negative*
%FSLAX46Y46*%
G04 Gerber Fmt 4.6, Leading zero omitted, Abs format (unit mm)*
G04 Created by KiCad (PCBNEW 9.0.0) date 2025-04-09 20:43:05*
%MOMM*%
%LPD*%
G01*
G04 APERTURE LIST*
G04 Aperture macros list*
%AMRoundRect*
0 Rectangle with rounded corners*
0 $1 Rounding radius*
0 $2 $3 $4 $5 $6 $7 $8 $9 X,Y pos of 4 corners*
0 Add a 4 corners polygon primitive as box body*
4,1,4,$2,$3,$4,$5,$6,$7,$8,$9,$2,$3,0*
0 Add four circle primitives for the rounded corners*
1,1,$1+$1,$2,$3*
1,1,$1+$1,$4,$5*
1,1,$1+$1,$6,$7*
1,1,$1+$1,$8,$9*
0 Add four rect primitives between the rounded corners*
20,1,$1+$1,$2,$3,$4,$5,0*
20,1,$1+$1,$4,$5,$6,$7,0*
20,1,$1+$1,$6,$7,$8,$9,0*
20,1,$1+$1,$8,$9,$2,$3,0*%
G04 Aperture macros list end*
%ADD10O,1.600000X2.000000*%
%ADD11C,1.400000*%
%ADD12O,1.400000X1.400000*%
%ADD13O,2.000000X1.200000*%
%ADD14RoundRect,0.250000X-0.625000X0.350000X-0.625000X-0.350000X0.625000X-0.350000X0.625000X0.350000X0*%
%ADD15O,1.750000X1.200000*%
%ADD16O,2.000000X1.600000*%
%ADD17R,1.800000X1.800000*%
%ADD18C,1.800000*%
%ADD19RoundRect,0.250000X0.350000X0.625000X-0.350000X0.625000X-0.350000X-0.625000X0.350000X-0.625000X0*%
%ADD20O,1.200000X1.750000*%
%ADD21RoundRect,0.250000X0.650000X-0.412500X0.650000X0.412500X-0.650000X0.412500X-0.650000X-0.412500X0*%
%ADD22RoundRect,0.375000X-0.625000X-0.375000X0.625000X-0.375000X0.625000X0.375000X-0.625000X0.375000X0*%
%ADD23RoundRect,0.500000X-0.500000X-1.400000X0.500000X-1.400000X0.500000X1.400000X-0.500000X1.400000X0*%
%ADD24RoundRect,0.250000X0.412500X0.650000X-0.412500X0.650000X-0.412500X-0.650000X0.412500X-0.650000X0*%
G04 APERTURE END LIST*
D10*
G04 #@! TO.C,IC4*
X148636000Y-111204000D03*
X146096000Y-111204000D03*
X143556000Y-111204000D03*
X141016000Y-111204000D03*
X138476000Y-111204000D03*
X135936000Y-111204000D03*
X133396000Y-111204000D03*
X130856000Y-111204000D03*
G04 #@! TD*
D11*
G04 #@! TO.C,R1*
X124760000Y-103965000D03*
D12*
X129840000Y-103965000D03*
G04 #@! TD*
D13*
G04 #@! TO.C,SW2*
X157780000Y-84320000D03*
X157780000Y-86820000D03*
X157780000Y-89320000D03*
G04 #@! TD*
G04 #@! TO.C,SW1*
X125014000Y-89614000D03*
X125014000Y-87114000D03*
X125014000Y-84614000D03*
G04 #@! TD*
D14*
G04 #@! TO.C,CN2*
X164892000Y-85836000D03*
D15*
X164892000Y-87836000D03*
G04 #@! TD*
D11*
G04 #@! TO.C,R2*
X129840000Y-106505000D03*
D12*
X124760000Y-106505000D03*
G04 #@! TD*
D11*
G04 #@! TO.C,R3*
X156002000Y-104600000D03*
D12*
X156002000Y-99520000D03*
G04 #@! TD*
D16*
G04 #@! TO.C,IC2*
X133650000Y-86820000D03*
X133650000Y-89360000D03*
X133650000Y-91900000D03*
X133650000Y-94440000D03*
X133650000Y-96980000D03*
X133650000Y-99520000D03*
X133650000Y-102060000D03*
X133650000Y-104600000D03*
X148890000Y-104600000D03*
X148890000Y-102060000D03*
X148890000Y-99520000D03*
X148890000Y-96980000D03*
X148890000Y-94440000D03*
X148890000Y-91900000D03*
X148890000Y-89360000D03*
X148890000Y-86820000D03*
G04 #@! TD*
D17*
G04 #@! TO.C,D1*
X159812000Y-95710000D03*
D18*
X157272000Y-95710000D03*
G04 #@! TD*
D19*
G04 #@! TO.C,CN1*
X117140000Y-85836000D03*
D20*
X115140000Y-85836000D03*
G04 #@! TD*
D16*
G04 #@! TO.C,IC3*
X152700000Y-86820000D03*
X152700000Y-89360000D03*
X152700000Y-91900000D03*
X152700000Y-94440000D03*
X152700000Y-96980000D03*
X152700000Y-99520000D03*
X152700000Y-102060000D03*
X152700000Y-104600000D03*
X137460000Y-104600000D03*
X137460000Y-102060000D03*
X137460000Y-99520000D03*
X137460000Y-96980000D03*
X137460000Y-94440000D03*
X137460000Y-91900000D03*
X137460000Y-89360000D03*
X137460000Y-86820000D03*
G04 #@! TD*
D21*
G04 #@! TO.C,C3*
X129179600Y-92535000D03*
X129179600Y-89410000D03*
G04 #@! TD*
D22*
G04 #@! TO.C,IC1*
X123515000Y-99915000D03*
X123515000Y-97615000D03*
D23*
X129815000Y-97615000D03*
D22*
X123515000Y-95315000D03*
G04 #@! TD*
D24*
G04 #@! TO.C,C1*
X123490000Y-92535000D03*
X120365000Y-92535000D03*
G04 #@! TD*
M02*
