G04 #@! TF.GenerationSoftware,KiCad,Pcbnew,9.0.0*
G04 #@! TF.CreationDate,2025-04-09T20:43:05+09:00*
G04 #@! TF.ProjectId,2_wheels_mini_Motor_inverted_Pendulum,325f7768-6565-46c7-935f-6d696e695f4d,rev?*
G04 #@! TF.SameCoordinates,Original*
G04 #@! TF.FileFunction,Legend,Bot*
G04 #@! TF.FilePolarity,Positive*
%FSLAX46Y46*%
G04 Gerber Fmt 4.6, Leading zero omitted, Abs format (unit mm)*
G04 Created by KiCad (PCBNEW 9.0.0) date 2025-04-09 20:43:05*
%MOMM*%
%LPD*%
G01*
G04 APERTURE LIST*
%ADD10C,0.100000*%
%ADD11C,0.150000*%
%ADD12C,0.120000*%
G04 APERTURE END LIST*
D10*
X147696115Y-107372419D02*
X147696115Y-106372419D01*
X147696115Y-106372419D02*
X147458020Y-106372419D01*
X147458020Y-106372419D02*
X147315163Y-106420038D01*
X147315163Y-106420038D02*
X147219925Y-106515276D01*
X147219925Y-106515276D02*
X147172306Y-106610514D01*
X147172306Y-106610514D02*
X147124687Y-106800990D01*
X147124687Y-106800990D02*
X147124687Y-106943847D01*
X147124687Y-106943847D02*
X147172306Y-107134323D01*
X147172306Y-107134323D02*
X147219925Y-107229561D01*
X147219925Y-107229561D02*
X147315163Y-107324800D01*
X147315163Y-107324800D02*
X147458020Y-107372419D01*
X147458020Y-107372419D02*
X147696115Y-107372419D01*
X146124687Y-107372419D02*
X146458020Y-106896228D01*
X146696115Y-107372419D02*
X146696115Y-106372419D01*
X146696115Y-106372419D02*
X146315163Y-106372419D01*
X146315163Y-106372419D02*
X146219925Y-106420038D01*
X146219925Y-106420038D02*
X146172306Y-106467657D01*
X146172306Y-106467657D02*
X146124687Y-106562895D01*
X146124687Y-106562895D02*
X146124687Y-106705752D01*
X146124687Y-106705752D02*
X146172306Y-106800990D01*
X146172306Y-106800990D02*
X146219925Y-106848609D01*
X146219925Y-106848609D02*
X146315163Y-106896228D01*
X146315163Y-106896228D02*
X146696115Y-106896228D01*
X145838972Y-106372419D02*
X145505639Y-107372419D01*
X145505639Y-107372419D02*
X145172306Y-106372419D01*
X144696115Y-106800990D02*
X144791353Y-106753371D01*
X144791353Y-106753371D02*
X144838972Y-106705752D01*
X144838972Y-106705752D02*
X144886591Y-106610514D01*
X144886591Y-106610514D02*
X144886591Y-106562895D01*
X144886591Y-106562895D02*
X144838972Y-106467657D01*
X144838972Y-106467657D02*
X144791353Y-106420038D01*
X144791353Y-106420038D02*
X144696115Y-106372419D01*
X144696115Y-106372419D02*
X144505639Y-106372419D01*
X144505639Y-106372419D02*
X144410401Y-106420038D01*
X144410401Y-106420038D02*
X144362782Y-106467657D01*
X144362782Y-106467657D02*
X144315163Y-106562895D01*
X144315163Y-106562895D02*
X144315163Y-106610514D01*
X144315163Y-106610514D02*
X144362782Y-106705752D01*
X144362782Y-106705752D02*
X144410401Y-106753371D01*
X144410401Y-106753371D02*
X144505639Y-106800990D01*
X144505639Y-106800990D02*
X144696115Y-106800990D01*
X144696115Y-106800990D02*
X144791353Y-106848609D01*
X144791353Y-106848609D02*
X144838972Y-106896228D01*
X144838972Y-106896228D02*
X144886591Y-106991466D01*
X144886591Y-106991466D02*
X144886591Y-107181942D01*
X144886591Y-107181942D02*
X144838972Y-107277180D01*
X144838972Y-107277180D02*
X144791353Y-107324800D01*
X144791353Y-107324800D02*
X144696115Y-107372419D01*
X144696115Y-107372419D02*
X144505639Y-107372419D01*
X144505639Y-107372419D02*
X144410401Y-107324800D01*
X144410401Y-107324800D02*
X144362782Y-107277180D01*
X144362782Y-107277180D02*
X144315163Y-107181942D01*
X144315163Y-107181942D02*
X144315163Y-106991466D01*
X144315163Y-106991466D02*
X144362782Y-106896228D01*
X144362782Y-106896228D02*
X144410401Y-106848609D01*
X144410401Y-106848609D02*
X144505639Y-106800990D01*
X143743734Y-106800990D02*
X143838972Y-106753371D01*
X143838972Y-106753371D02*
X143886591Y-106705752D01*
X143886591Y-106705752D02*
X143934210Y-106610514D01*
X143934210Y-106610514D02*
X143934210Y-106562895D01*
X143934210Y-106562895D02*
X143886591Y-106467657D01*
X143886591Y-106467657D02*
X143838972Y-106420038D01*
X143838972Y-106420038D02*
X143743734Y-106372419D01*
X143743734Y-106372419D02*
X143553258Y-106372419D01*
X143553258Y-106372419D02*
X143458020Y-106420038D01*
X143458020Y-106420038D02*
X143410401Y-106467657D01*
X143410401Y-106467657D02*
X143362782Y-106562895D01*
X143362782Y-106562895D02*
X143362782Y-106610514D01*
X143362782Y-106610514D02*
X143410401Y-106705752D01*
X143410401Y-106705752D02*
X143458020Y-106753371D01*
X143458020Y-106753371D02*
X143553258Y-106800990D01*
X143553258Y-106800990D02*
X143743734Y-106800990D01*
X143743734Y-106800990D02*
X143838972Y-106848609D01*
X143838972Y-106848609D02*
X143886591Y-106896228D01*
X143886591Y-106896228D02*
X143934210Y-106991466D01*
X143934210Y-106991466D02*
X143934210Y-107181942D01*
X143934210Y-107181942D02*
X143886591Y-107277180D01*
X143886591Y-107277180D02*
X143838972Y-107324800D01*
X143838972Y-107324800D02*
X143743734Y-107372419D01*
X143743734Y-107372419D02*
X143553258Y-107372419D01*
X143553258Y-107372419D02*
X143458020Y-107324800D01*
X143458020Y-107324800D02*
X143410401Y-107277180D01*
X143410401Y-107277180D02*
X143362782Y-107181942D01*
X143362782Y-107181942D02*
X143362782Y-106991466D01*
X143362782Y-106991466D02*
X143410401Y-106896228D01*
X143410401Y-106896228D02*
X143458020Y-106848609D01*
X143458020Y-106848609D02*
X143553258Y-106800990D01*
X143029448Y-106372419D02*
X142410401Y-106372419D01*
X142410401Y-106372419D02*
X142743734Y-106753371D01*
X142743734Y-106753371D02*
X142600877Y-106753371D01*
X142600877Y-106753371D02*
X142505639Y-106800990D01*
X142505639Y-106800990D02*
X142458020Y-106848609D01*
X142458020Y-106848609D02*
X142410401Y-106943847D01*
X142410401Y-106943847D02*
X142410401Y-107181942D01*
X142410401Y-107181942D02*
X142458020Y-107277180D01*
X142458020Y-107277180D02*
X142505639Y-107324800D01*
X142505639Y-107324800D02*
X142600877Y-107372419D01*
X142600877Y-107372419D02*
X142886591Y-107372419D01*
X142886591Y-107372419D02*
X142981829Y-107324800D01*
X142981829Y-107324800D02*
X143029448Y-107277180D01*
X142077067Y-106372419D02*
X141458020Y-106372419D01*
X141458020Y-106372419D02*
X141791353Y-106753371D01*
X141791353Y-106753371D02*
X141648496Y-106753371D01*
X141648496Y-106753371D02*
X141553258Y-106800990D01*
X141553258Y-106800990D02*
X141505639Y-106848609D01*
X141505639Y-106848609D02*
X141458020Y-106943847D01*
X141458020Y-106943847D02*
X141458020Y-107181942D01*
X141458020Y-107181942D02*
X141505639Y-107277180D01*
X141505639Y-107277180D02*
X141553258Y-107324800D01*
X141553258Y-107324800D02*
X141648496Y-107372419D01*
X141648496Y-107372419D02*
X141934210Y-107372419D01*
X141934210Y-107372419D02*
X142029448Y-107324800D01*
X142029448Y-107324800D02*
X142077067Y-107277180D01*
X121503104Y-99958020D02*
X121503104Y-99500877D01*
X120703104Y-99729449D02*
X121503104Y-99729449D01*
X120703104Y-99234210D02*
X121503104Y-99234210D01*
X121503104Y-99234210D02*
X121503104Y-98929448D01*
X121503104Y-98929448D02*
X121465009Y-98853258D01*
X121465009Y-98853258D02*
X121426914Y-98815163D01*
X121426914Y-98815163D02*
X121350723Y-98777067D01*
X121350723Y-98777067D02*
X121236438Y-98777067D01*
X121236438Y-98777067D02*
X121160247Y-98815163D01*
X121160247Y-98815163D02*
X121122152Y-98853258D01*
X121122152Y-98853258D02*
X121084057Y-98929448D01*
X121084057Y-98929448D02*
X121084057Y-99234210D01*
X120741200Y-98472306D02*
X120703104Y-98358020D01*
X120703104Y-98358020D02*
X120703104Y-98167544D01*
X120703104Y-98167544D02*
X120741200Y-98091353D01*
X120741200Y-98091353D02*
X120779295Y-98053258D01*
X120779295Y-98053258D02*
X120855485Y-98015163D01*
X120855485Y-98015163D02*
X120931676Y-98015163D01*
X120931676Y-98015163D02*
X121007866Y-98053258D01*
X121007866Y-98053258D02*
X121045961Y-98091353D01*
X121045961Y-98091353D02*
X121084057Y-98167544D01*
X121084057Y-98167544D02*
X121122152Y-98319925D01*
X121122152Y-98319925D02*
X121160247Y-98396115D01*
X121160247Y-98396115D02*
X121198342Y-98434210D01*
X121198342Y-98434210D02*
X121274533Y-98472306D01*
X121274533Y-98472306D02*
X121350723Y-98472306D01*
X121350723Y-98472306D02*
X121426914Y-98434210D01*
X121426914Y-98434210D02*
X121465009Y-98396115D01*
X121465009Y-98396115D02*
X121503104Y-98319925D01*
X121503104Y-98319925D02*
X121503104Y-98129448D01*
X121503104Y-98129448D02*
X121465009Y-98015163D01*
X120703104Y-97253258D02*
X120703104Y-97710401D01*
X120703104Y-97481829D02*
X121503104Y-97481829D01*
X121503104Y-97481829D02*
X121388819Y-97558020D01*
X121388819Y-97558020D02*
X121312628Y-97634210D01*
X121312628Y-97634210D02*
X121274533Y-97710401D01*
X120703104Y-96491353D02*
X120703104Y-96948496D01*
X120703104Y-96719924D02*
X121503104Y-96719924D01*
X121503104Y-96719924D02*
X121388819Y-96796115D01*
X121388819Y-96796115D02*
X121312628Y-96872305D01*
X121312628Y-96872305D02*
X121274533Y-96948496D01*
X120703104Y-95729448D02*
X120703104Y-96186591D01*
X120703104Y-95958019D02*
X121503104Y-95958019D01*
X121503104Y-95958019D02*
X121388819Y-96034210D01*
X121388819Y-96034210D02*
X121312628Y-96110400D01*
X121312628Y-96110400D02*
X121274533Y-96186591D01*
X121503104Y-95462781D02*
X121503104Y-94929447D01*
X121503104Y-94929447D02*
X120703104Y-95272305D01*
X141281830Y-92168323D02*
X140900877Y-92168323D01*
X141358020Y-92396895D02*
X141091353Y-91596895D01*
X141091353Y-91596895D02*
X140824687Y-92396895D01*
X140558020Y-92396895D02*
X140558020Y-91596895D01*
X140177068Y-92396895D02*
X140177068Y-91596895D01*
X140177068Y-91596895D02*
X139719925Y-92396895D01*
X139719925Y-92396895D02*
X139719925Y-91596895D01*
X138919926Y-92396895D02*
X139377069Y-92396895D01*
X139148497Y-92396895D02*
X139148497Y-91596895D01*
X139148497Y-91596895D02*
X139224688Y-91711180D01*
X139224688Y-91711180D02*
X139300878Y-91787371D01*
X139300878Y-91787371D02*
X139377069Y-91825466D01*
X141281830Y-94858800D02*
X141167544Y-94896895D01*
X141167544Y-94896895D02*
X140977068Y-94896895D01*
X140977068Y-94896895D02*
X140900877Y-94858800D01*
X140900877Y-94858800D02*
X140862782Y-94820704D01*
X140862782Y-94820704D02*
X140824687Y-94744514D01*
X140824687Y-94744514D02*
X140824687Y-94668323D01*
X140824687Y-94668323D02*
X140862782Y-94592133D01*
X140862782Y-94592133D02*
X140900877Y-94554038D01*
X140900877Y-94554038D02*
X140977068Y-94515942D01*
X140977068Y-94515942D02*
X141129449Y-94477847D01*
X141129449Y-94477847D02*
X141205639Y-94439752D01*
X141205639Y-94439752D02*
X141243734Y-94401657D01*
X141243734Y-94401657D02*
X141281830Y-94325466D01*
X141281830Y-94325466D02*
X141281830Y-94249276D01*
X141281830Y-94249276D02*
X141243734Y-94173085D01*
X141243734Y-94173085D02*
X141205639Y-94134990D01*
X141205639Y-94134990D02*
X141129449Y-94096895D01*
X141129449Y-94096895D02*
X140938972Y-94096895D01*
X140938972Y-94096895D02*
X140824687Y-94134990D01*
X140596115Y-94096895D02*
X140138972Y-94096895D01*
X140367544Y-94896895D02*
X140367544Y-94096895D01*
X139605639Y-94477847D02*
X139491353Y-94515942D01*
X139491353Y-94515942D02*
X139453258Y-94554038D01*
X139453258Y-94554038D02*
X139415162Y-94630228D01*
X139415162Y-94630228D02*
X139415162Y-94744514D01*
X139415162Y-94744514D02*
X139453258Y-94820704D01*
X139453258Y-94820704D02*
X139491353Y-94858800D01*
X139491353Y-94858800D02*
X139567543Y-94896895D01*
X139567543Y-94896895D02*
X139872305Y-94896895D01*
X139872305Y-94896895D02*
X139872305Y-94096895D01*
X139872305Y-94096895D02*
X139605639Y-94096895D01*
X139605639Y-94096895D02*
X139529448Y-94134990D01*
X139529448Y-94134990D02*
X139491353Y-94173085D01*
X139491353Y-94173085D02*
X139453258Y-94249276D01*
X139453258Y-94249276D02*
X139453258Y-94325466D01*
X139453258Y-94325466D02*
X139491353Y-94401657D01*
X139491353Y-94401657D02*
X139529448Y-94439752D01*
X139529448Y-94439752D02*
X139605639Y-94477847D01*
X139605639Y-94477847D02*
X139872305Y-94477847D01*
X138919924Y-94515942D02*
X138919924Y-94896895D01*
X139186591Y-94096895D02*
X138919924Y-94515942D01*
X138919924Y-94515942D02*
X138653258Y-94096895D01*
X141281830Y-89668323D02*
X140900877Y-89668323D01*
X141358020Y-89896895D02*
X141091353Y-89096895D01*
X141091353Y-89096895D02*
X140824687Y-89896895D01*
X140558020Y-89896895D02*
X140558020Y-89096895D01*
X140177068Y-89896895D02*
X140177068Y-89096895D01*
X140177068Y-89096895D02*
X139719925Y-89896895D01*
X139719925Y-89896895D02*
X139719925Y-89096895D01*
X139377069Y-89173085D02*
X139338973Y-89134990D01*
X139338973Y-89134990D02*
X139262783Y-89096895D01*
X139262783Y-89096895D02*
X139072307Y-89096895D01*
X139072307Y-89096895D02*
X138996116Y-89134990D01*
X138996116Y-89134990D02*
X138958021Y-89173085D01*
X138958021Y-89173085D02*
X138919926Y-89249276D01*
X138919926Y-89249276D02*
X138919926Y-89325466D01*
X138919926Y-89325466D02*
X138958021Y-89439752D01*
X138958021Y-89439752D02*
X139415164Y-89896895D01*
X139415164Y-89896895D02*
X138919926Y-89896895D01*
X140824687Y-104134990D02*
X140900877Y-104096895D01*
X140900877Y-104096895D02*
X141015163Y-104096895D01*
X141015163Y-104096895D02*
X141129449Y-104134990D01*
X141129449Y-104134990D02*
X141205639Y-104211180D01*
X141205639Y-104211180D02*
X141243734Y-104287371D01*
X141243734Y-104287371D02*
X141281830Y-104439752D01*
X141281830Y-104439752D02*
X141281830Y-104554038D01*
X141281830Y-104554038D02*
X141243734Y-104706419D01*
X141243734Y-104706419D02*
X141205639Y-104782609D01*
X141205639Y-104782609D02*
X141129449Y-104858800D01*
X141129449Y-104858800D02*
X141015163Y-104896895D01*
X141015163Y-104896895D02*
X140938972Y-104896895D01*
X140938972Y-104896895D02*
X140824687Y-104858800D01*
X140824687Y-104858800D02*
X140786591Y-104820704D01*
X140786591Y-104820704D02*
X140786591Y-104554038D01*
X140786591Y-104554038D02*
X140938972Y-104554038D01*
X140443734Y-104896895D02*
X140443734Y-104096895D01*
X140443734Y-104096895D02*
X139986591Y-104896895D01*
X139986591Y-104896895D02*
X139986591Y-104096895D01*
X139605639Y-104896895D02*
X139605639Y-104096895D01*
X139605639Y-104096895D02*
X139415163Y-104096895D01*
X139415163Y-104096895D02*
X139300877Y-104134990D01*
X139300877Y-104134990D02*
X139224687Y-104211180D01*
X139224687Y-104211180D02*
X139186592Y-104287371D01*
X139186592Y-104287371D02*
X139148496Y-104439752D01*
X139148496Y-104439752D02*
X139148496Y-104554038D01*
X139148496Y-104554038D02*
X139186592Y-104706419D01*
X139186592Y-104706419D02*
X139224687Y-104782609D01*
X139224687Y-104782609D02*
X139300877Y-104858800D01*
X139300877Y-104858800D02*
X139415163Y-104896895D01*
X139415163Y-104896895D02*
X139605639Y-104896895D01*
D11*
X121640476Y-85909580D02*
X121688095Y-85957200D01*
X121688095Y-85957200D02*
X121830952Y-86004819D01*
X121830952Y-86004819D02*
X121926190Y-86004819D01*
X121926190Y-86004819D02*
X122069047Y-85957200D01*
X122069047Y-85957200D02*
X122164285Y-85861961D01*
X122164285Y-85861961D02*
X122211904Y-85766723D01*
X122211904Y-85766723D02*
X122259523Y-85576247D01*
X122259523Y-85576247D02*
X122259523Y-85433390D01*
X122259523Y-85433390D02*
X122211904Y-85242914D01*
X122211904Y-85242914D02*
X122164285Y-85147676D01*
X122164285Y-85147676D02*
X122069047Y-85052438D01*
X122069047Y-85052438D02*
X121926190Y-85004819D01*
X121926190Y-85004819D02*
X121830952Y-85004819D01*
X121830952Y-85004819D02*
X121688095Y-85052438D01*
X121688095Y-85052438D02*
X121640476Y-85100057D01*
X121211904Y-86004819D02*
X121211904Y-85004819D01*
X121211904Y-85004819D02*
X120640476Y-86004819D01*
X120640476Y-86004819D02*
X120640476Y-85004819D01*
X119640476Y-86004819D02*
X120211904Y-86004819D01*
X119926190Y-86004819D02*
X119926190Y-85004819D01*
X119926190Y-85004819D02*
X120021428Y-85147676D01*
X120021428Y-85147676D02*
X120116666Y-85242914D01*
X120116666Y-85242914D02*
X120211904Y-85290533D01*
X146818189Y-85174819D02*
X146818189Y-84174819D01*
X145770571Y-85079580D02*
X145818190Y-85127200D01*
X145818190Y-85127200D02*
X145961047Y-85174819D01*
X145961047Y-85174819D02*
X146056285Y-85174819D01*
X146056285Y-85174819D02*
X146199142Y-85127200D01*
X146199142Y-85127200D02*
X146294380Y-85031961D01*
X146294380Y-85031961D02*
X146341999Y-84936723D01*
X146341999Y-84936723D02*
X146389618Y-84746247D01*
X146389618Y-84746247D02*
X146389618Y-84603390D01*
X146389618Y-84603390D02*
X146341999Y-84412914D01*
X146341999Y-84412914D02*
X146294380Y-84317676D01*
X146294380Y-84317676D02*
X146199142Y-84222438D01*
X146199142Y-84222438D02*
X146056285Y-84174819D01*
X146056285Y-84174819D02*
X145961047Y-84174819D01*
X145961047Y-84174819D02*
X145818190Y-84222438D01*
X145818190Y-84222438D02*
X145770571Y-84270057D01*
X145437237Y-84174819D02*
X144818190Y-84174819D01*
X144818190Y-84174819D02*
X145151523Y-84555771D01*
X145151523Y-84555771D02*
X145008666Y-84555771D01*
X145008666Y-84555771D02*
X144913428Y-84603390D01*
X144913428Y-84603390D02*
X144865809Y-84651009D01*
X144865809Y-84651009D02*
X144818190Y-84746247D01*
X144818190Y-84746247D02*
X144818190Y-84984342D01*
X144818190Y-84984342D02*
X144865809Y-85079580D01*
X144865809Y-85079580D02*
X144913428Y-85127200D01*
X144913428Y-85127200D02*
X145008666Y-85174819D01*
X145008666Y-85174819D02*
X145294380Y-85174819D01*
X145294380Y-85174819D02*
X145389618Y-85127200D01*
X145389618Y-85127200D02*
X145437237Y-85079580D01*
X131469580Y-90805833D02*
X131517200Y-90758214D01*
X131517200Y-90758214D02*
X131564819Y-90615357D01*
X131564819Y-90615357D02*
X131564819Y-90520119D01*
X131564819Y-90520119D02*
X131517200Y-90377262D01*
X131517200Y-90377262D02*
X131421961Y-90282024D01*
X131421961Y-90282024D02*
X131326723Y-90234405D01*
X131326723Y-90234405D02*
X131136247Y-90186786D01*
X131136247Y-90186786D02*
X130993390Y-90186786D01*
X130993390Y-90186786D02*
X130802914Y-90234405D01*
X130802914Y-90234405D02*
X130707676Y-90282024D01*
X130707676Y-90282024D02*
X130612438Y-90377262D01*
X130612438Y-90377262D02*
X130564819Y-90520119D01*
X130564819Y-90520119D02*
X130564819Y-90615357D01*
X130564819Y-90615357D02*
X130612438Y-90758214D01*
X130612438Y-90758214D02*
X130660057Y-90805833D01*
X130564819Y-91139167D02*
X130564819Y-91758214D01*
X130564819Y-91758214D02*
X130945771Y-91424881D01*
X130945771Y-91424881D02*
X130945771Y-91567738D01*
X130945771Y-91567738D02*
X130993390Y-91662976D01*
X130993390Y-91662976D02*
X131041009Y-91710595D01*
X131041009Y-91710595D02*
X131136247Y-91758214D01*
X131136247Y-91758214D02*
X131374342Y-91758214D01*
X131374342Y-91758214D02*
X131469580Y-91710595D01*
X131469580Y-91710595D02*
X131517200Y-91662976D01*
X131517200Y-91662976D02*
X131564819Y-91567738D01*
X131564819Y-91567738D02*
X131564819Y-91282024D01*
X131564819Y-91282024D02*
X131517200Y-91186786D01*
X131517200Y-91186786D02*
X131469580Y-91139167D01*
X122094166Y-90735580D02*
X122141785Y-90783200D01*
X122141785Y-90783200D02*
X122284642Y-90830819D01*
X122284642Y-90830819D02*
X122379880Y-90830819D01*
X122379880Y-90830819D02*
X122522737Y-90783200D01*
X122522737Y-90783200D02*
X122617975Y-90687961D01*
X122617975Y-90687961D02*
X122665594Y-90592723D01*
X122665594Y-90592723D02*
X122713213Y-90402247D01*
X122713213Y-90402247D02*
X122713213Y-90259390D01*
X122713213Y-90259390D02*
X122665594Y-90068914D01*
X122665594Y-90068914D02*
X122617975Y-89973676D01*
X122617975Y-89973676D02*
X122522737Y-89878438D01*
X122522737Y-89878438D02*
X122379880Y-89830819D01*
X122379880Y-89830819D02*
X122284642Y-89830819D01*
X122284642Y-89830819D02*
X122141785Y-89878438D01*
X122141785Y-89878438D02*
X122094166Y-89926057D01*
X121141785Y-90830819D02*
X121713213Y-90830819D01*
X121427499Y-90830819D02*
X121427499Y-89830819D01*
X121427499Y-89830819D02*
X121522737Y-89973676D01*
X121522737Y-89973676D02*
X121617975Y-90068914D01*
X121617975Y-90068914D02*
X121713213Y-90116533D01*
D12*
G04 #@! TO.C,CN1*
X113080000Y-84026000D02*
X113080000Y-88746000D01*
X113080000Y-88746000D02*
X119200000Y-88746000D01*
X113690000Y-84636000D02*
X113690000Y-88136000D01*
X113690000Y-85336000D02*
X113080000Y-85336000D01*
X113690000Y-86636000D02*
X113080000Y-86636000D01*
X113690000Y-88136000D02*
X118590000Y-88136000D01*
X115640000Y-84026000D02*
X115640000Y-84636000D01*
X115640000Y-84636000D02*
X113690000Y-84636000D01*
X116040000Y-87636000D02*
X116240000Y-87636000D01*
X116040000Y-88136000D02*
X116040000Y-87636000D01*
X116140000Y-87636000D02*
X116140000Y-88136000D01*
X116240000Y-87636000D02*
X116240000Y-88136000D01*
X116640000Y-84636000D02*
X116640000Y-84026000D01*
X117440000Y-83826000D02*
X117440000Y-84026000D01*
X117740000Y-83826000D02*
X117440000Y-83826000D01*
X117740000Y-83926000D02*
X117440000Y-83926000D01*
X117740000Y-84026000D02*
X117740000Y-83826000D01*
X118590000Y-84636000D02*
X116640000Y-84636000D01*
X118590000Y-85336000D02*
X119200000Y-85336000D01*
X118590000Y-86636000D02*
X119200000Y-86636000D01*
X118590000Y-88136000D02*
X118590000Y-84636000D01*
X119200000Y-84026000D02*
X113080000Y-84026000D01*
X119200000Y-88746000D02*
X119200000Y-84026000D01*
X119500000Y-83726000D02*
X118250000Y-83726000D01*
X119500000Y-84976000D02*
X119500000Y-83726000D01*
G04 #@! TO.C,IC3*
X135960000Y-85720000D02*
X135960000Y-105700000D01*
X135960000Y-105700000D02*
X154200000Y-105700000D01*
X142040000Y-85720000D02*
X135960000Y-85720000D01*
X142040000Y-86080000D02*
X142040000Y-85720000D01*
X148119999Y-85720000D02*
X148119999Y-86080000D01*
X148119999Y-86080000D02*
X142040000Y-86080000D01*
X154200000Y-85720000D02*
X148119999Y-85720000D01*
X154200000Y-105700000D02*
X154200000Y-85720000D01*
G04 #@! TO.C,C3*
X128269600Y-90261248D02*
X128269600Y-91683752D01*
X130089600Y-90261248D02*
X130089600Y-91683752D01*
G04 #@! TO.C,IC1*
X128575000Y-94205000D02*
X124815000Y-94205000D01*
X128575000Y-95465000D02*
X128575000Y-94205000D01*
X128575000Y-99765000D02*
X128575000Y-101025000D01*
X128575000Y-101025000D02*
X124815000Y-101025000D01*
X123775000Y-101255000D02*
X123295000Y-101255000D01*
X123535000Y-100925000D01*
X123775000Y-101255000D01*
G36*
X123775000Y-101255000D02*
G01*
X123295000Y-101255000D01*
X123535000Y-100925000D01*
X123775000Y-101255000D01*
G37*
G04 #@! TO.C,C1*
X121216248Y-91625000D02*
X122638752Y-91625000D01*
X121216248Y-93445000D02*
X122638752Y-93445000D01*
G04 #@! TD*
M02*
