G04 #@! TF.GenerationSoftware,KiCad,Pcbnew,9.0.0*
G04 #@! TF.CreationDate,2025-04-09T20:43:05+09:00*
G04 #@! TF.ProjectId,2_wheels_mini_Motor_inverted_Pendulum,325f7768-6565-46c7-935f-6d696e695f4d,rev?*
G04 #@! TF.SameCoordinates,Original*
G04 #@! TF.FileFunction,Copper,L2,Bot*
G04 #@! TF.FilePolarity,Positive*
%FSLAX46Y46*%
G04 Gerber Fmt 4.6, Leading zero omitted, Abs format (unit mm)*
G04 Created by KiCad (PCBNEW 9.0.0) date 2025-04-09 20:43:05*
%MOMM*%
%LPD*%
G01*
G04 APERTURE LIST*
G04 Aperture macros list*
%AMRoundRect*
0 Rectangle with rounded corners*
0 $1 Rounding radius*
0 $2 $3 $4 $5 $6 $7 $8 $9 X,Y pos of 4 corners*
0 Add a 4 corners polygon primitive as box body*
4,1,4,$2,$3,$4,$5,$6,$7,$8,$9,$2,$3,0*
0 Add four circle primitives for the rounded corners*
1,1,$1+$1,$2,$3*
1,1,$1+$1,$4,$5*
1,1,$1+$1,$6,$7*
1,1,$1+$1,$8,$9*
0 Add four rect primitives between the rounded corners*
20,1,$1+$1,$2,$3,$4,$5,0*
20,1,$1+$1,$4,$5,$6,$7,0*
20,1,$1+$1,$6,$7,$8,$9,0*
20,1,$1+$1,$8,$9,$2,$3,0*%
G04 Aperture macros list end*
G04 #@! TA.AperFunction,ComponentPad*
%ADD10O,1.600000X2.000000*%
G04 #@! TD*
G04 #@! TA.AperFunction,ComponentPad*
%ADD11C,1.400000*%
G04 #@! TD*
G04 #@! TA.AperFunction,ComponentPad*
%ADD12O,1.400000X1.400000*%
G04 #@! TD*
G04 #@! TA.AperFunction,ComponentPad*
%ADD13O,2.000000X1.200000*%
G04 #@! TD*
G04 #@! TA.AperFunction,ComponentPad*
%ADD14RoundRect,0.250000X-0.625000X0.350000X-0.625000X-0.350000X0.625000X-0.350000X0.625000X0.350000X0*%
G04 #@! TD*
G04 #@! TA.AperFunction,ComponentPad*
%ADD15O,1.750000X1.200000*%
G04 #@! TD*
G04 #@! TA.AperFunction,ComponentPad*
%ADD16O,2.000000X1.600000*%
G04 #@! TD*
G04 #@! TA.AperFunction,ComponentPad*
%ADD17R,1.800000X1.800000*%
G04 #@! TD*
G04 #@! TA.AperFunction,ComponentPad*
%ADD18C,1.800000*%
G04 #@! TD*
G04 #@! TA.AperFunction,ComponentPad*
%ADD19RoundRect,0.250000X0.350000X0.625000X-0.350000X0.625000X-0.350000X-0.625000X0.350000X-0.625000X0*%
G04 #@! TD*
G04 #@! TA.AperFunction,ComponentPad*
%ADD20O,1.200000X1.750000*%
G04 #@! TD*
G04 #@! TA.AperFunction,SMDPad,CuDef*
%ADD21RoundRect,0.250000X0.650000X-0.412500X0.650000X0.412500X-0.650000X0.412500X-0.650000X-0.412500X0*%
G04 #@! TD*
G04 #@! TA.AperFunction,SMDPad,CuDef*
%ADD22RoundRect,0.375000X-0.625000X-0.375000X0.625000X-0.375000X0.625000X0.375000X-0.625000X0.375000X0*%
G04 #@! TD*
G04 #@! TA.AperFunction,SMDPad,CuDef*
%ADD23RoundRect,0.500000X-0.500000X-1.400000X0.500000X-1.400000X0.500000X1.400000X-0.500000X1.400000X0*%
G04 #@! TD*
G04 #@! TA.AperFunction,SMDPad,CuDef*
%ADD24RoundRect,0.250000X0.412500X0.650000X-0.412500X0.650000X-0.412500X-0.650000X0.412500X-0.650000X0*%
G04 #@! TD*
G04 #@! TA.AperFunction,ViaPad*
%ADD25C,0.800000*%
G04 #@! TD*
G04 #@! TA.AperFunction,ViaPad*
%ADD26C,1.200000*%
G04 #@! TD*
G04 #@! TA.AperFunction,ViaPad*
%ADD27C,0.900000*%
G04 #@! TD*
G04 #@! TA.AperFunction,ViaPad*
%ADD28C,0.600000*%
G04 #@! TD*
G04 #@! TA.AperFunction,Conductor*
%ADD29C,1.000000*%
G04 #@! TD*
G04 #@! TA.AperFunction,Conductor*
%ADD30C,0.500000*%
G04 #@! TD*
G04 #@! TA.AperFunction,Conductor*
%ADD31C,0.200000*%
G04 #@! TD*
G04 APERTURE END LIST*
D10*
G04 #@! TO.P,IC4,1,VCC*
G04 #@! TO.N,+3.3V*
X148636000Y-111204000D03*
G04 #@! TO.P,IC4,2,GND*
G04 #@! TO.N,GND*
X146096000Y-111204000D03*
G04 #@! TO.P,IC4,3,SCL*
G04 #@! TO.N,Net-(IC4-SCL)*
X143556000Y-111204000D03*
G04 #@! TO.P,IC4,4,SDA*
G04 #@! TO.N,Net-(IC2-GPIO8)*
X141016000Y-111204000D03*
G04 #@! TO.P,IC4,5,XDA*
G04 #@! TO.N,unconnected-(IC4-XDA-Pad5)*
X138476000Y-111204000D03*
G04 #@! TO.P,IC4,6,XCL*
G04 #@! TO.N,unconnected-(IC4-XCL-Pad6)*
X135936000Y-111204000D03*
G04 #@! TO.P,IC4,7,ADO*
G04 #@! TO.N,unconnected-(IC4-ADO-Pad7)*
X133396000Y-111204000D03*
G04 #@! TO.P,IC4,8,INT*
G04 #@! TO.N,unconnected-(IC4-INT-Pad8)*
X130856000Y-111204000D03*
G04 #@! TD*
D11*
G04 #@! TO.P,R1,1*
G04 #@! TO.N,Net-(IC1-VI)*
X124760000Y-103965000D03*
D12*
G04 #@! TO.P,R1,2*
G04 #@! TO.N,Net-(IC2-GPIO0)*
X129840000Y-103965000D03*
G04 #@! TD*
D13*
G04 #@! TO.P,SW2,1,A*
G04 #@! TO.N,Net-(IC4-SCL)*
X157780000Y-84320000D03*
G04 #@! TO.P,SW2,2,B*
G04 #@! TO.N,Net-(IC2-GPIO9)*
X157780000Y-86820000D03*
G04 #@! TO.P,SW2,3,C*
G04 #@! TO.N,GND*
X157780000Y-89320000D03*
G04 #@! TD*
G04 #@! TO.P,SW1,1,A*
G04 #@! TO.N,unconnected-(SW1-A-Pad1)*
X125014000Y-89614000D03*
G04 #@! TO.P,SW1,2,B*
G04 #@! TO.N,Net-(CN1-Pin_1)*
X125014000Y-87114000D03*
G04 #@! TO.P,SW1,3,C*
G04 #@! TO.N,Net-(IC1-VI)*
X125014000Y-84614000D03*
G04 #@! TD*
D14*
G04 #@! TO.P,CN2,1,Pin_1*
G04 #@! TO.N,Net-(CN2-Pin_1)*
X164892000Y-85836000D03*
D15*
G04 #@! TO.P,CN2,2,Pin_2*
G04 #@! TO.N,Net-(CN2-Pin_2)*
X164892000Y-87836000D03*
G04 #@! TD*
D11*
G04 #@! TO.P,R2,1*
G04 #@! TO.N,Net-(IC2-GPIO0)*
X129840000Y-106505000D03*
D12*
G04 #@! TO.P,R2,2*
G04 #@! TO.N,GND*
X124760000Y-106505000D03*
G04 #@! TD*
D11*
G04 #@! TO.P,R3,1*
G04 #@! TO.N,Net-(IC2-GPIO1)*
X156002000Y-104600000D03*
D12*
G04 #@! TO.P,R3,2*
G04 #@! TO.N,Net-(D1-A)*
X156002000Y-99520000D03*
G04 #@! TD*
D16*
G04 #@! TO.P,IC2,1,GPIO5*
G04 #@! TO.N,Net-(IC2-GPIO5)*
X133650000Y-86820000D03*
G04 #@! TO.P,IC2,2,GPIO6*
G04 #@! TO.N,Net-(IC2-GPIO6)*
X133650000Y-89360000D03*
G04 #@! TO.P,IC2,3,GPIO7*
G04 #@! TO.N,Net-(IC2-GPIO7)*
X133650000Y-91900000D03*
G04 #@! TO.P,IC2,4,GPIO8*
G04 #@! TO.N,Net-(IC2-GPIO8)*
X133650000Y-94440000D03*
G04 #@! TO.P,IC2,5,GPIO9*
G04 #@! TO.N,Net-(IC2-GPIO9)*
X133650000Y-96980000D03*
G04 #@! TO.P,IC2,6,GPIO10*
G04 #@! TO.N,unconnected-(IC2-GPIO10-Pad6)*
X133650000Y-99520000D03*
G04 #@! TO.P,IC2,7,GPIO20*
G04 #@! TO.N,unconnected-(IC2-GPIO20-Pad7)*
X133650000Y-102060000D03*
G04 #@! TO.P,IC2,8,GPIO21*
G04 #@! TO.N,unconnected-(IC2-GPIO21-Pad8)*
X133650000Y-104600000D03*
G04 #@! TO.P,IC2,9,GPIO0*
G04 #@! TO.N,Net-(IC2-GPIO0)*
X148890000Y-104600000D03*
G04 #@! TO.P,IC2,10,GPIO1*
G04 #@! TO.N,Net-(IC2-GPIO1)*
X148890000Y-102060000D03*
G04 #@! TO.P,IC2,11,GPIO2*
G04 #@! TO.N,unconnected-(IC2-GPIO2-Pad11)*
X148890000Y-99520000D03*
G04 #@! TO.P,IC2,12,GPIO3*
G04 #@! TO.N,unconnected-(IC2-GPIO3-Pad12)*
X148890000Y-96980000D03*
G04 #@! TO.P,IC2,13,GPIO4*
G04 #@! TO.N,unconnected-(IC2-GPIO4-Pad13)*
X148890000Y-94440000D03*
G04 #@! TO.P,IC2,14,3.3V*
G04 #@! TO.N,+3.3V*
X148890000Y-91900000D03*
G04 #@! TO.P,IC2,15,GND*
G04 #@! TO.N,GND*
X148890000Y-89360000D03*
G04 #@! TO.P,IC2,16,5V*
G04 #@! TO.N,unconnected-(IC2-5V-Pad16)*
X148890000Y-86820000D03*
G04 #@! TD*
D17*
G04 #@! TO.P,D1,1,K*
G04 #@! TO.N,GND*
X159812000Y-95710000D03*
D18*
G04 #@! TO.P,D1,2,A*
G04 #@! TO.N,Net-(D1-A)*
X157272000Y-95710000D03*
G04 #@! TD*
D19*
G04 #@! TO.P,CN1,1,Pin_1*
G04 #@! TO.N,Net-(CN1-Pin_1)*
X117140000Y-85836000D03*
D20*
G04 #@! TO.P,CN1,2,Pin_2*
G04 #@! TO.N,GND*
X115140000Y-85836000D03*
G04 #@! TD*
D16*
G04 #@! TO.P,IC3,1,VM*
G04 #@! TO.N,+3.3V*
X152700000Y-86820000D03*
G04 #@! TO.P,IC3,2,NC*
G04 #@! TO.N,unconnected-(IC3-NC-Pad2)*
X152700000Y-89360000D03*
G04 #@! TO.P,IC3,3,GND*
G04 #@! TO.N,GND*
X152700000Y-91900000D03*
G04 #@! TO.P,IC3,4,AO1*
G04 #@! TO.N,Net-(CN2-Pin_1)*
X152700000Y-94440000D03*
G04 #@! TO.P,IC3,5,AO2*
G04 #@! TO.N,Net-(CN2-Pin_2)*
X152700000Y-96980000D03*
G04 #@! TO.P,IC3,6,BO2*
G04 #@! TO.N,unconnected-(IC3-BO2-Pad6)*
X152700000Y-99520000D03*
G04 #@! TO.P,IC3,7,BO1*
G04 #@! TO.N,unconnected-(IC3-BO1-Pad7)*
X152700000Y-102060000D03*
G04 #@! TO.P,IC3,8,GND*
G04 #@! TO.N,GND*
X152700000Y-104600000D03*
G04 #@! TO.P,IC3,9,GND*
X137460000Y-104600000D03*
G04 #@! TO.P,IC3,10,NC*
G04 #@! TO.N,unconnected-(IC3-NC-Pad10)*
X137460000Y-102060000D03*
G04 #@! TO.P,IC3,11,BIN2*
G04 #@! TO.N,unconnected-(IC3-BIN2-Pad11)*
X137460000Y-99520000D03*
G04 #@! TO.P,IC3,12,BIN1*
G04 #@! TO.N,unconnected-(IC3-BIN1-Pad12)*
X137460000Y-96980000D03*
G04 #@! TO.P,IC3,13,STBY*
G04 #@! TO.N,Net-(IC2-GPIO7)*
X137460000Y-94440000D03*
G04 #@! TO.P,IC3,14,AIN1*
G04 #@! TO.N,Net-(IC2-GPIO5)*
X137460000Y-91900000D03*
G04 #@! TO.P,IC3,15,AIN2*
G04 #@! TO.N,Net-(IC2-GPIO6)*
X137460000Y-89360000D03*
G04 #@! TO.P,IC3,16,NC*
G04 #@! TO.N,unconnected-(IC3-NC-Pad16)*
X137460000Y-86820000D03*
G04 #@! TD*
D21*
G04 #@! TO.P,C3,1*
G04 #@! TO.N,+3.3V*
X129179600Y-92535000D03*
G04 #@! TO.P,C3,2*
G04 #@! TO.N,GND*
X129179600Y-89410000D03*
G04 #@! TD*
D22*
G04 #@! TO.P,IC1,1,GND*
G04 #@! TO.N,GND*
X123515000Y-99915000D03*
G04 #@! TO.P,IC1,2,VO*
G04 #@! TO.N,+3.3V*
X123515000Y-97615000D03*
D23*
X129815000Y-97615000D03*
D22*
G04 #@! TO.P,IC1,3,VI*
G04 #@! TO.N,Net-(IC1-VI)*
X123515000Y-95315000D03*
G04 #@! TD*
D24*
G04 #@! TO.P,C1,1*
G04 #@! TO.N,Net-(IC1-VI)*
X123490000Y-92535000D03*
G04 #@! TO.P,C1,2*
G04 #@! TO.N,GND*
X120365000Y-92535000D03*
G04 #@! TD*
D25*
G04 #@! TO.N,GND*
X145080000Y-121110000D03*
X151430000Y-126190000D03*
X140000000Y-86820000D03*
X145080000Y-126190000D03*
X160574000Y-84280000D03*
X140000000Y-100790000D03*
X162860000Y-96980000D03*
X126030000Y-126190000D03*
X132380000Y-116030000D03*
X126284000Y-110188000D03*
X165400000Y-96980000D03*
X138730000Y-121110000D03*
X145842000Y-95964000D03*
X145080000Y-116284000D03*
X151684000Y-109934000D03*
X145842000Y-100790000D03*
X145588000Y-86820000D03*
X161082000Y-92408000D03*
X119172000Y-90122000D03*
X138730000Y-126190000D03*
X132380000Y-126190000D03*
X126030000Y-116030000D03*
X128062000Y-85804000D03*
X138730000Y-116030000D03*
X151430000Y-116030000D03*
X118918000Y-97742000D03*
X126030000Y-121110000D03*
X114854000Y-97742000D03*
X151430000Y-121110000D03*
X132380000Y-121110000D03*
D26*
G04 #@! TO.N,+3.3V*
X142540000Y-84280000D03*
D27*
X142540000Y-91900000D03*
D26*
X131364000Y-85804000D03*
D25*
X142540000Y-104600000D03*
D28*
G04 #@! TO.N,Net-(IC1-VI)*
X126500000Y-95500000D03*
D25*
G04 #@! TO.N,Net-(IC2-GPIO8)*
X141016000Y-106886000D03*
X135428000Y-106886000D03*
G04 #@! TO.N,Net-(IC2-GPIO9)*
X140000000Y-88344000D03*
X140000000Y-95710000D03*
G04 #@! TO.N,Net-(IC4-SCL)*
X155494000Y-89360000D03*
X144191000Y-93551000D03*
G04 #@! TD*
D29*
G04 #@! TO.N,+3.3V*
X129179600Y-92535000D02*
X131364000Y-90350600D01*
X142540000Y-89360000D02*
X142540000Y-90376000D01*
X129179600Y-94287600D02*
X129179600Y-92535000D01*
X142540000Y-90376000D02*
X142540000Y-91138000D01*
X142540000Y-91900000D02*
X142540000Y-92662000D01*
X131364000Y-90350600D02*
X131364000Y-85804000D01*
X129815000Y-97615000D02*
X129815000Y-94973000D01*
D30*
X123515000Y-97615000D02*
X129815000Y-97615000D01*
D29*
X129815000Y-94973000D02*
X129840000Y-94948000D01*
X142540000Y-91646000D02*
X142540000Y-91900000D01*
X142540000Y-84280000D02*
X142540000Y-89360000D01*
X142540000Y-91138000D02*
X142540000Y-91646000D01*
X142540000Y-92662000D02*
X142540000Y-104600000D01*
X129840000Y-94948000D02*
X129179600Y-94287600D01*
D30*
X142540000Y-91138000D02*
X142593000Y-91085000D01*
D31*
G04 #@! TO.N,Net-(D1-A)*
X157272000Y-96980000D02*
X156002000Y-98250000D01*
X157272000Y-95710000D02*
X157272000Y-96980000D01*
X156002000Y-98250000D02*
X156002000Y-99520000D01*
D29*
G04 #@! TO.N,Net-(IC1-VI)*
X123500000Y-91200000D02*
X122200000Y-89900000D01*
X123490000Y-92535000D02*
X123490000Y-95290000D01*
X123490000Y-92535000D02*
X123490000Y-91210000D01*
D31*
X126315000Y-95315000D02*
X123515000Y-95315000D01*
D29*
X123490000Y-95290000D02*
X123515000Y-95315000D01*
D31*
X126500000Y-95500000D02*
X126315000Y-95315000D01*
D29*
X122814000Y-84614000D02*
X125014000Y-84614000D01*
X123490000Y-91210000D02*
X123500000Y-91200000D01*
X122200000Y-89900000D02*
X122200000Y-85200000D01*
X122200000Y-85200000D02*
X122800000Y-84600000D01*
X122800000Y-84600000D02*
X122814000Y-84614000D01*
D31*
G04 #@! TO.N,Net-(IC2-GPIO8)*
X135428000Y-95202000D02*
X135428000Y-106886000D01*
X134666000Y-94440000D02*
X135428000Y-95202000D01*
X133650000Y-94440000D02*
X134666000Y-94440000D01*
X141016000Y-106886000D02*
X141016000Y-111204000D01*
G04 #@! TO.N,Net-(IC2-GPIO5)*
X136190000Y-91900000D02*
X137460000Y-91900000D01*
X135174000Y-86820000D02*
X135428000Y-87074000D01*
X135428000Y-91138000D02*
X136190000Y-91900000D01*
X133650000Y-86820000D02*
X135174000Y-86820000D01*
X135428000Y-87074000D02*
X135428000Y-91138000D01*
G04 #@! TO.N,Net-(IC2-GPIO0)*
X129840000Y-103965000D02*
X129840000Y-106505000D01*
G04 #@! TO.N,Net-(IC2-GPIO9)*
X140000000Y-95710000D02*
X140000000Y-88344000D01*
G04 #@! TO.N,Net-(IC4-SCL)*
X155494000Y-89360000D02*
X155494000Y-85042000D01*
X143556000Y-94186000D02*
X143556000Y-111204000D01*
X156216000Y-84320000D02*
X157780000Y-84320000D01*
X143556000Y-94186000D02*
X144191000Y-93551000D01*
X155494000Y-85042000D02*
X156216000Y-84320000D01*
G04 #@! TD*
G04 #@! TA.AperFunction,Conductor*
G04 #@! TO.N,GND*
G36*
X122302932Y-83520185D02*
G01*
X122348687Y-83572989D01*
X122358631Y-83642147D01*
X122329606Y-83705703D01*
X122304784Y-83727602D01*
X122162218Y-83822860D01*
X122162215Y-83822863D01*
X121793527Y-84191552D01*
X121562221Y-84422858D01*
X121562218Y-84422861D01*
X121524579Y-84460500D01*
X121422859Y-84562219D01*
X121313371Y-84726079D01*
X121313364Y-84726092D01*
X121265376Y-84841949D01*
X121238919Y-84905823D01*
X121238915Y-84905834D01*
X121237948Y-84908165D01*
X121199500Y-85101456D01*
X121199500Y-89998543D01*
X121215401Y-90078479D01*
X121216532Y-90084165D01*
X121237949Y-90191836D01*
X121257050Y-90237949D01*
X121260142Y-90245414D01*
X121260143Y-90245417D01*
X121313366Y-90373910D01*
X121313371Y-90373919D01*
X121339516Y-90413047D01*
X121422861Y-90537782D01*
X121562218Y-90677139D01*
X121562220Y-90677140D01*
X121569286Y-90684206D01*
X121569285Y-90684206D01*
X121569289Y-90684209D01*
X122353053Y-91467974D01*
X122386538Y-91529297D01*
X122383078Y-91594658D01*
X122337501Y-91732200D01*
X122337500Y-91732204D01*
X122327000Y-91834983D01*
X122327000Y-93235001D01*
X122327001Y-93235018D01*
X122337500Y-93337796D01*
X122337501Y-93337799D01*
X122378759Y-93462306D01*
X122392686Y-93504334D01*
X122471039Y-93631366D01*
X122489500Y-93696461D01*
X122489500Y-94084456D01*
X122469815Y-94151495D01*
X122420596Y-94195544D01*
X122415703Y-94197970D01*
X122267278Y-94317277D01*
X122267277Y-94317278D01*
X122147969Y-94465704D01*
X122147967Y-94465707D01*
X122063360Y-94636302D01*
X122017400Y-94821107D01*
X122014500Y-94863879D01*
X122014500Y-95766122D01*
X122014501Y-95766125D01*
X122017399Y-95808886D01*
X122017399Y-95808887D01*
X122034880Y-95879179D01*
X122061861Y-95987671D01*
X122063360Y-95993696D01*
X122147967Y-96164292D01*
X122147969Y-96164295D01*
X122267277Y-96312721D01*
X122267278Y-96312722D01*
X122336486Y-96368353D01*
X122376405Y-96425696D01*
X122378985Y-96495518D01*
X122343406Y-96555651D01*
X122336486Y-96561647D01*
X122267278Y-96617277D01*
X122267277Y-96617278D01*
X122147969Y-96765704D01*
X122147967Y-96765707D01*
X122063360Y-96936302D01*
X122017400Y-97121107D01*
X122014500Y-97163879D01*
X122014500Y-98066122D01*
X122014501Y-98066125D01*
X122017399Y-98108886D01*
X122017399Y-98108887D01*
X122063360Y-98293696D01*
X122147967Y-98464292D01*
X122147969Y-98464295D01*
X122267277Y-98612721D01*
X122267278Y-98612722D01*
X122336884Y-98668673D01*
X122376803Y-98726016D01*
X122379383Y-98795838D01*
X122343804Y-98855971D01*
X122336885Y-98861967D01*
X122267631Y-98917635D01*
X122148392Y-99065974D01*
X122148390Y-99065977D01*
X122063831Y-99236476D01*
X122017897Y-99421175D01*
X122015000Y-99463903D01*
X122015000Y-99665000D01*
X125015000Y-99665000D01*
X125015000Y-99463903D01*
X125012102Y-99421175D01*
X124966168Y-99236476D01*
X124881609Y-99065977D01*
X124881607Y-99065974D01*
X124762367Y-98917633D01*
X124762366Y-98917632D01*
X124693115Y-98861967D01*
X124653196Y-98804624D01*
X124650616Y-98734802D01*
X124686194Y-98674669D01*
X124693089Y-98668694D01*
X124762722Y-98612722D01*
X124882030Y-98464296D01*
X124896854Y-98434406D01*
X124944275Y-98383093D01*
X125007942Y-98365500D01*
X128190501Y-98365500D01*
X128257540Y-98385185D01*
X128303295Y-98437989D01*
X128314501Y-98489500D01*
X128314501Y-99073034D01*
X128325113Y-99192415D01*
X128381089Y-99388045D01*
X128381090Y-99388048D01*
X128381091Y-99388049D01*
X128475302Y-99568407D01*
X128475304Y-99568409D01*
X128603890Y-99726109D01*
X128695882Y-99801118D01*
X128761593Y-99854698D01*
X128941951Y-99948909D01*
X129137582Y-100004886D01*
X129256963Y-100015500D01*
X130373036Y-100015499D01*
X130492418Y-100004886D01*
X130688049Y-99948909D01*
X130868407Y-99854698D01*
X131026109Y-99726109D01*
X131154698Y-99568407D01*
X131248909Y-99388049D01*
X131304886Y-99192418D01*
X131315500Y-99073037D01*
X131315499Y-96156964D01*
X131304886Y-96037582D01*
X131248909Y-95841951D01*
X131154698Y-95661593D01*
X131087225Y-95578844D01*
X131026109Y-95503890D01*
X130893087Y-95395426D01*
X130868407Y-95375302D01*
X130868406Y-95375301D01*
X130863533Y-95371328D01*
X130864469Y-95370179D01*
X130858297Y-95367361D01*
X130843635Y-95344546D01*
X130826117Y-95323850D01*
X130824048Y-95314068D01*
X130820523Y-95308583D01*
X130815500Y-95273648D01*
X130815500Y-95184436D01*
X130817883Y-95160244D01*
X130840500Y-95046541D01*
X130840500Y-94849460D01*
X130802052Y-94656165D01*
X130726632Y-94474086D01*
X130726631Y-94474085D01*
X130726628Y-94474079D01*
X130617140Y-94310219D01*
X130617137Y-94310215D01*
X130216419Y-93909497D01*
X130201715Y-93882569D01*
X130185123Y-93856751D01*
X130184231Y-93850550D01*
X130182934Y-93848174D01*
X130180100Y-93821816D01*
X130180100Y-93682297D01*
X130199785Y-93615258D01*
X130239003Y-93576758D01*
X130298256Y-93540212D01*
X130422312Y-93416156D01*
X130514414Y-93266834D01*
X130569599Y-93100297D01*
X130580100Y-92997509D01*
X130580099Y-92600780D01*
X130599783Y-92533742D01*
X130616413Y-92513105D01*
X132001778Y-91127741D01*
X132001782Y-91127739D01*
X132141139Y-90988382D01*
X132250632Y-90824514D01*
X132307425Y-90687402D01*
X132326051Y-90642436D01*
X132358383Y-90479894D01*
X132364500Y-90449141D01*
X132364500Y-90413047D01*
X132384185Y-90346008D01*
X132436989Y-90300253D01*
X132506147Y-90290309D01*
X132569703Y-90319334D01*
X132576181Y-90325366D01*
X132602786Y-90351971D01*
X132736532Y-90449141D01*
X132768390Y-90472287D01*
X132849059Y-90513390D01*
X132861080Y-90519515D01*
X132911876Y-90567490D01*
X132928671Y-90635311D01*
X132906134Y-90701446D01*
X132861080Y-90740485D01*
X132768386Y-90787715D01*
X132602786Y-90908028D01*
X132458028Y-91052786D01*
X132337715Y-91218386D01*
X132244781Y-91400776D01*
X132181522Y-91595465D01*
X132149500Y-91797648D01*
X132149500Y-92002351D01*
X132181522Y-92204534D01*
X132244781Y-92399223D01*
X132295665Y-92499086D01*
X132321311Y-92549420D01*
X132337715Y-92581613D01*
X132458028Y-92747213D01*
X132602786Y-92891971D01*
X132719773Y-92976965D01*
X132768390Y-93012287D01*
X132849059Y-93053390D01*
X132861080Y-93059515D01*
X132911876Y-93107490D01*
X132928671Y-93175311D01*
X132906134Y-93241446D01*
X132861080Y-93280485D01*
X132768386Y-93327715D01*
X132602786Y-93448028D01*
X132458028Y-93592786D01*
X132337715Y-93758386D01*
X132244781Y-93940776D01*
X132181522Y-94135465D01*
X132152726Y-94317278D01*
X132149500Y-94337648D01*
X132149500Y-94542352D01*
X132149913Y-94544957D01*
X132181522Y-94744534D01*
X132244781Y-94939223D01*
X132302590Y-95052677D01*
X132337314Y-95120827D01*
X132337715Y-95121613D01*
X132458028Y-95287213D01*
X132602786Y-95431971D01*
X132727814Y-95522807D01*
X132768390Y-95552287D01*
X132824103Y-95580674D01*
X132861080Y-95599515D01*
X132911876Y-95647490D01*
X132928671Y-95715311D01*
X132906134Y-95781446D01*
X132861080Y-95820485D01*
X132768386Y-95867715D01*
X132602786Y-95988028D01*
X132458028Y-96132786D01*
X132337715Y-96298386D01*
X132244781Y-96480776D01*
X132181522Y-96675465D01*
X132149500Y-96877648D01*
X132149500Y-97082351D01*
X132181522Y-97284534D01*
X132244781Y-97479223D01*
X132337715Y-97661613D01*
X132458028Y-97827213D01*
X132602786Y-97971971D01*
X132757749Y-98084556D01*
X132768390Y-98092287D01*
X132824105Y-98120675D01*
X132861080Y-98139515D01*
X132911876Y-98187490D01*
X132928671Y-98255311D01*
X132906134Y-98321446D01*
X132861080Y-98360485D01*
X132768386Y-98407715D01*
X132602786Y-98528028D01*
X132458028Y-98672786D01*
X132337715Y-98838386D01*
X132244781Y-99020776D01*
X132181522Y-99215465D01*
X132149500Y-99417648D01*
X132149500Y-99622351D01*
X132181522Y-99824534D01*
X132244781Y-100019223D01*
X132337715Y-100201613D01*
X132458028Y-100367213D01*
X132602786Y-100511971D01*
X132757749Y-100624556D01*
X132768390Y-100632287D01*
X132824105Y-100660675D01*
X132861080Y-100679515D01*
X132911876Y-100727490D01*
X132928671Y-100795311D01*
X132906134Y-100861446D01*
X132861080Y-100900485D01*
X132768386Y-100947715D01*
X132602786Y-101068028D01*
X132458028Y-101212786D01*
X132337715Y-101378386D01*
X132244781Y-101560776D01*
X132181522Y-101755465D01*
X132149500Y-101957648D01*
X132149500Y-102162351D01*
X132181522Y-102364534D01*
X132244781Y-102559223D01*
X132337715Y-102741613D01*
X132458028Y-102907213D01*
X132602786Y-103051971D01*
X132757749Y-103164556D01*
X132768390Y-103172287D01*
X132824105Y-103200675D01*
X132861080Y-103219515D01*
X132911876Y-103267490D01*
X132928671Y-103335311D01*
X132906134Y-103401446D01*
X132861080Y-103440485D01*
X132768386Y-103487715D01*
X132602786Y-103608028D01*
X132458028Y-103752786D01*
X132337715Y-103918386D01*
X132244781Y-104100776D01*
X132181522Y-104295465D01*
X132149500Y-104497648D01*
X132149500Y-104702351D01*
X132181522Y-104904534D01*
X132244781Y-105099223D01*
X132286220Y-105180550D01*
X132323796Y-105254297D01*
X132337715Y-105281613D01*
X132458028Y-105447213D01*
X132602786Y-105591971D01*
X132735714Y-105688547D01*
X132768390Y-105712287D01*
X132883503Y-105770940D01*
X132950776Y-105805218D01*
X132950778Y-105805218D01*
X132950781Y-105805220D01*
X133055137Y-105839127D01*
X133145465Y-105868477D01*
X133191707Y-105875801D01*
X133347648Y-105900500D01*
X133347649Y-105900500D01*
X133952351Y-105900500D01*
X133952352Y-105900500D01*
X134154534Y-105868477D01*
X134349219Y-105805220D01*
X134531610Y-105712287D01*
X134583129Y-105674856D01*
X134630615Y-105640357D01*
X134696421Y-105616877D01*
X134764475Y-105632703D01*
X134813170Y-105682809D01*
X134827500Y-105740675D01*
X134827500Y-106161638D01*
X134807815Y-106228677D01*
X134791181Y-106249319D01*
X134728538Y-106311961D01*
X134728535Y-106311965D01*
X134629990Y-106459446D01*
X134629983Y-106459459D01*
X134562106Y-106623332D01*
X134562103Y-106623341D01*
X134527500Y-106797304D01*
X134527500Y-106974695D01*
X134562103Y-107148658D01*
X134562106Y-107148667D01*
X134629983Y-107312540D01*
X134629990Y-107312553D01*
X134728535Y-107460034D01*
X134728538Y-107460038D01*
X134853961Y-107585461D01*
X134853965Y-107585464D01*
X135001446Y-107684009D01*
X135001459Y-107684016D01*
X135124363Y-107734923D01*
X135165334Y-107751894D01*
X135165336Y-107751894D01*
X135165341Y-107751896D01*
X135339304Y-107786499D01*
X135339307Y-107786500D01*
X135339309Y-107786500D01*
X135516693Y-107786500D01*
X135516694Y-107786499D01*
X135574682Y-107774964D01*
X135690658Y-107751896D01*
X135690661Y-107751894D01*
X135690666Y-107751894D01*
X135854547Y-107684013D01*
X136002035Y-107585464D01*
X136127464Y-107460035D01*
X136226013Y-107312547D01*
X136293894Y-107148666D01*
X136296824Y-107133940D01*
X136328499Y-106974695D01*
X136328500Y-106974693D01*
X136328500Y-106797306D01*
X136328499Y-106797304D01*
X136293896Y-106623341D01*
X136293893Y-106623332D01*
X136226016Y-106459459D01*
X136226009Y-106459446D01*
X136127464Y-106311965D01*
X136127461Y-106311961D01*
X136064819Y-106249319D01*
X136031334Y-106187996D01*
X136028500Y-106161638D01*
X136028500Y-105498312D01*
X136048185Y-105431273D01*
X136100989Y-105385518D01*
X136170147Y-105375574D01*
X136233703Y-105404599D01*
X136252818Y-105425427D01*
X136264685Y-105441760D01*
X136264686Y-105441761D01*
X136936212Y-104770235D01*
X136947482Y-104812292D01*
X137019890Y-104937708D01*
X137122292Y-105040110D01*
X137247708Y-105112518D01*
X137289764Y-105123787D01*
X136660159Y-105753391D01*
X136760965Y-105804753D01*
X136760972Y-105804756D01*
X136955582Y-105867990D01*
X137157683Y-105900000D01*
X137762317Y-105900000D01*
X137964417Y-105867990D01*
X138159031Y-105804755D01*
X138259838Y-105753390D01*
X137630235Y-105123787D01*
X137672292Y-105112518D01*
X137797708Y-105040110D01*
X137900110Y-104937708D01*
X137972518Y-104812292D01*
X137983787Y-104770236D01*
X138655312Y-105441761D01*
X138655312Y-105441760D01*
X138771859Y-105281349D01*
X138864755Y-105099031D01*
X138927990Y-104904417D01*
X138960000Y-104702317D01*
X138960000Y-104497682D01*
X138927990Y-104295582D01*
X138864755Y-104100968D01*
X138771859Y-103918650D01*
X138655312Y-103758238D01*
X138655312Y-103758237D01*
X137983786Y-104429763D01*
X137972518Y-104387708D01*
X137900110Y-104262292D01*
X137797708Y-104159890D01*
X137672292Y-104087482D01*
X137630235Y-104076212D01*
X138259839Y-103446608D01*
X138248371Y-103440765D01*
X138197575Y-103392792D01*
X138180779Y-103324971D01*
X138203316Y-103258836D01*
X138248370Y-103219795D01*
X138248920Y-103219515D01*
X138341610Y-103172287D01*
X138472932Y-103076877D01*
X138507213Y-103051971D01*
X138507215Y-103051968D01*
X138507219Y-103051966D01*
X138651966Y-102907219D01*
X138651968Y-102907215D01*
X138651971Y-102907213D01*
X138734181Y-102794059D01*
X138772287Y-102741610D01*
X138865220Y-102559219D01*
X138928477Y-102364534D01*
X138960500Y-102162352D01*
X138960500Y-101957648D01*
X138928477Y-101755466D01*
X138865220Y-101560781D01*
X138865218Y-101560778D01*
X138865218Y-101560776D01*
X138831503Y-101494607D01*
X138772287Y-101378390D01*
X138764556Y-101367749D01*
X138651971Y-101212786D01*
X138507213Y-101068028D01*
X138341614Y-100947715D01*
X138335006Y-100944348D01*
X138248917Y-100900483D01*
X138198123Y-100852511D01*
X138181328Y-100784690D01*
X138203865Y-100718555D01*
X138248917Y-100679516D01*
X138341610Y-100632287D01*
X138459329Y-100546760D01*
X138507213Y-100511971D01*
X138507215Y-100511968D01*
X138507219Y-100511966D01*
X138651966Y-100367219D01*
X138651968Y-100367215D01*
X138651971Y-100367213D01*
X138756969Y-100222693D01*
X138772287Y-100201610D01*
X138865220Y-100019219D01*
X138928477Y-99824534D01*
X138960500Y-99622352D01*
X138960500Y-99417648D01*
X138928477Y-99215466D01*
X138920987Y-99192415D01*
X138882199Y-99073037D01*
X138865220Y-99020781D01*
X138865218Y-99020778D01*
X138865218Y-99020776D01*
X138812663Y-98917632D01*
X138772287Y-98838390D01*
X138747755Y-98804624D01*
X138651971Y-98672786D01*
X138507213Y-98528028D01*
X138341614Y-98407715D01*
X138297396Y-98385185D01*
X138248917Y-98360483D01*
X138198123Y-98312511D01*
X138181328Y-98244690D01*
X138203865Y-98178555D01*
X138248917Y-98139516D01*
X138341610Y-98092287D01*
X138440614Y-98020357D01*
X138507213Y-97971971D01*
X138507215Y-97971968D01*
X138507219Y-97971966D01*
X138651966Y-97827219D01*
X138651968Y-97827215D01*
X138651971Y-97827213D01*
X138704732Y-97754590D01*
X138772287Y-97661610D01*
X138865220Y-97479219D01*
X138928477Y-97284534D01*
X138960500Y-97082352D01*
X138960500Y-96877648D01*
X138944755Y-96778242D01*
X138928477Y-96675465D01*
X138865218Y-96480776D01*
X138807935Y-96368353D01*
X138772287Y-96298390D01*
X138735391Y-96247606D01*
X138651971Y-96132786D01*
X138507213Y-95988028D01*
X138341614Y-95867715D01*
X138291049Y-95841951D01*
X138248917Y-95820483D01*
X138198123Y-95772511D01*
X138181328Y-95704690D01*
X138203865Y-95638555D01*
X138248917Y-95599516D01*
X138341610Y-95552287D01*
X138408222Y-95503891D01*
X138507213Y-95431971D01*
X138507215Y-95431968D01*
X138507219Y-95431966D01*
X138651966Y-95287219D01*
X138651968Y-95287215D01*
X138651971Y-95287213D01*
X138704732Y-95214590D01*
X138772287Y-95121610D01*
X138865220Y-94939219D01*
X138928477Y-94744534D01*
X138960500Y-94542352D01*
X138960500Y-94337648D01*
X138957274Y-94317278D01*
X138928477Y-94135465D01*
X138890926Y-94019896D01*
X138865220Y-93940781D01*
X138865218Y-93940778D01*
X138865218Y-93940776D01*
X138828827Y-93869356D01*
X138772287Y-93758390D01*
X138764556Y-93747749D01*
X138651971Y-93592786D01*
X138507213Y-93448028D01*
X138341614Y-93327715D01*
X138296354Y-93304654D01*
X138248917Y-93280483D01*
X138198123Y-93232511D01*
X138181328Y-93164690D01*
X138203865Y-93098555D01*
X138248917Y-93059516D01*
X138341610Y-93012287D01*
X138390227Y-92976965D01*
X138507213Y-92891971D01*
X138507215Y-92891968D01*
X138507219Y-92891966D01*
X138651966Y-92747219D01*
X138651968Y-92747215D01*
X138651971Y-92747213D01*
X138722236Y-92650500D01*
X138772287Y-92581610D01*
X138865220Y-92399219D01*
X138928477Y-92204534D01*
X138960500Y-92002352D01*
X138960500Y-91797648D01*
X138936339Y-91645104D01*
X138928477Y-91595465D01*
X138870377Y-91416654D01*
X138865220Y-91400781D01*
X138865218Y-91400778D01*
X138865218Y-91400776D01*
X138831503Y-91334607D01*
X138772287Y-91218390D01*
X138727693Y-91157011D01*
X138651971Y-91052786D01*
X138507213Y-90908028D01*
X138341614Y-90787715D01*
X138321962Y-90777702D01*
X138248917Y-90740483D01*
X138198123Y-90692511D01*
X138181328Y-90624690D01*
X138203865Y-90558555D01*
X138248917Y-90519516D01*
X138341610Y-90472287D01*
X138382183Y-90442809D01*
X138507213Y-90351971D01*
X138507215Y-90351968D01*
X138507219Y-90351966D01*
X138651966Y-90207219D01*
X138651968Y-90207215D01*
X138651971Y-90207213D01*
X138759315Y-90059464D01*
X138772287Y-90041610D01*
X138865220Y-89859219D01*
X138928477Y-89664534D01*
X138960500Y-89462352D01*
X138960500Y-89257648D01*
X138943087Y-89147708D01*
X138928477Y-89055465D01*
X138891500Y-88941662D01*
X138865220Y-88860781D01*
X138865218Y-88860778D01*
X138865218Y-88860776D01*
X138827097Y-88785961D01*
X138772287Y-88678390D01*
X138756458Y-88656603D01*
X138651971Y-88512786D01*
X138507215Y-88368030D01*
X138481759Y-88349536D01*
X138481758Y-88349535D01*
X138352059Y-88255304D01*
X139099500Y-88255304D01*
X139099500Y-88432695D01*
X139134103Y-88606658D01*
X139134106Y-88606667D01*
X139201983Y-88770540D01*
X139201990Y-88770553D01*
X139300534Y-88918033D01*
X139300535Y-88918034D01*
X139300536Y-88918035D01*
X139363182Y-88980681D01*
X139396666Y-89042002D01*
X139399500Y-89068361D01*
X139399500Y-94985638D01*
X139379815Y-95052677D01*
X139363181Y-95073319D01*
X139300538Y-95135961D01*
X139300535Y-95135965D01*
X139201990Y-95283446D01*
X139201983Y-95283459D01*
X139134106Y-95447332D01*
X139134103Y-95447341D01*
X139099500Y-95621304D01*
X139099500Y-95798695D01*
X139134103Y-95972658D01*
X139134106Y-95972667D01*
X139201983Y-96136540D01*
X139201990Y-96136553D01*
X139300535Y-96284034D01*
X139300538Y-96284038D01*
X139425961Y-96409461D01*
X139425965Y-96409464D01*
X139573446Y-96508009D01*
X139573459Y-96508016D01*
X139696363Y-96558923D01*
X139737334Y-96575894D01*
X139737336Y-96575894D01*
X139737341Y-96575896D01*
X139911304Y-96610499D01*
X139911307Y-96610500D01*
X139911309Y-96610500D01*
X140088693Y-96610500D01*
X140088694Y-96610499D01*
X140146682Y-96598964D01*
X140262658Y-96575896D01*
X140262661Y-96575894D01*
X140262666Y-96575894D01*
X140426547Y-96508013D01*
X140574035Y-96409464D01*
X140699464Y-96284035D01*
X140798013Y-96136547D01*
X140799573Y-96132782D01*
X140809456Y-96108921D01*
X140865894Y-95972666D01*
X140866304Y-95970609D01*
X140891895Y-95841951D01*
X140900500Y-95798691D01*
X140900500Y-95621309D01*
X140900500Y-95621306D01*
X140900499Y-95621304D01*
X140865896Y-95447341D01*
X140865893Y-95447332D01*
X140859530Y-95431971D01*
X140833235Y-95368488D01*
X140798016Y-95283459D01*
X140798009Y-95283446D01*
X140699464Y-95135965D01*
X140699461Y-95135961D01*
X140636819Y-95073319D01*
X140603334Y-95011996D01*
X140600500Y-94985638D01*
X140600500Y-89068361D01*
X140620185Y-89001322D01*
X140636814Y-88980684D01*
X140699464Y-88918035D01*
X140798013Y-88770547D01*
X140865894Y-88606666D01*
X140866545Y-88603397D01*
X140900499Y-88432695D01*
X140900500Y-88432693D01*
X140900500Y-88255306D01*
X140900499Y-88255304D01*
X140865896Y-88081341D01*
X140865893Y-88081332D01*
X140862965Y-88074264D01*
X140815916Y-87960675D01*
X140798016Y-87917459D01*
X140798009Y-87917446D01*
X140699464Y-87769965D01*
X140699461Y-87769961D01*
X140574038Y-87644538D01*
X140574034Y-87644535D01*
X140426553Y-87545990D01*
X140426540Y-87545983D01*
X140262667Y-87478106D01*
X140262658Y-87478103D01*
X140088694Y-87443500D01*
X140088691Y-87443500D01*
X139911309Y-87443500D01*
X139911306Y-87443500D01*
X139737341Y-87478103D01*
X139737332Y-87478106D01*
X139573459Y-87545983D01*
X139573446Y-87545990D01*
X139425965Y-87644535D01*
X139425961Y-87644538D01*
X139300538Y-87769961D01*
X139300535Y-87769965D01*
X139201990Y-87917446D01*
X139201983Y-87917459D01*
X139134106Y-88081332D01*
X139134103Y-88081341D01*
X139099500Y-88255304D01*
X138352059Y-88255304D01*
X138341614Y-88247715D01*
X138316777Y-88235060D01*
X138248917Y-88200483D01*
X138198123Y-88152511D01*
X138181328Y-88084690D01*
X138203865Y-88018555D01*
X138248917Y-87979516D01*
X138341610Y-87932287D01*
X138451149Y-87852703D01*
X138507213Y-87811971D01*
X138507215Y-87811968D01*
X138507219Y-87811966D01*
X138651966Y-87667219D01*
X138651968Y-87667215D01*
X138651971Y-87667213D01*
X138716567Y-87578302D01*
X138772287Y-87501610D01*
X138865220Y-87319219D01*
X138928477Y-87124534D01*
X138960500Y-86922352D01*
X138960500Y-86717648D01*
X138941875Y-86600054D01*
X138928477Y-86515465D01*
X138871296Y-86339481D01*
X138865220Y-86320781D01*
X138865218Y-86320778D01*
X138865218Y-86320776D01*
X138831503Y-86254607D01*
X138772287Y-86138390D01*
X138740129Y-86094128D01*
X138651971Y-85972786D01*
X138507213Y-85828028D01*
X138341613Y-85707715D01*
X138341612Y-85707714D01*
X138341610Y-85707713D01*
X138270462Y-85671461D01*
X138159223Y-85614781D01*
X137964534Y-85551522D01*
X137789995Y-85523878D01*
X137762352Y-85519500D01*
X137157648Y-85519500D01*
X137133329Y-85523351D01*
X136955465Y-85551522D01*
X136760776Y-85614781D01*
X136578386Y-85707715D01*
X136412786Y-85828028D01*
X136268028Y-85972786D01*
X136147715Y-86138386D01*
X136054781Y-86320776D01*
X135991521Y-86515468D01*
X135990392Y-86520174D01*
X135986551Y-86526862D01*
X135986001Y-86534556D01*
X135969395Y-86556737D01*
X135955598Y-86580765D01*
X135948750Y-86584315D01*
X135944129Y-86590489D01*
X135918170Y-86600170D01*
X135893571Y-86612926D01*
X135885891Y-86612210D01*
X135878665Y-86614906D01*
X135851591Y-86609016D01*
X135824002Y-86606447D01*
X135816208Y-86601319D01*
X135810392Y-86600054D01*
X135782138Y-86578903D01*
X135661590Y-86458355D01*
X135661588Y-86458352D01*
X135542717Y-86339481D01*
X135542716Y-86339480D01*
X135455904Y-86289360D01*
X135455904Y-86289359D01*
X135455900Y-86289358D01*
X135405785Y-86260423D01*
X135253057Y-86219499D01*
X135094943Y-86219499D01*
X135087347Y-86219499D01*
X135087331Y-86219500D01*
X135079602Y-86219500D01*
X135012563Y-86199815D01*
X134969117Y-86151795D01*
X134962284Y-86138385D01*
X134841971Y-85972786D01*
X134697213Y-85828028D01*
X134531613Y-85707715D01*
X134531612Y-85707714D01*
X134531610Y-85707713D01*
X134460462Y-85671461D01*
X134349223Y-85614781D01*
X134154534Y-85551522D01*
X133979995Y-85523878D01*
X133952352Y-85519500D01*
X133347648Y-85519500D01*
X133323329Y-85523351D01*
X133145465Y-85551522D01*
X132950776Y-85614781D01*
X132768387Y-85707714D01*
X132658188Y-85787777D01*
X132592382Y-85811256D01*
X132524328Y-85795430D01*
X132475634Y-85745323D01*
X132462832Y-85706858D01*
X132438817Y-85555231D01*
X132437403Y-85546303D01*
X132437402Y-85546302D01*
X132437402Y-85546299D01*
X132383873Y-85381555D01*
X132305232Y-85227212D01*
X132203414Y-85087072D01*
X132080928Y-84964586D01*
X131940788Y-84862768D01*
X131786445Y-84784127D01*
X131621701Y-84730598D01*
X131621699Y-84730597D01*
X131621698Y-84730597D01*
X131490271Y-84709781D01*
X131450611Y-84703500D01*
X131277389Y-84703500D01*
X131237728Y-84709781D01*
X131106302Y-84730597D01*
X130941552Y-84784128D01*
X130787211Y-84862768D01*
X130707256Y-84920859D01*
X130647072Y-84964586D01*
X130647070Y-84964588D01*
X130647069Y-84964588D01*
X130524588Y-85087069D01*
X130524588Y-85087070D01*
X130524586Y-85087072D01*
X130480859Y-85147256D01*
X130422768Y-85227211D01*
X130344128Y-85381552D01*
X130290597Y-85546302D01*
X130263500Y-85717389D01*
X130263500Y-85890610D01*
X130287255Y-86040598D01*
X130290598Y-86061701D01*
X130304040Y-86103070D01*
X130339108Y-86211000D01*
X130344127Y-86226445D01*
X130349983Y-86237939D01*
X130363500Y-86294235D01*
X130363500Y-88223443D01*
X130343815Y-88290482D01*
X130291011Y-88336237D01*
X130221853Y-88346181D01*
X130174405Y-88328983D01*
X130148726Y-88313144D01*
X130148719Y-88313141D01*
X129982297Y-88257994D01*
X129982290Y-88257993D01*
X129879586Y-88247500D01*
X129429600Y-88247500D01*
X129429600Y-90572499D01*
X129430340Y-90573239D01*
X129494857Y-90592184D01*
X129540612Y-90644988D01*
X129550556Y-90714146D01*
X129521531Y-90777702D01*
X129515499Y-90784180D01*
X128963997Y-91335681D01*
X128902674Y-91369166D01*
X128876316Y-91372000D01*
X128479598Y-91372000D01*
X128479580Y-91372001D01*
X128376803Y-91382500D01*
X128376800Y-91382501D01*
X128210268Y-91437685D01*
X128210263Y-91437687D01*
X128060942Y-91529789D01*
X127936889Y-91653842D01*
X127844787Y-91803163D01*
X127844785Y-91803168D01*
X127834243Y-91834983D01*
X127789601Y-91969703D01*
X127789601Y-91969704D01*
X127789600Y-91969704D01*
X127779100Y-92072483D01*
X127779100Y-92997501D01*
X127779101Y-92997519D01*
X127789600Y-93100296D01*
X127789601Y-93100299D01*
X127844785Y-93266831D01*
X127844787Y-93266836D01*
X127868113Y-93304654D01*
X127936888Y-93416156D01*
X128060944Y-93540212D01*
X128120196Y-93576758D01*
X128166921Y-93628704D01*
X128179100Y-93682297D01*
X128179100Y-94386143D01*
X128191321Y-94447580D01*
X128192101Y-94451500D01*
X128217549Y-94579436D01*
X128239638Y-94632765D01*
X128242768Y-94640323D01*
X128242769Y-94640324D01*
X128292966Y-94761511D01*
X128292971Y-94761520D01*
X128402459Y-94925380D01*
X128402460Y-94925381D01*
X128402461Y-94925382D01*
X128541818Y-95064739D01*
X128541819Y-95064739D01*
X128548886Y-95071806D01*
X128548885Y-95071806D01*
X128548889Y-95071809D01*
X128714553Y-95237473D01*
X128748038Y-95298796D01*
X128743054Y-95368488D01*
X128705233Y-95421255D01*
X128603893Y-95503887D01*
X128488652Y-95645220D01*
X128475302Y-95661593D01*
X128428196Y-95751772D01*
X128381089Y-95841954D01*
X128349568Y-95952118D01*
X128332924Y-96010289D01*
X128325114Y-96037583D01*
X128325113Y-96037586D01*
X128314500Y-96156966D01*
X128314500Y-96740500D01*
X128294815Y-96807539D01*
X128242011Y-96853294D01*
X128190500Y-96864500D01*
X125007942Y-96864500D01*
X124940903Y-96844815D01*
X124896854Y-96795594D01*
X124882030Y-96765704D01*
X124762722Y-96617278D01*
X124762721Y-96617277D01*
X124693514Y-96561647D01*
X124653595Y-96504304D01*
X124651015Y-96434482D01*
X124686594Y-96374349D01*
X124693514Y-96368353D01*
X124702909Y-96360800D01*
X124762722Y-96312722D01*
X124882030Y-96164296D01*
X124895796Y-96136540D01*
X124969628Y-95987671D01*
X124971535Y-95988617D01*
X125007131Y-95940590D01*
X125072478Y-95915860D01*
X125081916Y-95915500D01*
X125748595Y-95915500D01*
X125815634Y-95935185D01*
X125851697Y-95970609D01*
X125878210Y-96010288D01*
X125878213Y-96010292D01*
X125989707Y-96121786D01*
X125989711Y-96121789D01*
X126120814Y-96209390D01*
X126120827Y-96209397D01*
X126266498Y-96269735D01*
X126266503Y-96269737D01*
X126421153Y-96300499D01*
X126421156Y-96300500D01*
X126421158Y-96300500D01*
X126578844Y-96300500D01*
X126578845Y-96300499D01*
X126733497Y-96269737D01*
X126879179Y-96209394D01*
X127010289Y-96121789D01*
X127121789Y-96010289D01*
X127209394Y-95879179D01*
X127269737Y-95733497D01*
X127300500Y-95578842D01*
X127300500Y-95421158D01*
X127300500Y-95421155D01*
X127300499Y-95421153D01*
X127291559Y-95376210D01*
X127269737Y-95266503D01*
X127267043Y-95260000D01*
X127209397Y-95120827D01*
X127209390Y-95120814D01*
X127121789Y-94989711D01*
X127121786Y-94989707D01*
X127010292Y-94878213D01*
X127010288Y-94878210D01*
X126879185Y-94790609D01*
X126879172Y-94790602D01*
X126733501Y-94730264D01*
X126733489Y-94730261D01*
X126578845Y-94699500D01*
X126578842Y-94699500D01*
X126421158Y-94699500D01*
X126421156Y-94699500D01*
X126376809Y-94708321D01*
X126357732Y-94712116D01*
X126333543Y-94714499D01*
X126235943Y-94714499D01*
X126235939Y-94714499D01*
X126228332Y-94714500D01*
X126228331Y-94714499D01*
X126228331Y-94714500D01*
X125081916Y-94714500D01*
X125014877Y-94694815D01*
X124969122Y-94642011D01*
X124967425Y-94637887D01*
X124882032Y-94465707D01*
X124882030Y-94465704D01*
X124762722Y-94317278D01*
X124762721Y-94317277D01*
X124614295Y-94197969D01*
X124559405Y-94170746D01*
X124508092Y-94123324D01*
X124490500Y-94059658D01*
X124490500Y-93696461D01*
X124508960Y-93631366D01*
X124587314Y-93504334D01*
X124642499Y-93337797D01*
X124653000Y-93235009D01*
X124652999Y-91834992D01*
X124642499Y-91732203D01*
X124587314Y-91565666D01*
X124576084Y-91547459D01*
X124508961Y-91438634D01*
X124504265Y-91422076D01*
X124495523Y-91408473D01*
X124490500Y-91373538D01*
X124490500Y-91361026D01*
X124492883Y-91336834D01*
X124493112Y-91335681D01*
X124500500Y-91298541D01*
X124500500Y-91101460D01*
X124462052Y-90908165D01*
X124452850Y-90885951D01*
X124445382Y-90816485D01*
X124476656Y-90754005D01*
X124536745Y-90718352D01*
X124567412Y-90714500D01*
X125500610Y-90714500D01*
X125500611Y-90714500D01*
X125671701Y-90687402D01*
X125836445Y-90633873D01*
X125990788Y-90555232D01*
X126130928Y-90453414D01*
X126253414Y-90330928D01*
X126355232Y-90190788D01*
X126433873Y-90036445D01*
X126487147Y-89872486D01*
X127779601Y-89872486D01*
X127790094Y-89975197D01*
X127845241Y-90141619D01*
X127845243Y-90141624D01*
X127937284Y-90290845D01*
X128061254Y-90414815D01*
X128210475Y-90506856D01*
X128210480Y-90506858D01*
X128376902Y-90562005D01*
X128376909Y-90562006D01*
X128479619Y-90572499D01*
X128929599Y-90572499D01*
X128929600Y-90572498D01*
X128929600Y-89660000D01*
X127779601Y-89660000D01*
X127779601Y-89872486D01*
X126487147Y-89872486D01*
X126487402Y-89871701D01*
X126514500Y-89700611D01*
X126514500Y-89527389D01*
X126487402Y-89356299D01*
X126433873Y-89191555D01*
X126355232Y-89037212D01*
X126290062Y-88947513D01*
X127779600Y-88947513D01*
X127779600Y-89160000D01*
X128929600Y-89160000D01*
X128929600Y-88247500D01*
X128479628Y-88247500D01*
X128479612Y-88247501D01*
X128376902Y-88257994D01*
X128210480Y-88313141D01*
X128210475Y-88313143D01*
X128061254Y-88405184D01*
X127937284Y-88529154D01*
X127845243Y-88678375D01*
X127845241Y-88678380D01*
X127790094Y-88844802D01*
X127790093Y-88844809D01*
X127779600Y-88947513D01*
X126290062Y-88947513D01*
X126253414Y-88897072D01*
X126130928Y-88774586D01*
X125990788Y-88672768D01*
X125959062Y-88656603D01*
X125836447Y-88594128D01*
X125836446Y-88594127D01*
X125836445Y-88594127D01*
X125671701Y-88540598D01*
X125671699Y-88540597D01*
X125671698Y-88540597D01*
X125535071Y-88518958D01*
X125500611Y-88513500D01*
X124527389Y-88513500D01*
X124492929Y-88518958D01*
X124356302Y-88540597D01*
X124191552Y-88594128D01*
X124037211Y-88672768D01*
X123973099Y-88719349D01*
X123897072Y-88774586D01*
X123897070Y-88774588D01*
X123897069Y-88774588D01*
X123774588Y-88897069D01*
X123774588Y-88897070D01*
X123774586Y-88897072D01*
X123738123Y-88947259D01*
X123672768Y-89037211D01*
X123594128Y-89191552D01*
X123540597Y-89356302D01*
X123514490Y-89521133D01*
X123509096Y-89532511D01*
X123508198Y-89545069D01*
X123494414Y-89563481D01*
X123484561Y-89584268D01*
X123473872Y-89590923D01*
X123466327Y-89601003D01*
X123444774Y-89609041D01*
X123425249Y-89621199D01*
X123412659Y-89621019D01*
X123400862Y-89625419D01*
X123378385Y-89620529D01*
X123355386Y-89620201D01*
X123343259Y-89612888D01*
X123332589Y-89610567D01*
X123304341Y-89589421D01*
X123236816Y-89521896D01*
X123203334Y-89460574D01*
X123200500Y-89434217D01*
X123200500Y-87027389D01*
X123513500Y-87027389D01*
X123513500Y-87200611D01*
X123515225Y-87211500D01*
X123532285Y-87319219D01*
X123540598Y-87371701D01*
X123582809Y-87501613D01*
X123594128Y-87536447D01*
X123629754Y-87606368D01*
X123672768Y-87690788D01*
X123774586Y-87830928D01*
X123897072Y-87953414D01*
X124037212Y-88055232D01*
X124191555Y-88133873D01*
X124356299Y-88187402D01*
X124527389Y-88214500D01*
X124527390Y-88214500D01*
X125500610Y-88214500D01*
X125500611Y-88214500D01*
X125671701Y-88187402D01*
X125836445Y-88133873D01*
X125990788Y-88055232D01*
X126130928Y-87953414D01*
X126253414Y-87830928D01*
X126355232Y-87690788D01*
X126433873Y-87536445D01*
X126487402Y-87371701D01*
X126514500Y-87200611D01*
X126514500Y-87027389D01*
X126487402Y-86856299D01*
X126433873Y-86691555D01*
X126355232Y-86537212D01*
X126253414Y-86397072D01*
X126130928Y-86274586D01*
X125990788Y-86172768D01*
X125836445Y-86094127D01*
X125671701Y-86040598D01*
X125671699Y-86040597D01*
X125671698Y-86040597D01*
X125540271Y-86019781D01*
X125500611Y-86013500D01*
X124527389Y-86013500D01*
X124487728Y-86019781D01*
X124356302Y-86040597D01*
X124191552Y-86094128D01*
X124037211Y-86172768D01*
X123972891Y-86219500D01*
X123897072Y-86274586D01*
X123897070Y-86274588D01*
X123897069Y-86274588D01*
X123774588Y-86397069D01*
X123774588Y-86397070D01*
X123774586Y-86397072D01*
X123749089Y-86432166D01*
X123672768Y-86537211D01*
X123594128Y-86691552D01*
X123540597Y-86856302D01*
X123525724Y-86950207D01*
X123513500Y-87027389D01*
X123200500Y-87027389D01*
X123200500Y-85738500D01*
X123220185Y-85671461D01*
X123272989Y-85625706D01*
X123324500Y-85614500D01*
X124123763Y-85614500D01*
X124180059Y-85628016D01*
X124191550Y-85633871D01*
X124191552Y-85633871D01*
X124191555Y-85633873D01*
X124356299Y-85687402D01*
X124527389Y-85714500D01*
X124527390Y-85714500D01*
X125500610Y-85714500D01*
X125500611Y-85714500D01*
X125671701Y-85687402D01*
X125836445Y-85633873D01*
X125990788Y-85555232D01*
X126130928Y-85453414D01*
X126253414Y-85330928D01*
X126355232Y-85190788D01*
X126433873Y-85036445D01*
X126487402Y-84871701D01*
X126514500Y-84700611D01*
X126514500Y-84527389D01*
X126487402Y-84356299D01*
X126433873Y-84191555D01*
X126355232Y-84037212D01*
X126253414Y-83897072D01*
X126130928Y-83774586D01*
X126062427Y-83724817D01*
X126019763Y-83669488D01*
X126013784Y-83599874D01*
X126046390Y-83538079D01*
X126107229Y-83503722D01*
X126135314Y-83500500D01*
X141502683Y-83500500D01*
X141569722Y-83520185D01*
X141615477Y-83572989D01*
X141625421Y-83642147D01*
X141603000Y-83697386D01*
X141598770Y-83703207D01*
X141520128Y-83857552D01*
X141466597Y-84022302D01*
X141439500Y-84193389D01*
X141439500Y-84366610D01*
X141464964Y-84527389D01*
X141466598Y-84537701D01*
X141479594Y-84577697D01*
X141519530Y-84700610D01*
X141520127Y-84702445D01*
X141525983Y-84713939D01*
X141539500Y-84770235D01*
X141539500Y-89261459D01*
X141539500Y-90277459D01*
X141539500Y-91039459D01*
X141539500Y-91547459D01*
X141539500Y-91801459D01*
X141539500Y-92563459D01*
X141539500Y-104698541D01*
X141539500Y-104698543D01*
X141539499Y-104698543D01*
X141577947Y-104891829D01*
X141577950Y-104891839D01*
X141653364Y-105073907D01*
X141653371Y-105073920D01*
X141762860Y-105237781D01*
X141762863Y-105237785D01*
X141902214Y-105377136D01*
X141902218Y-105377139D01*
X142066079Y-105486628D01*
X142066092Y-105486635D01*
X142248160Y-105562049D01*
X142248165Y-105562051D01*
X142248169Y-105562051D01*
X142248170Y-105562052D01*
X142441456Y-105600500D01*
X142441459Y-105600500D01*
X142638543Y-105600500D01*
X142807308Y-105566930D01*
X142876900Y-105573157D01*
X142932077Y-105616020D01*
X142955322Y-105681910D01*
X142955500Y-105688547D01*
X142955500Y-109774397D01*
X142935815Y-109841436D01*
X142887800Y-109884879D01*
X142874389Y-109891712D01*
X142708786Y-110012028D01*
X142564028Y-110156786D01*
X142443715Y-110322386D01*
X142396485Y-110415080D01*
X142348510Y-110465876D01*
X142280689Y-110482671D01*
X142214554Y-110460134D01*
X142175515Y-110415080D01*
X142169950Y-110404159D01*
X142128287Y-110322390D01*
X142120556Y-110311749D01*
X142007971Y-110156786D01*
X141863213Y-110012028D01*
X141697610Y-109891712D01*
X141684200Y-109884879D01*
X141633406Y-109836903D01*
X141616500Y-109774397D01*
X141616500Y-107610361D01*
X141636185Y-107543322D01*
X141652814Y-107522684D01*
X141715464Y-107460035D01*
X141814013Y-107312547D01*
X141881894Y-107148666D01*
X141884824Y-107133940D01*
X141916499Y-106974695D01*
X141916500Y-106974693D01*
X141916500Y-106797306D01*
X141916499Y-106797304D01*
X141881896Y-106623341D01*
X141881893Y-106623332D01*
X141814016Y-106459459D01*
X141814009Y-106459446D01*
X141715464Y-106311965D01*
X141715461Y-106311961D01*
X141590038Y-106186538D01*
X141590034Y-106186535D01*
X141442553Y-106087990D01*
X141442540Y-106087983D01*
X141278667Y-106020106D01*
X141278658Y-106020103D01*
X141104694Y-105985500D01*
X141104691Y-105985500D01*
X140927309Y-105985500D01*
X140927306Y-105985500D01*
X140753341Y-106020103D01*
X140753332Y-106020106D01*
X140589459Y-106087983D01*
X140589446Y-106087990D01*
X140441965Y-106186535D01*
X140441961Y-106186538D01*
X140316538Y-106311961D01*
X140316535Y-106311965D01*
X140217990Y-106459446D01*
X140217983Y-106459459D01*
X140150106Y-106623332D01*
X140150103Y-106623341D01*
X140115500Y-106797304D01*
X140115500Y-106974695D01*
X140150103Y-107148658D01*
X140150106Y-107148667D01*
X140217983Y-107312540D01*
X140217990Y-107312553D01*
X140316534Y-107460033D01*
X140316535Y-107460034D01*
X140316536Y-107460035D01*
X140379182Y-107522681D01*
X140412666Y-107584002D01*
X140415500Y-107610361D01*
X140415500Y-109774397D01*
X140395815Y-109841436D01*
X140347800Y-109884879D01*
X140334389Y-109891712D01*
X140168786Y-110012028D01*
X140024028Y-110156786D01*
X139903715Y-110322386D01*
X139856485Y-110415080D01*
X139808510Y-110465876D01*
X139740689Y-110482671D01*
X139674554Y-110460134D01*
X139635515Y-110415080D01*
X139629950Y-110404159D01*
X139588287Y-110322390D01*
X139580556Y-110311749D01*
X139467971Y-110156786D01*
X139323213Y-110012028D01*
X139157613Y-109891715D01*
X139157612Y-109891714D01*
X139157610Y-109891713D01*
X139100653Y-109862691D01*
X138975223Y-109798781D01*
X138780534Y-109735522D01*
X138605995Y-109707878D01*
X138578352Y-109703500D01*
X138373648Y-109703500D01*
X138349329Y-109707351D01*
X138171465Y-109735522D01*
X137976776Y-109798781D01*
X137794386Y-109891715D01*
X137628786Y-110012028D01*
X137484028Y-110156786D01*
X137363715Y-110322386D01*
X137316485Y-110415080D01*
X137268510Y-110465876D01*
X137200689Y-110482671D01*
X137134554Y-110460134D01*
X137095515Y-110415080D01*
X137089950Y-110404159D01*
X137048287Y-110322390D01*
X137040556Y-110311749D01*
X136927971Y-110156786D01*
X136783213Y-110012028D01*
X136617613Y-109891715D01*
X136617612Y-109891714D01*
X136617610Y-109891713D01*
X136560653Y-109862691D01*
X136435223Y-109798781D01*
X136240534Y-109735522D01*
X136065995Y-109707878D01*
X136038352Y-109703500D01*
X135833648Y-109703500D01*
X135809329Y-109707351D01*
X135631465Y-109735522D01*
X135436776Y-109798781D01*
X135254386Y-109891715D01*
X135088786Y-110012028D01*
X134944028Y-110156786D01*
X134823715Y-110322386D01*
X134776485Y-110415080D01*
X134728510Y-110465876D01*
X134660689Y-110482671D01*
X134594554Y-110460134D01*
X134555515Y-110415080D01*
X134549950Y-110404159D01*
X134508287Y-110322390D01*
X134500556Y-110311749D01*
X134387971Y-110156786D01*
X134243213Y-110012028D01*
X134077613Y-109891715D01*
X134077612Y-109891714D01*
X134077610Y-109891713D01*
X134020653Y-109862691D01*
X133895223Y-109798781D01*
X133700534Y-109735522D01*
X133525995Y-109707878D01*
X133498352Y-109703500D01*
X133293648Y-109703500D01*
X133269329Y-109707351D01*
X133091465Y-109735522D01*
X132896776Y-109798781D01*
X132714386Y-109891715D01*
X132548786Y-110012028D01*
X132404028Y-110156786D01*
X132283715Y-110322386D01*
X132236485Y-110415080D01*
X132188510Y-110465876D01*
X132120689Y-110482671D01*
X132054554Y-110460134D01*
X132015515Y-110415080D01*
X132009950Y-110404159D01*
X131968287Y-110322390D01*
X131960556Y-110311749D01*
X131847971Y-110156786D01*
X131703213Y-110012028D01*
X131537613Y-109891715D01*
X131537612Y-109891714D01*
X131537610Y-109891713D01*
X131480653Y-109862691D01*
X131355223Y-109798781D01*
X131160534Y-109735522D01*
X130985995Y-109707878D01*
X130958352Y-109703500D01*
X130753648Y-109703500D01*
X130729329Y-109707351D01*
X130551465Y-109735522D01*
X130356776Y-109798781D01*
X130174386Y-109891715D01*
X130008786Y-110012028D01*
X129864028Y-110156786D01*
X129743715Y-110322386D01*
X129650781Y-110504776D01*
X129587522Y-110699465D01*
X129555500Y-110901648D01*
X129555500Y-111506351D01*
X129587522Y-111708534D01*
X129650781Y-111903223D01*
X129743715Y-112085613D01*
X129864028Y-112251213D01*
X130008786Y-112395971D01*
X130163749Y-112508556D01*
X130174390Y-112516287D01*
X130290607Y-112575503D01*
X130356776Y-112609218D01*
X130356778Y-112609218D01*
X130356781Y-112609220D01*
X130461137Y-112643127D01*
X130551465Y-112672477D01*
X130652557Y-112688488D01*
X130753648Y-112704500D01*
X130753649Y-112704500D01*
X130958351Y-112704500D01*
X130958352Y-112704500D01*
X131160534Y-112672477D01*
X131355219Y-112609220D01*
X131537610Y-112516287D01*
X131698614Y-112399312D01*
X131703213Y-112395971D01*
X131703215Y-112395968D01*
X131703219Y-112395966D01*
X131847966Y-112251219D01*
X131847968Y-112251215D01*
X131847971Y-112251213D01*
X131968284Y-112085614D01*
X131968285Y-112085613D01*
X131968287Y-112085610D01*
X132015516Y-111992917D01*
X132063489Y-111942123D01*
X132131310Y-111925328D01*
X132197445Y-111947865D01*
X132236485Y-111992919D01*
X132283715Y-112085614D01*
X132404028Y-112251213D01*
X132548786Y-112395971D01*
X132703749Y-112508556D01*
X132714390Y-112516287D01*
X132830607Y-112575503D01*
X132896776Y-112609218D01*
X132896778Y-112609218D01*
X132896781Y-112609220D01*
X133001137Y-112643127D01*
X133091465Y-112672477D01*
X133192557Y-112688488D01*
X133293648Y-112704500D01*
X133293649Y-112704500D01*
X133498351Y-112704500D01*
X133498352Y-112704500D01*
X133700534Y-112672477D01*
X133895219Y-112609220D01*
X134077610Y-112516287D01*
X134238614Y-112399312D01*
X134243213Y-112395971D01*
X134243215Y-112395968D01*
X134243219Y-112395966D01*
X134387966Y-112251219D01*
X134387968Y-112251215D01*
X134387971Y-112251213D01*
X134508284Y-112085614D01*
X134508285Y-112085613D01*
X134508287Y-112085610D01*
X134555516Y-111992917D01*
X134603489Y-111942123D01*
X134671310Y-111925328D01*
X134737445Y-111947865D01*
X134776485Y-111992919D01*
X134823715Y-112085614D01*
X134944028Y-112251213D01*
X135088786Y-112395971D01*
X135243749Y-112508556D01*
X135254390Y-112516287D01*
X135370607Y-112575503D01*
X135436776Y-112609218D01*
X135436778Y-112609218D01*
X135436781Y-112609220D01*
X135541137Y-112643127D01*
X135631465Y-112672477D01*
X135732557Y-112688488D01*
X135833648Y-112704500D01*
X135833649Y-112704500D01*
X136038351Y-112704500D01*
X136038352Y-112704500D01*
X136240534Y-112672477D01*
X136435219Y-112609220D01*
X136617610Y-112516287D01*
X136778614Y-112399312D01*
X136783213Y-112395971D01*
X136783215Y-112395968D01*
X136783219Y-112395966D01*
X136927966Y-112251219D01*
X136927968Y-112251215D01*
X136927971Y-112251213D01*
X137048284Y-112085614D01*
X137048285Y-112085613D01*
X137048287Y-112085610D01*
X137095516Y-111992917D01*
X137143489Y-111942123D01*
X137211310Y-111925328D01*
X137277445Y-111947865D01*
X137316485Y-111992919D01*
X137363715Y-112085614D01*
X137484028Y-112251213D01*
X137628786Y-112395971D01*
X137783749Y-112508556D01*
X137794390Y-112516287D01*
X137910607Y-112575503D01*
X137976776Y-112609218D01*
X137976778Y-112609218D01*
X137976781Y-112609220D01*
X138081137Y-112643127D01*
X138171465Y-112672477D01*
X138272557Y-112688488D01*
X138373648Y-112704500D01*
X138373649Y-112704500D01*
X138578351Y-112704500D01*
X138578352Y-112704500D01*
X138780534Y-112672477D01*
X138975219Y-112609220D01*
X139157610Y-112516287D01*
X139318614Y-112399312D01*
X139323213Y-112395971D01*
X139323215Y-112395968D01*
X139323219Y-112395966D01*
X139467966Y-112251219D01*
X139467968Y-112251215D01*
X139467971Y-112251213D01*
X139588284Y-112085614D01*
X139588285Y-112085613D01*
X139588287Y-112085610D01*
X139635516Y-111992917D01*
X139683489Y-111942123D01*
X139751310Y-111925328D01*
X139817445Y-111947865D01*
X139856485Y-111992919D01*
X139903715Y-112085614D01*
X140024028Y-112251213D01*
X140168786Y-112395971D01*
X140323749Y-112508556D01*
X140334390Y-112516287D01*
X140450607Y-112575503D01*
X140516776Y-112609218D01*
X140516778Y-112609218D01*
X140516781Y-112609220D01*
X140621137Y-112643127D01*
X140711465Y-112672477D01*
X140812557Y-112688488D01*
X140913648Y-112704500D01*
X140913649Y-112704500D01*
X141118351Y-112704500D01*
X141118352Y-112704500D01*
X141320534Y-112672477D01*
X141515219Y-112609220D01*
X141697610Y-112516287D01*
X141858614Y-112399312D01*
X141863213Y-112395971D01*
X141863215Y-112395968D01*
X141863219Y-112395966D01*
X142007966Y-112251219D01*
X142007968Y-112251215D01*
X142007971Y-112251213D01*
X142128284Y-112085614D01*
X142128285Y-112085613D01*
X142128287Y-112085610D01*
X142175516Y-111992917D01*
X142223489Y-111942123D01*
X142291310Y-111925328D01*
X142357445Y-111947865D01*
X142396485Y-111992919D01*
X142443715Y-112085614D01*
X142564028Y-112251213D01*
X142708786Y-112395971D01*
X142863749Y-112508556D01*
X142874390Y-112516287D01*
X142990607Y-112575503D01*
X143056776Y-112609218D01*
X143056778Y-112609218D01*
X143056781Y-112609220D01*
X143161137Y-112643127D01*
X143251465Y-112672477D01*
X143352557Y-112688488D01*
X143453648Y-112704500D01*
X143453649Y-112704500D01*
X143658351Y-112704500D01*
X143658352Y-112704500D01*
X143860534Y-112672477D01*
X144055219Y-112609220D01*
X144237610Y-112516287D01*
X144398614Y-112399312D01*
X144403213Y-112395971D01*
X144403215Y-112395968D01*
X144403219Y-112395966D01*
X144547966Y-112251219D01*
X144547968Y-112251215D01*
X144547971Y-112251213D01*
X144668284Y-112085614D01*
X144668285Y-112085613D01*
X144668287Y-112085610D01*
X144715795Y-111992369D01*
X144763770Y-111941574D01*
X144831591Y-111924779D01*
X144897725Y-111947316D01*
X144936765Y-111992371D01*
X144942608Y-112003839D01*
X145572212Y-111374235D01*
X145583482Y-111416292D01*
X145655890Y-111541708D01*
X145758292Y-111644110D01*
X145883708Y-111716518D01*
X145925764Y-111727787D01*
X145254237Y-112399312D01*
X145414650Y-112515859D01*
X145596968Y-112608755D01*
X145791582Y-112671990D01*
X145993683Y-112704000D01*
X146198317Y-112704000D01*
X146400417Y-112671990D01*
X146595031Y-112608755D01*
X146777349Y-112515859D01*
X146937760Y-112399312D01*
X146937761Y-112399312D01*
X146266235Y-111727787D01*
X146308292Y-111716518D01*
X146433708Y-111644110D01*
X146536110Y-111541708D01*
X146608518Y-111416292D01*
X146619787Y-111374235D01*
X147249390Y-112003838D01*
X147255234Y-111992370D01*
X147303207Y-111941574D01*
X147371028Y-111924778D01*
X147437163Y-111947315D01*
X147476204Y-111992369D01*
X147523715Y-112085613D01*
X147644028Y-112251213D01*
X147788786Y-112395971D01*
X147943749Y-112508556D01*
X147954390Y-112516287D01*
X148070607Y-112575503D01*
X148136776Y-112609218D01*
X148136778Y-112609218D01*
X148136781Y-112609220D01*
X148241137Y-112643127D01*
X148331465Y-112672477D01*
X148432557Y-112688488D01*
X148533648Y-112704500D01*
X148533649Y-112704500D01*
X148738351Y-112704500D01*
X148738352Y-112704500D01*
X148940534Y-112672477D01*
X149135219Y-112609220D01*
X149317610Y-112516287D01*
X149478614Y-112399312D01*
X149483213Y-112395971D01*
X149483215Y-112395968D01*
X149483219Y-112395966D01*
X149627966Y-112251219D01*
X149627968Y-112251215D01*
X149627971Y-112251213D01*
X149680732Y-112178590D01*
X149748287Y-112085610D01*
X149841220Y-111903219D01*
X149904477Y-111708534D01*
X149936500Y-111506352D01*
X149936500Y-110901648D01*
X149904477Y-110699466D01*
X149841220Y-110504781D01*
X149841218Y-110504778D01*
X149841218Y-110504776D01*
X149789950Y-110404159D01*
X149748287Y-110322390D01*
X149740556Y-110311749D01*
X149627971Y-110156786D01*
X149483213Y-110012028D01*
X149317613Y-109891715D01*
X149317612Y-109891714D01*
X149317610Y-109891713D01*
X149260653Y-109862691D01*
X149135223Y-109798781D01*
X148940534Y-109735522D01*
X148765995Y-109707878D01*
X148738352Y-109703500D01*
X148533648Y-109703500D01*
X148509329Y-109707351D01*
X148331465Y-109735522D01*
X148136776Y-109798781D01*
X147954386Y-109891715D01*
X147788786Y-110012028D01*
X147644028Y-110156786D01*
X147523713Y-110322388D01*
X147476203Y-110415630D01*
X147428228Y-110466426D01*
X147360407Y-110483220D01*
X147294272Y-110460682D01*
X147255234Y-110415628D01*
X147249390Y-110404160D01*
X146619786Y-111033763D01*
X146608518Y-110991708D01*
X146536110Y-110866292D01*
X146433708Y-110763890D01*
X146308292Y-110691482D01*
X146266235Y-110680212D01*
X146937761Y-110008686D01*
X146937760Y-110008684D01*
X146777352Y-109892142D01*
X146595031Y-109799244D01*
X146400417Y-109736009D01*
X146198317Y-109704000D01*
X145993683Y-109704000D01*
X145791582Y-109736009D01*
X145596968Y-109799244D01*
X145414649Y-109892141D01*
X145414640Y-109892147D01*
X145254238Y-110008685D01*
X145254237Y-110008686D01*
X145925764Y-110680212D01*
X145883708Y-110691482D01*
X145758292Y-110763890D01*
X145655890Y-110866292D01*
X145583482Y-110991708D01*
X145572212Y-111033764D01*
X144942607Y-110404159D01*
X144942606Y-110404160D01*
X144936764Y-110415627D01*
X144888790Y-110466423D01*
X144820969Y-110483219D01*
X144754834Y-110460682D01*
X144715794Y-110415628D01*
X144668287Y-110322390D01*
X144668285Y-110322387D01*
X144668284Y-110322385D01*
X144547971Y-110156786D01*
X144403213Y-110012028D01*
X144237610Y-109891712D01*
X144224200Y-109884879D01*
X144173406Y-109836903D01*
X144156500Y-109774397D01*
X144156500Y-94575500D01*
X144176185Y-94508461D01*
X144228989Y-94462706D01*
X144273717Y-94452975D01*
X144273631Y-94452097D01*
X144279685Y-94451500D01*
X144279691Y-94451500D01*
X144337682Y-94439964D01*
X144453658Y-94416896D01*
X144453661Y-94416894D01*
X144453666Y-94416894D01*
X144593535Y-94358958D01*
X144617540Y-94349016D01*
X144617540Y-94349015D01*
X144617547Y-94349013D01*
X144765035Y-94250464D01*
X144890464Y-94125035D01*
X144989013Y-93977547D01*
X145056894Y-93813666D01*
X145091500Y-93639691D01*
X145091500Y-93462309D01*
X145091500Y-93462306D01*
X145091499Y-93462304D01*
X145056896Y-93288341D01*
X145056893Y-93288332D01*
X145047988Y-93266834D01*
X144993132Y-93134397D01*
X144989016Y-93124459D01*
X144989009Y-93124446D01*
X144890464Y-92976965D01*
X144890461Y-92976961D01*
X144765038Y-92851538D01*
X144765034Y-92851535D01*
X144617553Y-92752990D01*
X144617540Y-92752983D01*
X144453667Y-92685106D01*
X144453658Y-92685103D01*
X144279694Y-92650500D01*
X144279691Y-92650500D01*
X144102309Y-92650500D01*
X144102306Y-92650500D01*
X143928341Y-92685103D01*
X143928332Y-92685106D01*
X143764459Y-92752983D01*
X143764448Y-92752989D01*
X143733390Y-92773742D01*
X143666713Y-92794619D01*
X143599333Y-92776134D01*
X143552643Y-92724155D01*
X143540500Y-92670639D01*
X143540500Y-86717648D01*
X147389500Y-86717648D01*
X147389500Y-86922351D01*
X147421522Y-87124534D01*
X147484781Y-87319223D01*
X147577715Y-87501613D01*
X147698028Y-87667213D01*
X147842786Y-87811971D01*
X148008385Y-87932284D01*
X148008387Y-87932285D01*
X148008390Y-87932287D01*
X148064105Y-87960675D01*
X148101628Y-87979794D01*
X148152424Y-88027769D01*
X148169219Y-88095590D01*
X148146682Y-88161724D01*
X148101627Y-88200764D01*
X148090160Y-88206606D01*
X148090159Y-88206607D01*
X148719764Y-88836212D01*
X148677708Y-88847482D01*
X148552292Y-88919890D01*
X148449890Y-89022292D01*
X148377482Y-89147708D01*
X148366212Y-89189763D01*
X147694686Y-88518237D01*
X147694685Y-88518238D01*
X147578147Y-88678640D01*
X147578141Y-88678649D01*
X147485244Y-88860968D01*
X147422009Y-89055582D01*
X147390000Y-89257682D01*
X147390000Y-89462317D01*
X147422009Y-89664417D01*
X147485244Y-89859031D01*
X147578142Y-90041352D01*
X147694684Y-90201760D01*
X147694686Y-90201761D01*
X148366212Y-89530235D01*
X148377482Y-89572292D01*
X148449890Y-89697708D01*
X148552292Y-89800110D01*
X148677708Y-89872518D01*
X148719764Y-89883787D01*
X148090160Y-90513390D01*
X148101628Y-90519234D01*
X148152424Y-90567207D01*
X148169220Y-90635028D01*
X148146683Y-90701163D01*
X148101630Y-90740203D01*
X148008388Y-90787713D01*
X147842786Y-90908028D01*
X147698028Y-91052786D01*
X147577715Y-91218386D01*
X147484781Y-91400776D01*
X147421522Y-91595465D01*
X147389500Y-91797648D01*
X147389500Y-92002351D01*
X147421522Y-92204534D01*
X147484781Y-92399223D01*
X147535665Y-92499086D01*
X147561311Y-92549420D01*
X147577715Y-92581613D01*
X147698028Y-92747213D01*
X147842786Y-92891971D01*
X147959773Y-92976965D01*
X148008390Y-93012287D01*
X148089059Y-93053390D01*
X148101080Y-93059515D01*
X148151876Y-93107490D01*
X148168671Y-93175311D01*
X148146134Y-93241446D01*
X148101080Y-93280485D01*
X148008386Y-93327715D01*
X147842786Y-93448028D01*
X147698028Y-93592786D01*
X147577715Y-93758386D01*
X147484781Y-93940776D01*
X147421522Y-94135465D01*
X147392726Y-94317278D01*
X147389500Y-94337648D01*
X147389500Y-94542352D01*
X147389913Y-94544957D01*
X147421522Y-94744534D01*
X147484781Y-94939223D01*
X147542590Y-95052677D01*
X147577314Y-95120827D01*
X147577715Y-95121613D01*
X147698028Y-95287213D01*
X147842786Y-95431971D01*
X147967814Y-95522807D01*
X148008390Y-95552287D01*
X148064103Y-95580674D01*
X148101080Y-95599515D01*
X148151876Y-95647490D01*
X148168671Y-95715311D01*
X148146134Y-95781446D01*
X148101080Y-95820485D01*
X148008386Y-95867715D01*
X147842786Y-95988028D01*
X147698028Y-96132786D01*
X147577715Y-96298386D01*
X147484781Y-96480776D01*
X147421522Y-96675465D01*
X147389500Y-96877648D01*
X147389500Y-97082351D01*
X147421522Y-97284534D01*
X147484781Y-97479223D01*
X147577715Y-97661613D01*
X147698028Y-97827213D01*
X147842786Y-97971971D01*
X147997749Y-98084556D01*
X148008390Y-98092287D01*
X148064105Y-98120675D01*
X148101080Y-98139515D01*
X148151876Y-98187490D01*
X148168671Y-98255311D01*
X148146134Y-98321446D01*
X148101080Y-98360485D01*
X148008386Y-98407715D01*
X147842786Y-98528028D01*
X147698028Y-98672786D01*
X147577715Y-98838386D01*
X147484781Y-99020776D01*
X147421522Y-99215465D01*
X147389500Y-99417648D01*
X147389500Y-99622351D01*
X147421522Y-99824534D01*
X147484781Y-100019223D01*
X147577715Y-100201613D01*
X147698028Y-100367213D01*
X147842786Y-100511971D01*
X147997749Y-100624556D01*
X148008390Y-100632287D01*
X148064105Y-100660675D01*
X148101080Y-100679515D01*
X148151876Y-100727490D01*
X148168671Y-100795311D01*
X148146134Y-100861446D01*
X148101080Y-100900485D01*
X148008386Y-100947715D01*
X147842786Y-101068028D01*
X147698028Y-101212786D01*
X147577715Y-101378386D01*
X147484781Y-101560776D01*
X147421522Y-101755465D01*
X147389500Y-101957648D01*
X147389500Y-102162351D01*
X147421522Y-102364534D01*
X147484781Y-102559223D01*
X147577715Y-102741613D01*
X147698028Y-102907213D01*
X147842786Y-103051971D01*
X147997749Y-103164556D01*
X148008390Y-103172287D01*
X148064105Y-103200675D01*
X148101080Y-103219515D01*
X148151876Y-103267490D01*
X148168671Y-103335311D01*
X148146134Y-103401446D01*
X148101080Y-103440485D01*
X148008386Y-103487715D01*
X147842786Y-103608028D01*
X147698028Y-103752786D01*
X147577715Y-103918386D01*
X147484781Y-104100776D01*
X147421522Y-104295465D01*
X147389500Y-104497648D01*
X147389500Y-104702351D01*
X147421522Y-104904534D01*
X147484781Y-105099223D01*
X147526220Y-105180550D01*
X147563796Y-105254297D01*
X147577715Y-105281613D01*
X147698028Y-105447213D01*
X147842786Y-105591971D01*
X147975714Y-105688547D01*
X148008390Y-105712287D01*
X148123503Y-105770940D01*
X148190776Y-105805218D01*
X148190778Y-105805218D01*
X148190781Y-105805220D01*
X148295137Y-105839127D01*
X148385465Y-105868477D01*
X148431707Y-105875801D01*
X148587648Y-105900500D01*
X148587649Y-105900500D01*
X149192351Y-105900500D01*
X149192352Y-105900500D01*
X149394534Y-105868477D01*
X149589219Y-105805220D01*
X149771610Y-105712287D01*
X149912305Y-105610067D01*
X149912307Y-105610066D01*
X149937212Y-105591971D01*
X149937210Y-105591971D01*
X149937219Y-105591966D01*
X150081966Y-105447219D01*
X150081968Y-105447215D01*
X150081971Y-105447213D01*
X150154240Y-105347741D01*
X150202287Y-105281610D01*
X150295220Y-105099219D01*
X150358477Y-104904534D01*
X150390500Y-104702352D01*
X150390500Y-104497648D01*
X150362186Y-104318881D01*
X150358477Y-104295465D01*
X150309200Y-104143807D01*
X150295220Y-104100781D01*
X150295218Y-104100778D01*
X150295218Y-104100776D01*
X150247384Y-104006898D01*
X150202287Y-103918390D01*
X150133140Y-103823216D01*
X150081971Y-103752786D01*
X149937213Y-103608028D01*
X149771614Y-103487715D01*
X149746777Y-103475060D01*
X149678917Y-103440483D01*
X149628123Y-103392511D01*
X149611328Y-103324690D01*
X149633865Y-103258555D01*
X149678917Y-103219516D01*
X149771610Y-103172287D01*
X149902932Y-103076877D01*
X149937213Y-103051971D01*
X149937215Y-103051968D01*
X149937219Y-103051966D01*
X150081966Y-102907219D01*
X150081968Y-102907215D01*
X150081971Y-102907213D01*
X150164181Y-102794059D01*
X150202287Y-102741610D01*
X150295220Y-102559219D01*
X150358477Y-102364534D01*
X150390500Y-102162352D01*
X150390500Y-101957648D01*
X150358477Y-101755466D01*
X150295220Y-101560781D01*
X150295218Y-101560778D01*
X150295218Y-101560776D01*
X150261503Y-101494607D01*
X150202287Y-101378390D01*
X150194556Y-101367749D01*
X150081971Y-101212786D01*
X149937213Y-101068028D01*
X149771614Y-100947715D01*
X149765006Y-100944348D01*
X149678917Y-100900483D01*
X149628123Y-100852511D01*
X149611328Y-100784690D01*
X149633865Y-100718555D01*
X149678917Y-100679516D01*
X149771610Y-100632287D01*
X149889329Y-100546760D01*
X149937213Y-100511971D01*
X149937215Y-100511968D01*
X149937219Y-100511966D01*
X150081966Y-100367219D01*
X150081968Y-100367215D01*
X150081971Y-100367213D01*
X150186969Y-100222693D01*
X150202287Y-100201610D01*
X150295220Y-100019219D01*
X150358477Y-99824534D01*
X150390500Y-99622352D01*
X150390500Y-99417648D01*
X150358477Y-99215466D01*
X150350987Y-99192415D01*
X150312199Y-99073037D01*
X150295220Y-99020781D01*
X150295218Y-99020778D01*
X150295218Y-99020776D01*
X150242663Y-98917632D01*
X150202287Y-98838390D01*
X150177755Y-98804624D01*
X150081971Y-98672786D01*
X149937213Y-98528028D01*
X149771614Y-98407715D01*
X149727396Y-98385185D01*
X149678917Y-98360483D01*
X149628123Y-98312511D01*
X149611328Y-98244690D01*
X149633865Y-98178555D01*
X149678917Y-98139516D01*
X149771610Y-98092287D01*
X149870614Y-98020357D01*
X149937213Y-97971971D01*
X149937215Y-97971968D01*
X149937219Y-97971966D01*
X150081966Y-97827219D01*
X150081968Y-97827215D01*
X150081971Y-97827213D01*
X150134732Y-97754590D01*
X150202287Y-97661610D01*
X150295220Y-97479219D01*
X150358477Y-97284534D01*
X150390500Y-97082352D01*
X150390500Y-96877648D01*
X150374755Y-96778242D01*
X150358477Y-96675465D01*
X150295218Y-96480776D01*
X150237935Y-96368353D01*
X150202287Y-96298390D01*
X150165391Y-96247606D01*
X150081971Y-96132786D01*
X149937213Y-95988028D01*
X149771614Y-95867715D01*
X149721049Y-95841951D01*
X149678917Y-95820483D01*
X149628123Y-95772511D01*
X149611328Y-95704690D01*
X149633865Y-95638555D01*
X149678917Y-95599516D01*
X149771610Y-95552287D01*
X149838222Y-95503891D01*
X149937213Y-95431971D01*
X149937215Y-95431968D01*
X149937219Y-95431966D01*
X150081966Y-95287219D01*
X150081968Y-95287215D01*
X150081971Y-95287213D01*
X150134732Y-95214590D01*
X150202287Y-95121610D01*
X150295220Y-94939219D01*
X150358477Y-94744534D01*
X150390500Y-94542352D01*
X150390500Y-94337648D01*
X150387274Y-94317278D01*
X150358477Y-94135465D01*
X150320926Y-94019896D01*
X150295220Y-93940781D01*
X150295218Y-93940778D01*
X150295218Y-93940776D01*
X150258827Y-93869356D01*
X150202287Y-93758390D01*
X150194556Y-93747749D01*
X150081971Y-93592786D01*
X149937213Y-93448028D01*
X149771614Y-93327715D01*
X149726354Y-93304654D01*
X149678917Y-93280483D01*
X149628123Y-93232511D01*
X149611328Y-93164690D01*
X149633865Y-93098555D01*
X149678917Y-93059516D01*
X149771610Y-93012287D01*
X149820227Y-92976965D01*
X149937213Y-92891971D01*
X149937215Y-92891968D01*
X149937219Y-92891966D01*
X150081966Y-92747219D01*
X150081968Y-92747215D01*
X150081971Y-92747213D01*
X150152236Y-92650500D01*
X150202287Y-92581610D01*
X150295220Y-92399219D01*
X150358477Y-92204534D01*
X150390500Y-92002352D01*
X150390500Y-91797648D01*
X150366339Y-91645104D01*
X150358477Y-91595465D01*
X150300377Y-91416654D01*
X150295220Y-91400781D01*
X150295218Y-91400778D01*
X150295218Y-91400776D01*
X150261503Y-91334607D01*
X150202287Y-91218390D01*
X150157693Y-91157011D01*
X150081971Y-91052786D01*
X149937213Y-90908028D01*
X149771613Y-90787715D01*
X149771612Y-90787714D01*
X149771610Y-90787713D01*
X149711848Y-90757262D01*
X149678369Y-90740204D01*
X149627573Y-90692229D01*
X149610778Y-90624408D01*
X149633316Y-90558273D01*
X149678370Y-90519234D01*
X149689838Y-90513390D01*
X149060235Y-89883787D01*
X149102292Y-89872518D01*
X149227708Y-89800110D01*
X149330110Y-89697708D01*
X149402518Y-89572292D01*
X149413787Y-89530236D01*
X150085312Y-90201761D01*
X150085312Y-90201760D01*
X150201859Y-90041349D01*
X150294755Y-89859031D01*
X150357990Y-89664417D01*
X150390000Y-89462317D01*
X150390000Y-89257682D01*
X150357990Y-89055582D01*
X150294755Y-88860968D01*
X150201859Y-88678650D01*
X150085312Y-88518238D01*
X150085312Y-88518237D01*
X149413786Y-89189763D01*
X149402518Y-89147708D01*
X149330110Y-89022292D01*
X149227708Y-88919890D01*
X149102292Y-88847482D01*
X149060235Y-88836212D01*
X149689839Y-88206608D01*
X149678371Y-88200765D01*
X149627575Y-88152792D01*
X149610779Y-88084971D01*
X149633316Y-88018836D01*
X149678370Y-87979795D01*
X149678920Y-87979515D01*
X149771610Y-87932287D01*
X149881149Y-87852703D01*
X149937213Y-87811971D01*
X149937215Y-87811968D01*
X149937219Y-87811966D01*
X150081966Y-87667219D01*
X150081968Y-87667215D01*
X150081971Y-87667213D01*
X150146567Y-87578302D01*
X150202287Y-87501610D01*
X150295220Y-87319219D01*
X150358477Y-87124534D01*
X150390500Y-86922352D01*
X150390500Y-86717648D01*
X151199500Y-86717648D01*
X151199500Y-86922351D01*
X151231522Y-87124534D01*
X151294781Y-87319223D01*
X151387715Y-87501613D01*
X151508028Y-87667213D01*
X151652786Y-87811971D01*
X151797981Y-87917459D01*
X151818390Y-87932287D01*
X151874105Y-87960675D01*
X151911080Y-87979515D01*
X151961876Y-88027490D01*
X151978671Y-88095311D01*
X151956134Y-88161446D01*
X151911080Y-88200485D01*
X151818386Y-88247715D01*
X151652786Y-88368028D01*
X151508028Y-88512786D01*
X151387715Y-88678386D01*
X151294781Y-88860776D01*
X151231522Y-89055465D01*
X151199500Y-89257648D01*
X151199500Y-89462351D01*
X151231522Y-89664534D01*
X151294781Y-89859223D01*
X151353874Y-89975197D01*
X151385161Y-90036602D01*
X151387715Y-90041613D01*
X151508028Y-90207213D01*
X151652786Y-90351971D01*
X151818385Y-90472284D01*
X151818387Y-90472285D01*
X151818390Y-90472287D01*
X151910529Y-90519234D01*
X151911628Y-90519794D01*
X151962424Y-90567769D01*
X151979219Y-90635590D01*
X151956682Y-90701724D01*
X151911627Y-90740764D01*
X151900160Y-90746606D01*
X151900159Y-90746607D01*
X152529764Y-91376212D01*
X152487708Y-91387482D01*
X152362292Y-91459890D01*
X152259890Y-91562292D01*
X152187482Y-91687708D01*
X152176212Y-91729763D01*
X151504686Y-91058237D01*
X151504685Y-91058238D01*
X151388147Y-91218640D01*
X151388141Y-91218649D01*
X151295244Y-91400968D01*
X151232009Y-91595582D01*
X151200000Y-91797682D01*
X151200000Y-92002317D01*
X151232009Y-92204417D01*
X151295244Y-92399031D01*
X151388142Y-92581352D01*
X151504684Y-92741760D01*
X151504686Y-92741761D01*
X152176212Y-92070235D01*
X152187482Y-92112292D01*
X152259890Y-92237708D01*
X152362292Y-92340110D01*
X152487708Y-92412518D01*
X152529764Y-92423787D01*
X151900160Y-93053390D01*
X151911628Y-93059234D01*
X151962424Y-93107207D01*
X151979220Y-93175028D01*
X151956683Y-93241163D01*
X151911630Y-93280203D01*
X151818388Y-93327713D01*
X151652786Y-93448028D01*
X151508028Y-93592786D01*
X151387715Y-93758386D01*
X151294781Y-93940776D01*
X151231522Y-94135465D01*
X151202726Y-94317278D01*
X151199500Y-94337648D01*
X151199500Y-94542352D01*
X151199913Y-94544957D01*
X151231522Y-94744534D01*
X151294781Y-94939223D01*
X151352590Y-95052677D01*
X151387314Y-95120827D01*
X151387715Y-95121613D01*
X151508028Y-95287213D01*
X151652786Y-95431971D01*
X151777814Y-95522807D01*
X151818390Y-95552287D01*
X151874103Y-95580674D01*
X151911080Y-95599515D01*
X151961876Y-95647490D01*
X151978671Y-95715311D01*
X151956134Y-95781446D01*
X151911080Y-95820485D01*
X151818386Y-95867715D01*
X151652786Y-95988028D01*
X151508028Y-96132786D01*
X151387715Y-96298386D01*
X151294781Y-96480776D01*
X151231522Y-96675465D01*
X151199500Y-96877648D01*
X151199500Y-97082351D01*
X151231522Y-97284534D01*
X151294781Y-97479223D01*
X151387715Y-97661613D01*
X151508028Y-97827213D01*
X151652786Y-97971971D01*
X151807749Y-98084556D01*
X151818390Y-98092287D01*
X151874105Y-98120675D01*
X151911080Y-98139515D01*
X151961876Y-98187490D01*
X151978671Y-98255311D01*
X151956134Y-98321446D01*
X151911080Y-98360485D01*
X151818386Y-98407715D01*
X151652786Y-98528028D01*
X151508028Y-98672786D01*
X151387715Y-98838386D01*
X151294781Y-99020776D01*
X151231522Y-99215465D01*
X151199500Y-99417648D01*
X151199500Y-99622351D01*
X151231522Y-99824534D01*
X151294781Y-100019223D01*
X151387715Y-100201613D01*
X151508028Y-100367213D01*
X151652786Y-100511971D01*
X151807749Y-100624556D01*
X151818390Y-100632287D01*
X151874105Y-100660675D01*
X151911080Y-100679515D01*
X151961876Y-100727490D01*
X151978671Y-100795311D01*
X151956134Y-100861446D01*
X151911080Y-100900485D01*
X151818386Y-100947715D01*
X151652786Y-101068028D01*
X151508028Y-101212786D01*
X151387715Y-101378386D01*
X151294781Y-101560776D01*
X151231522Y-101755465D01*
X151199500Y-101957648D01*
X151199500Y-102162351D01*
X151231522Y-102364534D01*
X151294781Y-102559223D01*
X151387715Y-102741613D01*
X151508028Y-102907213D01*
X151652786Y-103051971D01*
X151818385Y-103172284D01*
X151818387Y-103172285D01*
X151818390Y-103172287D01*
X151874105Y-103200675D01*
X151911628Y-103219794D01*
X151962424Y-103267769D01*
X151979219Y-103335590D01*
X151956682Y-103401724D01*
X151911627Y-103440764D01*
X151900160Y-103446606D01*
X151900159Y-103446607D01*
X152529764Y-104076212D01*
X152487708Y-104087482D01*
X152362292Y-104159890D01*
X152259890Y-104262292D01*
X152187482Y-104387708D01*
X152176212Y-104429763D01*
X151504686Y-103758237D01*
X151504685Y-103758238D01*
X151388147Y-103918640D01*
X151388141Y-103918649D01*
X151295244Y-104100968D01*
X151232009Y-104295582D01*
X151200000Y-104497682D01*
X151200000Y-104702317D01*
X151232009Y-104904417D01*
X151295244Y-105099031D01*
X151388142Y-105281352D01*
X151504684Y-105441760D01*
X151504686Y-105441761D01*
X152176212Y-104770235D01*
X152187482Y-104812292D01*
X152259890Y-104937708D01*
X152362292Y-105040110D01*
X152487708Y-105112518D01*
X152529764Y-105123787D01*
X151900159Y-105753391D01*
X152000965Y-105804753D01*
X152000972Y-105804756D01*
X152195582Y-105867990D01*
X152397683Y-105900000D01*
X153002317Y-105900000D01*
X153204417Y-105867990D01*
X153399031Y-105804755D01*
X153499838Y-105753390D01*
X152870235Y-105123787D01*
X152912292Y-105112518D01*
X153037708Y-105040110D01*
X153140110Y-104937708D01*
X153212518Y-104812292D01*
X153223787Y-104770235D01*
X153895312Y-105441761D01*
X153895312Y-105441760D01*
X154011859Y-105281349D01*
X154104755Y-105099031D01*
X154167990Y-104904417D01*
X154200000Y-104702317D01*
X154200000Y-104497682D01*
X154167990Y-104295582D01*
X154104755Y-104100968D01*
X154011859Y-103918650D01*
X153895312Y-103758238D01*
X153895312Y-103758237D01*
X153223786Y-104429763D01*
X153212518Y-104387708D01*
X153140110Y-104262292D01*
X153037708Y-104159890D01*
X152912292Y-104087482D01*
X152870235Y-104076212D01*
X153499839Y-103446608D01*
X153488371Y-103440765D01*
X153437575Y-103392792D01*
X153420779Y-103324971D01*
X153443316Y-103258836D01*
X153488370Y-103219795D01*
X153488920Y-103219515D01*
X153581610Y-103172287D01*
X153712932Y-103076877D01*
X153747213Y-103051971D01*
X153747215Y-103051968D01*
X153747219Y-103051966D01*
X153891966Y-102907219D01*
X153891968Y-102907215D01*
X153891971Y-102907213D01*
X153974181Y-102794059D01*
X154012287Y-102741610D01*
X154105220Y-102559219D01*
X154168477Y-102364534D01*
X154200500Y-102162352D01*
X154200500Y-101957648D01*
X154168477Y-101755466D01*
X154105220Y-101560781D01*
X154105218Y-101560778D01*
X154105218Y-101560776D01*
X154071503Y-101494607D01*
X154012287Y-101378390D01*
X154004556Y-101367749D01*
X153891971Y-101212786D01*
X153747213Y-101068028D01*
X153581614Y-100947715D01*
X153575006Y-100944348D01*
X153488917Y-100900483D01*
X153438123Y-100852511D01*
X153421328Y-100784690D01*
X153443865Y-100718555D01*
X153488917Y-100679516D01*
X153581610Y-100632287D01*
X153699329Y-100546760D01*
X153747213Y-100511971D01*
X153747215Y-100511968D01*
X153747219Y-100511966D01*
X153891966Y-100367219D01*
X153891968Y-100367215D01*
X153891971Y-100367213D01*
X153996969Y-100222693D01*
X154012287Y-100201610D01*
X154105220Y-100019219D01*
X154168477Y-99824534D01*
X154200500Y-99622352D01*
X154200500Y-99425513D01*
X154801500Y-99425513D01*
X154801500Y-99614486D01*
X154831059Y-99801118D01*
X154889454Y-99980836D01*
X154932793Y-100065892D01*
X154975240Y-100149199D01*
X155086310Y-100302073D01*
X155219927Y-100435690D01*
X155372801Y-100546760D01*
X155399487Y-100560357D01*
X155541163Y-100632545D01*
X155541165Y-100632545D01*
X155541168Y-100632547D01*
X155627737Y-100660675D01*
X155720881Y-100690940D01*
X155907514Y-100720500D01*
X155907519Y-100720500D01*
X156096486Y-100720500D01*
X156283118Y-100690940D01*
X156318280Y-100679515D01*
X156462832Y-100632547D01*
X156631199Y-100546760D01*
X156784073Y-100435690D01*
X156917690Y-100302073D01*
X157028760Y-100149199D01*
X157114547Y-99980832D01*
X157172940Y-99801118D01*
X157186498Y-99715516D01*
X157202500Y-99614486D01*
X157202500Y-99425513D01*
X157172940Y-99238881D01*
X157114545Y-99059163D01*
X157069290Y-98970347D01*
X157028760Y-98890801D01*
X156917690Y-98737927D01*
X156784073Y-98604310D01*
X156784072Y-98604309D01*
X156735214Y-98568811D01*
X156692549Y-98513480D01*
X156686571Y-98443867D01*
X156719178Y-98382072D01*
X156720346Y-98380887D01*
X157630506Y-97470728D01*
X157630511Y-97470724D01*
X157640714Y-97460520D01*
X157640716Y-97460520D01*
X157752520Y-97348716D01*
X157804026Y-97259505D01*
X157831577Y-97211785D01*
X157872500Y-97059058D01*
X157872500Y-97051835D01*
X157892185Y-96984796D01*
X157940206Y-96941350D01*
X157963828Y-96929314D01*
X158006022Y-96907815D01*
X158184365Y-96778242D01*
X158234924Y-96727682D01*
X158296245Y-96694198D01*
X158365936Y-96699182D01*
X158421870Y-96741053D01*
X158438786Y-96772030D01*
X158468646Y-96852087D01*
X158468649Y-96852093D01*
X158554809Y-96967187D01*
X158554812Y-96967190D01*
X158669906Y-97053350D01*
X158669913Y-97053354D01*
X158804620Y-97103596D01*
X158804627Y-97103598D01*
X158864155Y-97109999D01*
X158864172Y-97110000D01*
X159562000Y-97110000D01*
X159562000Y-96085277D01*
X159638306Y-96129333D01*
X159752756Y-96160000D01*
X159871244Y-96160000D01*
X159985694Y-96129333D01*
X160062000Y-96085277D01*
X160062000Y-97110000D01*
X160759828Y-97110000D01*
X160759844Y-97109999D01*
X160819372Y-97103598D01*
X160819379Y-97103596D01*
X160954086Y-97053354D01*
X160954093Y-97053350D01*
X161069187Y-96967190D01*
X161069190Y-96967187D01*
X161155350Y-96852093D01*
X161155354Y-96852086D01*
X161205596Y-96717379D01*
X161205598Y-96717372D01*
X161211999Y-96657844D01*
X161212000Y-96657827D01*
X161212000Y-95960000D01*
X160187278Y-95960000D01*
X160231333Y-95883694D01*
X160262000Y-95769244D01*
X160262000Y-95650756D01*
X160231333Y-95536306D01*
X160187278Y-95460000D01*
X161212000Y-95460000D01*
X161212000Y-94762172D01*
X161211999Y-94762155D01*
X161205598Y-94702627D01*
X161205596Y-94702620D01*
X161155354Y-94567913D01*
X161155350Y-94567906D01*
X161069190Y-94452812D01*
X161069187Y-94452809D01*
X160954093Y-94366649D01*
X160954086Y-94366645D01*
X160819379Y-94316403D01*
X160819372Y-94316401D01*
X160759844Y-94310000D01*
X160062000Y-94310000D01*
X160062000Y-95334722D01*
X159985694Y-95290667D01*
X159871244Y-95260000D01*
X159752756Y-95260000D01*
X159638306Y-95290667D01*
X159562000Y-95334722D01*
X159562000Y-94310000D01*
X158864155Y-94310000D01*
X158804627Y-94316401D01*
X158804620Y-94316403D01*
X158669913Y-94366645D01*
X158669906Y-94366649D01*
X158554812Y-94452809D01*
X158554809Y-94452812D01*
X158468649Y-94567906D01*
X158468643Y-94567918D01*
X158438785Y-94647969D01*
X158396914Y-94703903D01*
X158331449Y-94728319D01*
X158263176Y-94713467D01*
X158234923Y-94692316D01*
X158184363Y-94641756D01*
X158184358Y-94641752D01*
X158006025Y-94512187D01*
X158006024Y-94512186D01*
X158006022Y-94512185D01*
X157914799Y-94465704D01*
X157809606Y-94412104D01*
X157809603Y-94412103D01*
X157599952Y-94343985D01*
X157431330Y-94317278D01*
X157382222Y-94309500D01*
X157161778Y-94309500D01*
X157112676Y-94317277D01*
X156944047Y-94343985D01*
X156734396Y-94412103D01*
X156734393Y-94412104D01*
X156537974Y-94512187D01*
X156359641Y-94641752D01*
X156359636Y-94641756D01*
X156203756Y-94797636D01*
X156203752Y-94797641D01*
X156074187Y-94975974D01*
X155974104Y-95172393D01*
X155974103Y-95172396D01*
X155905985Y-95382047D01*
X155886688Y-95503887D01*
X155871500Y-95599778D01*
X155871500Y-95820222D01*
X155874942Y-95841951D01*
X155905985Y-96037952D01*
X155974103Y-96247603D01*
X155974104Y-96247606D01*
X156035629Y-96368353D01*
X156064847Y-96425696D01*
X156074187Y-96444025D01*
X156203752Y-96622358D01*
X156203756Y-96622363D01*
X156359636Y-96778243D01*
X156359641Y-96778247D01*
X156395597Y-96804371D01*
X156438263Y-96859701D01*
X156444242Y-96929314D01*
X156411636Y-96991109D01*
X156410393Y-96992370D01*
X155635858Y-97766905D01*
X155635849Y-97766914D01*
X155633286Y-97769478D01*
X155633284Y-97769480D01*
X155521480Y-97881284D01*
X155504358Y-97910941D01*
X155498037Y-97921888D01*
X155498036Y-97921890D01*
X155445605Y-98012703D01*
X155442423Y-98018215D01*
X155401499Y-98170943D01*
X155401499Y-98170945D01*
X155401499Y-98339046D01*
X155401500Y-98339059D01*
X155401500Y-98409207D01*
X155381815Y-98476246D01*
X155350386Y-98509525D01*
X155219925Y-98604311D01*
X155086312Y-98737924D01*
X155086312Y-98737925D01*
X155086310Y-98737927D01*
X155044235Y-98795838D01*
X154975240Y-98890800D01*
X154889454Y-99059163D01*
X154831059Y-99238881D01*
X154801500Y-99425513D01*
X154200500Y-99425513D01*
X154200500Y-99417648D01*
X154168477Y-99215466D01*
X154160987Y-99192415D01*
X154122199Y-99073037D01*
X154105220Y-99020781D01*
X154105218Y-99020778D01*
X154105218Y-99020776D01*
X154052663Y-98917632D01*
X154012287Y-98838390D01*
X153987755Y-98804624D01*
X153891971Y-98672786D01*
X153747213Y-98528028D01*
X153581614Y-98407715D01*
X153537396Y-98385185D01*
X153488917Y-98360483D01*
X153438123Y-98312511D01*
X153421328Y-98244690D01*
X153443865Y-98178555D01*
X153488917Y-98139516D01*
X153581610Y-98092287D01*
X153680614Y-98020357D01*
X153747213Y-97971971D01*
X153747215Y-97971968D01*
X153747219Y-97971966D01*
X153891966Y-97827219D01*
X153891968Y-97827215D01*
X153891971Y-97827213D01*
X153944732Y-97754590D01*
X154012287Y-97661610D01*
X154105220Y-97479219D01*
X154168477Y-97284534D01*
X154200500Y-97082352D01*
X154200500Y-96877648D01*
X154184755Y-96778242D01*
X154168477Y-96675465D01*
X154105218Y-96480776D01*
X154047935Y-96368353D01*
X154012287Y-96298390D01*
X153975391Y-96247606D01*
X153891971Y-96132786D01*
X153747213Y-95988028D01*
X153581614Y-95867715D01*
X153531049Y-95841951D01*
X153488917Y-95820483D01*
X153438123Y-95772511D01*
X153421328Y-95704690D01*
X153443865Y-95638555D01*
X153488917Y-95599516D01*
X153581610Y-95552287D01*
X153648222Y-95503891D01*
X153747213Y-95431971D01*
X153747215Y-95431968D01*
X153747219Y-95431966D01*
X153891966Y-95287219D01*
X153891968Y-95287215D01*
X153891971Y-95287213D01*
X153944732Y-95214590D01*
X154012287Y-95121610D01*
X154105220Y-94939219D01*
X154168477Y-94744534D01*
X154200500Y-94542352D01*
X154200500Y-94337648D01*
X154197274Y-94317278D01*
X154168477Y-94135465D01*
X154130926Y-94019896D01*
X154105220Y-93940781D01*
X154105218Y-93940778D01*
X154105218Y-93940776D01*
X154068827Y-93869356D01*
X154012287Y-93758390D01*
X154004556Y-93747749D01*
X153891971Y-93592786D01*
X153747213Y-93448028D01*
X153581613Y-93327715D01*
X153581612Y-93327714D01*
X153581610Y-93327713D01*
X153504338Y-93288341D01*
X153488369Y-93280204D01*
X153437573Y-93232229D01*
X153420778Y-93164408D01*
X153443316Y-93098273D01*
X153488370Y-93059234D01*
X153499838Y-93053390D01*
X153312050Y-92865602D01*
X162549500Y-92865602D01*
X162549500Y-93134397D01*
X162584582Y-93400880D01*
X162584583Y-93400885D01*
X162584584Y-93400891D01*
X162612302Y-93504336D01*
X162654152Y-93660524D01*
X162757011Y-93908850D01*
X162757019Y-93908866D01*
X162812124Y-94004309D01*
X162891413Y-94141641D01*
X162891415Y-94141644D01*
X162891416Y-94141645D01*
X163055042Y-94354888D01*
X163055048Y-94354895D01*
X163245104Y-94544951D01*
X163245111Y-94544957D01*
X163284916Y-94575500D01*
X163458359Y-94708587D01*
X163600413Y-94790602D01*
X163691133Y-94842980D01*
X163691149Y-94842988D01*
X163846008Y-94907132D01*
X163939474Y-94945847D01*
X164199109Y-95015416D01*
X164363066Y-95037001D01*
X164465602Y-95050500D01*
X164465603Y-95050500D01*
X164734398Y-95050500D01*
X164794905Y-95042534D01*
X165000891Y-95015416D01*
X165260526Y-94945847D01*
X165493237Y-94849455D01*
X165508850Y-94842988D01*
X165508853Y-94842986D01*
X165508859Y-94842984D01*
X165741641Y-94708587D01*
X165954890Y-94544956D01*
X166144956Y-94354890D01*
X166308587Y-94141641D01*
X166442984Y-93908859D01*
X166545847Y-93660526D01*
X166615416Y-93400891D01*
X166650500Y-93134397D01*
X166650500Y-92865603D01*
X166615416Y-92599109D01*
X166545847Y-92339474D01*
X166483405Y-92188726D01*
X166442988Y-92091149D01*
X166442980Y-92091133D01*
X166372872Y-91969704D01*
X166308587Y-91858359D01*
X166211866Y-91732309D01*
X166144957Y-91645111D01*
X166144951Y-91645104D01*
X165954895Y-91455048D01*
X165954888Y-91455042D01*
X165741645Y-91291416D01*
X165741644Y-91291415D01*
X165741641Y-91291413D01*
X165615612Y-91218650D01*
X165508866Y-91157019D01*
X165508850Y-91157011D01*
X165260524Y-91054152D01*
X165130708Y-91019368D01*
X165000891Y-90984584D01*
X165000885Y-90984583D01*
X165000880Y-90984582D01*
X164734398Y-90949500D01*
X164734397Y-90949500D01*
X164465603Y-90949500D01*
X164465602Y-90949500D01*
X164199119Y-90984582D01*
X164199112Y-90984583D01*
X164199109Y-90984584D01*
X164184935Y-90988382D01*
X163939475Y-91054152D01*
X163691149Y-91157011D01*
X163691133Y-91157019D01*
X163458354Y-91291416D01*
X163245111Y-91455042D01*
X163245104Y-91455048D01*
X163055048Y-91645104D01*
X163055042Y-91645111D01*
X162891416Y-91858354D01*
X162757019Y-92091133D01*
X162757011Y-92091149D01*
X162654152Y-92339475D01*
X162584585Y-92599106D01*
X162584582Y-92599119D01*
X162549500Y-92865602D01*
X153312050Y-92865602D01*
X152870235Y-92423787D01*
X152912292Y-92412518D01*
X153037708Y-92340110D01*
X153140110Y-92237708D01*
X153212518Y-92112292D01*
X153223787Y-92070235D01*
X153895312Y-92741761D01*
X153895312Y-92741760D01*
X154011859Y-92581349D01*
X154104755Y-92399031D01*
X154167990Y-92204417D01*
X154200000Y-92002317D01*
X154200000Y-91797682D01*
X154167990Y-91595582D01*
X154104755Y-91400968D01*
X154011859Y-91218650D01*
X153895312Y-91058238D01*
X153895312Y-91058237D01*
X153223786Y-91729763D01*
X153212518Y-91687708D01*
X153140110Y-91562292D01*
X153037708Y-91459890D01*
X152912292Y-91387482D01*
X152870235Y-91376212D01*
X153499839Y-90746608D01*
X153488371Y-90740765D01*
X153437575Y-90692792D01*
X153420779Y-90624971D01*
X153443316Y-90558836D01*
X153488370Y-90519795D01*
X153489471Y-90519234D01*
X153581610Y-90472287D01*
X153622183Y-90442809D01*
X153747213Y-90351971D01*
X153747215Y-90351968D01*
X153747219Y-90351966D01*
X153891966Y-90207219D01*
X153891968Y-90207215D01*
X153891971Y-90207213D01*
X153999315Y-90059464D01*
X154012287Y-90041610D01*
X154105220Y-89859219D01*
X154168477Y-89664534D01*
X154200500Y-89462352D01*
X154200500Y-89257648D01*
X154183087Y-89147708D01*
X154168477Y-89055465D01*
X154131500Y-88941662D01*
X154105220Y-88860781D01*
X154105218Y-88860778D01*
X154105218Y-88860776D01*
X154067097Y-88785961D01*
X154012287Y-88678390D01*
X153996458Y-88656603D01*
X153891971Y-88512786D01*
X153747213Y-88368028D01*
X153581614Y-88247715D01*
X153556777Y-88235060D01*
X153488917Y-88200483D01*
X153438123Y-88152511D01*
X153421328Y-88084690D01*
X153443865Y-88018555D01*
X153488917Y-87979516D01*
X153581610Y-87932287D01*
X153691149Y-87852703D01*
X153747213Y-87811971D01*
X153747215Y-87811968D01*
X153747219Y-87811966D01*
X153891966Y-87667219D01*
X153891968Y-87667215D01*
X153891971Y-87667213D01*
X153956567Y-87578302D01*
X154012287Y-87501610D01*
X154105220Y-87319219D01*
X154168477Y-87124534D01*
X154200500Y-86922352D01*
X154200500Y-86717648D01*
X154181875Y-86600054D01*
X154168477Y-86515465D01*
X154111296Y-86339481D01*
X154105220Y-86320781D01*
X154105218Y-86320778D01*
X154105218Y-86320776D01*
X154071503Y-86254607D01*
X154012287Y-86138390D01*
X153980129Y-86094128D01*
X153891971Y-85972786D01*
X153747213Y-85828028D01*
X153581613Y-85707715D01*
X153581612Y-85707714D01*
X153581610Y-85707713D01*
X153510462Y-85671461D01*
X153399223Y-85614781D01*
X153204534Y-85551522D01*
X153029995Y-85523878D01*
X153002352Y-85519500D01*
X152397648Y-85519500D01*
X152373329Y-85523351D01*
X152195465Y-85551522D01*
X152000776Y-85614781D01*
X151818386Y-85707715D01*
X151652786Y-85828028D01*
X151508028Y-85972786D01*
X151387715Y-86138386D01*
X151294781Y-86320776D01*
X151231522Y-86515465D01*
X151199500Y-86717648D01*
X150390500Y-86717648D01*
X150371875Y-86600054D01*
X150358477Y-86515465D01*
X150301296Y-86339481D01*
X150295220Y-86320781D01*
X150295218Y-86320778D01*
X150295218Y-86320776D01*
X150261503Y-86254607D01*
X150202287Y-86138390D01*
X150170129Y-86094128D01*
X150081971Y-85972786D01*
X149937213Y-85828028D01*
X149771613Y-85707715D01*
X149771612Y-85707714D01*
X149771610Y-85707713D01*
X149700462Y-85671461D01*
X149589223Y-85614781D01*
X149394534Y-85551522D01*
X149219995Y-85523878D01*
X149192352Y-85519500D01*
X148587648Y-85519500D01*
X148563329Y-85523351D01*
X148385465Y-85551522D01*
X148190776Y-85614781D01*
X148008386Y-85707715D01*
X147842786Y-85828028D01*
X147698028Y-85972786D01*
X147577715Y-86138386D01*
X147484781Y-86320776D01*
X147421522Y-86515465D01*
X147389500Y-86717648D01*
X143540500Y-86717648D01*
X143540500Y-84770235D01*
X143554016Y-84713939D01*
X143559873Y-84702445D01*
X143613402Y-84537701D01*
X143640500Y-84366611D01*
X143640500Y-84193389D01*
X143613402Y-84022299D01*
X143559873Y-83857555D01*
X143481232Y-83703212D01*
X143481230Y-83703209D01*
X143481229Y-83703207D01*
X143477000Y-83697386D01*
X143453519Y-83631580D01*
X143469344Y-83563526D01*
X143519449Y-83514831D01*
X143577317Y-83500500D01*
X156012389Y-83500500D01*
X156023432Y-83503742D01*
X156034880Y-83502557D01*
X156056348Y-83513407D01*
X156079428Y-83520185D01*
X156086964Y-83528883D01*
X156097237Y-83534075D01*
X156109431Y-83554811D01*
X156125183Y-83572989D01*
X156126820Y-83584379D01*
X156132656Y-83594302D01*
X156131703Y-83618338D01*
X156135127Y-83642147D01*
X156130345Y-83652616D01*
X156129890Y-83664117D01*
X156116094Y-83683822D01*
X156106102Y-83705703D01*
X156095390Y-83713395D01*
X156089819Y-83721354D01*
X156071203Y-83730765D01*
X156059396Y-83739245D01*
X156052103Y-83742232D01*
X155984215Y-83760423D01*
X155934095Y-83789360D01*
X155926849Y-83793543D01*
X155926845Y-83793545D01*
X155847285Y-83839479D01*
X155847282Y-83839481D01*
X155013481Y-84673282D01*
X155013479Y-84673285D01*
X154973610Y-84742342D01*
X154973609Y-84742343D01*
X154934423Y-84810214D01*
X154934423Y-84810215D01*
X154893499Y-84962943D01*
X154893499Y-84962945D01*
X154893499Y-85131046D01*
X154893500Y-85131059D01*
X154893500Y-88635638D01*
X154873815Y-88702677D01*
X154857181Y-88723319D01*
X154794538Y-88785961D01*
X154794535Y-88785965D01*
X154695990Y-88933446D01*
X154695983Y-88933459D01*
X154628106Y-89097332D01*
X154628103Y-89097341D01*
X154593500Y-89271304D01*
X154593500Y-89448695D01*
X154628103Y-89622658D01*
X154628106Y-89622667D01*
X154695983Y-89786540D01*
X154695990Y-89786553D01*
X154794535Y-89934034D01*
X154794538Y-89934038D01*
X154919961Y-90059461D01*
X154919965Y-90059464D01*
X155067446Y-90158009D01*
X155067459Y-90158016D01*
X155164440Y-90198186D01*
X155231334Y-90225894D01*
X155231336Y-90225894D01*
X155231341Y-90225896D01*
X155405304Y-90260499D01*
X155405307Y-90260500D01*
X155405309Y-90260500D01*
X155582693Y-90260500D01*
X155582694Y-90260499D01*
X155658518Y-90245417D01*
X155756658Y-90225896D01*
X155756659Y-90225895D01*
X155756666Y-90225894D01*
X155920547Y-90158013D01*
X156068035Y-90059464D01*
X156193464Y-89934035D01*
X156226186Y-89885062D01*
X156279797Y-89840258D01*
X156349121Y-89831549D01*
X156412149Y-89861703D01*
X156436014Y-89892762D01*
X156436651Y-89892373D01*
X156439189Y-89896516D01*
X156540967Y-90036602D01*
X156625406Y-90121041D01*
X157380000Y-89366447D01*
X157380000Y-89372661D01*
X157407259Y-89474394D01*
X157459920Y-89565606D01*
X157534394Y-89640080D01*
X157625606Y-89692741D01*
X157727339Y-89720000D01*
X157733552Y-89720000D01*
X157075787Y-90377762D01*
X157122419Y-90392914D01*
X157293429Y-90420000D01*
X158266571Y-90420000D01*
X158437582Y-90392914D01*
X158437585Y-90392913D01*
X158484211Y-90377763D01*
X158484211Y-90377762D01*
X157826448Y-89720000D01*
X157832661Y-89720000D01*
X157934394Y-89692741D01*
X158025606Y-89640080D01*
X158100080Y-89565606D01*
X158152741Y-89474394D01*
X158180000Y-89372661D01*
X158180000Y-89366448D01*
X158934592Y-90121041D01*
X158934593Y-90121041D01*
X159019033Y-90036601D01*
X159120804Y-89896524D01*
X159199408Y-89742257D01*
X159252914Y-89577584D01*
X159280000Y-89406571D01*
X159280000Y-89233428D01*
X159252914Y-89062415D01*
X159199408Y-88897742D01*
X159120804Y-88743475D01*
X159019032Y-88603397D01*
X158934593Y-88518958D01*
X158934592Y-88518958D01*
X158180000Y-89273550D01*
X158180000Y-89267339D01*
X158152741Y-89165606D01*
X158100080Y-89074394D01*
X158025606Y-88999920D01*
X157934394Y-88947259D01*
X157832661Y-88920000D01*
X157826449Y-88920000D01*
X158484211Y-88262236D01*
X158484211Y-88262235D01*
X158437586Y-88247086D01*
X158266571Y-88220000D01*
X157293429Y-88220000D01*
X157122414Y-88247086D01*
X157075788Y-88262235D01*
X157075788Y-88262236D01*
X157733552Y-88920000D01*
X157727339Y-88920000D01*
X157625606Y-88947259D01*
X157534394Y-88999920D01*
X157459920Y-89074394D01*
X157407259Y-89165606D01*
X157380000Y-89267339D01*
X157380000Y-89273551D01*
X156625406Y-88518958D01*
X156540966Y-88603398D01*
X156439196Y-88743473D01*
X156416644Y-88787732D01*
X156368669Y-88838526D01*
X156300847Y-88855320D01*
X156234713Y-88832781D01*
X156214682Y-88815145D01*
X156208305Y-88808176D01*
X156193464Y-88785965D01*
X156128885Y-88721386D01*
X156127021Y-88719349D01*
X156112810Y-88690339D01*
X156097334Y-88661996D01*
X156096886Y-88657830D01*
X156096285Y-88656603D01*
X156096528Y-88654506D01*
X156094500Y-88635638D01*
X156094500Y-87207833D01*
X156114185Y-87140794D01*
X156166989Y-87095039D01*
X156236147Y-87085095D01*
X156299703Y-87114120D01*
X156336429Y-87169513D01*
X156360127Y-87242445D01*
X156438768Y-87396788D01*
X156540586Y-87536928D01*
X156663072Y-87659414D01*
X156803212Y-87761232D01*
X156957555Y-87839873D01*
X157122299Y-87893402D01*
X157293389Y-87920500D01*
X157293390Y-87920500D01*
X158266610Y-87920500D01*
X158266611Y-87920500D01*
X158437701Y-87893402D01*
X158602445Y-87839873D01*
X158756788Y-87761232D01*
X158896928Y-87659414D01*
X159019414Y-87536928D01*
X159121232Y-87396788D01*
X159199873Y-87242445D01*
X159253402Y-87077701D01*
X159280500Y-86906611D01*
X159280500Y-86733389D01*
X159253402Y-86562299D01*
X159199873Y-86397555D01*
X159121232Y-86243212D01*
X159019414Y-86103072D01*
X158896928Y-85980586D01*
X158756788Y-85878768D01*
X158602445Y-85800127D01*
X158437701Y-85746598D01*
X158437699Y-85746597D01*
X158437698Y-85746597D01*
X158306271Y-85725781D01*
X158266611Y-85719500D01*
X157293389Y-85719500D01*
X157253728Y-85725781D01*
X157122302Y-85746597D01*
X156957552Y-85800128D01*
X156803211Y-85878768D01*
X156723256Y-85936859D01*
X156663072Y-85980586D01*
X156663070Y-85980588D01*
X156663069Y-85980588D01*
X156540588Y-86103069D01*
X156540588Y-86103070D01*
X156540586Y-86103072D01*
X156516608Y-86136075D01*
X156438768Y-86243211D01*
X156360128Y-86397552D01*
X156336431Y-86470484D01*
X156296993Y-86528160D01*
X156232635Y-86555358D01*
X156163788Y-86543443D01*
X156112313Y-86496199D01*
X156094500Y-86432166D01*
X156094500Y-85435983D01*
X163516500Y-85435983D01*
X163516500Y-86236001D01*
X163516501Y-86236019D01*
X163527000Y-86338796D01*
X163527001Y-86338799D01*
X163582185Y-86505331D01*
X163582187Y-86505336D01*
X163591339Y-86520174D01*
X163674288Y-86654656D01*
X163798344Y-86778712D01*
X163855447Y-86813933D01*
X163862543Y-86818310D01*
X163909268Y-86870258D01*
X163920489Y-86939221D01*
X163892646Y-87003303D01*
X163885128Y-87011530D01*
X163777585Y-87119073D01*
X163675768Y-87259211D01*
X163597128Y-87413552D01*
X163543597Y-87578302D01*
X163516500Y-87749389D01*
X163516500Y-87922610D01*
X163543011Y-88090000D01*
X163543598Y-88093701D01*
X163597127Y-88258445D01*
X163675768Y-88412788D01*
X163777586Y-88552928D01*
X163900072Y-88675414D01*
X164040212Y-88777232D01*
X164194555Y-88855873D01*
X164359299Y-88909402D01*
X164530389Y-88936500D01*
X164530390Y-88936500D01*
X165253610Y-88936500D01*
X165253611Y-88936500D01*
X165424701Y-88909402D01*
X165589445Y-88855873D01*
X165743788Y-88777232D01*
X165883928Y-88675414D01*
X166006414Y-88552928D01*
X166108232Y-88412788D01*
X166186873Y-88258445D01*
X166240402Y-88093701D01*
X166267500Y-87922611D01*
X166267500Y-87749389D01*
X166240402Y-87578299D01*
X166186873Y-87413555D01*
X166108232Y-87259212D01*
X166006414Y-87119072D01*
X165898872Y-87011530D01*
X165865387Y-86950207D01*
X165870371Y-86880515D01*
X165912243Y-86824582D01*
X165921457Y-86818310D01*
X165928553Y-86813933D01*
X165985656Y-86778712D01*
X166109712Y-86654656D01*
X166201814Y-86505334D01*
X166256999Y-86338797D01*
X166267500Y-86236009D01*
X166267499Y-85435992D01*
X166265916Y-85420500D01*
X166256999Y-85333203D01*
X166256998Y-85333200D01*
X166221877Y-85227212D01*
X166201814Y-85166666D01*
X166109712Y-85017344D01*
X165985656Y-84893288D01*
X165882344Y-84829565D01*
X165836336Y-84801187D01*
X165836331Y-84801185D01*
X165784853Y-84784127D01*
X165669797Y-84746001D01*
X165669795Y-84746000D01*
X165567010Y-84735500D01*
X164216998Y-84735500D01*
X164216981Y-84735501D01*
X164114203Y-84746000D01*
X164114200Y-84746001D01*
X163947668Y-84801185D01*
X163947663Y-84801187D01*
X163798342Y-84893289D01*
X163674289Y-85017342D01*
X163582187Y-85166663D01*
X163582186Y-85166666D01*
X163527001Y-85333203D01*
X163527001Y-85333204D01*
X163527000Y-85333204D01*
X163516500Y-85435983D01*
X156094500Y-85435983D01*
X156094500Y-85342096D01*
X156114185Y-85275057D01*
X156130815Y-85254419D01*
X156357161Y-85028072D01*
X156418482Y-84994589D01*
X156488173Y-84999573D01*
X156536936Y-85033687D01*
X156537141Y-85033483D01*
X156538299Y-85034641D01*
X156539128Y-85035221D01*
X156540586Y-85036928D01*
X156663072Y-85159414D01*
X156803212Y-85261232D01*
X156957555Y-85339873D01*
X157122299Y-85393402D01*
X157293389Y-85420500D01*
X157293390Y-85420500D01*
X158266610Y-85420500D01*
X158266611Y-85420500D01*
X158437701Y-85393402D01*
X158602445Y-85339873D01*
X158756788Y-85261232D01*
X158896928Y-85159414D01*
X159019414Y-85036928D01*
X159121232Y-84896788D01*
X159199873Y-84742445D01*
X159253402Y-84577701D01*
X159280500Y-84406611D01*
X159280500Y-84233389D01*
X159253402Y-84062299D01*
X159199873Y-83897555D01*
X159121232Y-83743212D01*
X159087936Y-83697385D01*
X159064457Y-83631580D01*
X159080282Y-83563526D01*
X159130388Y-83514831D01*
X159188255Y-83500500D01*
X166875500Y-83500500D01*
X166942539Y-83520185D01*
X166988294Y-83572989D01*
X166999500Y-83624500D01*
X166999500Y-99375500D01*
X166979815Y-99442539D01*
X166927011Y-99488294D01*
X166875500Y-99499500D01*
X162280759Y-99499500D01*
X161843817Y-99535706D01*
X161843811Y-99535707D01*
X161411329Y-99607875D01*
X161411325Y-99607876D01*
X161259280Y-99646379D01*
X160986282Y-99715512D01*
X160986276Y-99715513D01*
X160986268Y-99715516D01*
X160571575Y-99857880D01*
X160170052Y-100034005D01*
X160170038Y-100034011D01*
X159784436Y-100242688D01*
X159417359Y-100482512D01*
X159071371Y-100751806D01*
X159071362Y-100751814D01*
X158748775Y-101048775D01*
X158451814Y-101371362D01*
X158451806Y-101371371D01*
X158182512Y-101717359D01*
X157942688Y-102084436D01*
X157734011Y-102470038D01*
X157734005Y-102470052D01*
X157557880Y-102871575D01*
X157415516Y-103286268D01*
X157415513Y-103286276D01*
X157415512Y-103286282D01*
X157364568Y-103487454D01*
X157307876Y-103711325D01*
X157307875Y-103711329D01*
X157268342Y-103948239D01*
X157237891Y-104011124D01*
X157178276Y-104047564D01*
X157108424Y-104045988D01*
X157050513Y-104006898D01*
X157035548Y-103984123D01*
X157028761Y-103970802D01*
X156990869Y-103918649D01*
X156917690Y-103817927D01*
X156784073Y-103684310D01*
X156631199Y-103573240D01*
X156623009Y-103569067D01*
X156462836Y-103487454D01*
X156283118Y-103429059D01*
X156096486Y-103399500D01*
X156096481Y-103399500D01*
X155907519Y-103399500D01*
X155907514Y-103399500D01*
X155720881Y-103429059D01*
X155541163Y-103487454D01*
X155372800Y-103573240D01*
X155324911Y-103608034D01*
X155219927Y-103684310D01*
X155219925Y-103684312D01*
X155219924Y-103684312D01*
X155086312Y-103817924D01*
X155086312Y-103817925D01*
X155086310Y-103817927D01*
X155038610Y-103883579D01*
X154975240Y-103970800D01*
X154889454Y-104139163D01*
X154831059Y-104318881D01*
X154801500Y-104505513D01*
X154801500Y-104694486D01*
X154831059Y-104881118D01*
X154889454Y-105060836D01*
X154950452Y-105180550D01*
X154975240Y-105229199D01*
X155086310Y-105382073D01*
X155219927Y-105515690D01*
X155372801Y-105626760D01*
X155399487Y-105640357D01*
X155541163Y-105712545D01*
X155541165Y-105712545D01*
X155541168Y-105712547D01*
X155627737Y-105740675D01*
X155720881Y-105770940D01*
X155907514Y-105800500D01*
X155907519Y-105800500D01*
X156096486Y-105800500D01*
X156283118Y-105770940D01*
X156462832Y-105712547D01*
X156631199Y-105626760D01*
X156784073Y-105515690D01*
X156917690Y-105382073D01*
X156975182Y-105302941D01*
X157030512Y-105260276D01*
X157100125Y-105254297D01*
X157161920Y-105286903D01*
X157196277Y-105347741D01*
X157199500Y-105375827D01*
X157199500Y-129375500D01*
X157179815Y-129442539D01*
X157127011Y-129488294D01*
X157075500Y-129499500D01*
X122924500Y-129499500D01*
X122857461Y-129479815D01*
X122811706Y-129427011D01*
X122800500Y-129375500D01*
X122800500Y-106755000D01*
X123584638Y-106755000D01*
X123589548Y-106786002D01*
X123647914Y-106965637D01*
X123733670Y-107133940D01*
X123844685Y-107286741D01*
X123844689Y-107286746D01*
X123978253Y-107420310D01*
X123978258Y-107420314D01*
X124131059Y-107531329D01*
X124299362Y-107617085D01*
X124478997Y-107675451D01*
X124510000Y-107680362D01*
X124510000Y-107680361D01*
X125010000Y-107680361D01*
X125041002Y-107675451D01*
X125220637Y-107617085D01*
X125388940Y-107531329D01*
X125541741Y-107420314D01*
X125541746Y-107420310D01*
X125675310Y-107286746D01*
X125675314Y-107286741D01*
X125786329Y-107133940D01*
X125872085Y-106965637D01*
X125930451Y-106786002D01*
X125935362Y-106755000D01*
X125010000Y-106755000D01*
X125010000Y-107680361D01*
X124510000Y-107680361D01*
X124510000Y-106755000D01*
X123584638Y-106755000D01*
X122800500Y-106755000D01*
X122800500Y-104580774D01*
X122800499Y-104580759D01*
X122764293Y-104143817D01*
X122764292Y-104143811D01*
X122764292Y-104143807D01*
X122718687Y-103870513D01*
X123559500Y-103870513D01*
X123559500Y-104059486D01*
X123589059Y-104246118D01*
X123647454Y-104425836D01*
X123707950Y-104544565D01*
X123733240Y-104594199D01*
X123844310Y-104747073D01*
X123977927Y-104880690D01*
X124130801Y-104991760D01*
X124299168Y-105077547D01*
X124421612Y-105117331D01*
X124479287Y-105156769D01*
X124506485Y-105221127D01*
X124494570Y-105289974D01*
X124447326Y-105341449D01*
X124421612Y-105353193D01*
X124299361Y-105392915D01*
X124131059Y-105478670D01*
X123978258Y-105589685D01*
X123978253Y-105589689D01*
X123844689Y-105723253D01*
X123844685Y-105723258D01*
X123733670Y-105876059D01*
X123647914Y-106044362D01*
X123589548Y-106223997D01*
X123584638Y-106255000D01*
X124515025Y-106255000D01*
X124479930Y-106290095D01*
X124433852Y-106369905D01*
X124410000Y-106458922D01*
X124410000Y-106551078D01*
X124433852Y-106640095D01*
X124479930Y-106719905D01*
X124545095Y-106785070D01*
X124624905Y-106831148D01*
X124713922Y-106855000D01*
X124806078Y-106855000D01*
X124895095Y-106831148D01*
X124974905Y-106785070D01*
X125040070Y-106719905D01*
X125086148Y-106640095D01*
X125110000Y-106551078D01*
X125110000Y-106458922D01*
X125086148Y-106369905D01*
X125040070Y-106290095D01*
X125004975Y-106255000D01*
X125935362Y-106255000D01*
X125930451Y-106223997D01*
X125872085Y-106044362D01*
X125786329Y-105876059D01*
X125675314Y-105723258D01*
X125675310Y-105723253D01*
X125541746Y-105589689D01*
X125541741Y-105589685D01*
X125388940Y-105478670D01*
X125220637Y-105392914D01*
X125098388Y-105353193D01*
X125040712Y-105313755D01*
X125013514Y-105249397D01*
X125025429Y-105180550D01*
X125072673Y-105129075D01*
X125098382Y-105117333D01*
X125220832Y-105077547D01*
X125389199Y-104991760D01*
X125542073Y-104880690D01*
X125675690Y-104747073D01*
X125786760Y-104594199D01*
X125872547Y-104425832D01*
X125930940Y-104246118D01*
X125947144Y-104143811D01*
X125960500Y-104059486D01*
X125960500Y-103870513D01*
X128639500Y-103870513D01*
X128639500Y-104059486D01*
X128669059Y-104246118D01*
X128727454Y-104425836D01*
X128787950Y-104544565D01*
X128813240Y-104594199D01*
X128924310Y-104747073D01*
X129057927Y-104880690D01*
X129188386Y-104975474D01*
X129231051Y-105030803D01*
X129239500Y-105075791D01*
X129239500Y-105394207D01*
X129219815Y-105461246D01*
X129188386Y-105494525D01*
X129057925Y-105589311D01*
X128924312Y-105722924D01*
X128924312Y-105722925D01*
X128924310Y-105722927D01*
X128902177Y-105753391D01*
X128813240Y-105875800D01*
X128727454Y-106044163D01*
X128669059Y-106223881D01*
X128639500Y-106410513D01*
X128639500Y-106599486D01*
X128669059Y-106786118D01*
X128727454Y-106965836D01*
X128813108Y-107133940D01*
X128813240Y-107134199D01*
X128924310Y-107287073D01*
X129057927Y-107420690D01*
X129210801Y-107531760D01*
X129233493Y-107543322D01*
X129379163Y-107617545D01*
X129379165Y-107617545D01*
X129379168Y-107617547D01*
X129475497Y-107648846D01*
X129558881Y-107675940D01*
X129745514Y-107705500D01*
X129745519Y-107705500D01*
X129934486Y-107705500D01*
X130121118Y-107675940D01*
X130122623Y-107675451D01*
X130300832Y-107617547D01*
X130469199Y-107531760D01*
X130622073Y-107420690D01*
X130755690Y-107287073D01*
X130866760Y-107134199D01*
X130952547Y-106965832D01*
X131010940Y-106786118D01*
X131021427Y-106719905D01*
X131040500Y-106599486D01*
X131040500Y-106410513D01*
X131010940Y-106223881D01*
X130952545Y-106044163D01*
X130907290Y-105955347D01*
X130866760Y-105875801D01*
X130755690Y-105722927D01*
X130622073Y-105589310D01*
X130577649Y-105557034D01*
X130491614Y-105494525D01*
X130448948Y-105439194D01*
X130440500Y-105394207D01*
X130440500Y-105075791D01*
X130460185Y-105008752D01*
X130491612Y-104975475D01*
X130622073Y-104880690D01*
X130755690Y-104747073D01*
X130866760Y-104594199D01*
X130952547Y-104425832D01*
X131010940Y-104246118D01*
X131027144Y-104143811D01*
X131040500Y-104059486D01*
X131040500Y-103870513D01*
X131010940Y-103683881D01*
X130961478Y-103531654D01*
X130952547Y-103504168D01*
X130952545Y-103504165D01*
X130952545Y-103504163D01*
X130890941Y-103383260D01*
X130866760Y-103335801D01*
X130755690Y-103182927D01*
X130622073Y-103049310D01*
X130469199Y-102938240D01*
X130408317Y-102907219D01*
X130300836Y-102852454D01*
X130121118Y-102794059D01*
X129934486Y-102764500D01*
X129934481Y-102764500D01*
X129745519Y-102764500D01*
X129745514Y-102764500D01*
X129558881Y-102794059D01*
X129379163Y-102852454D01*
X129210800Y-102938240D01*
X129182004Y-102959162D01*
X129057927Y-103049310D01*
X129057925Y-103049312D01*
X129057924Y-103049312D01*
X128924312Y-103182924D01*
X128924312Y-103182925D01*
X128924310Y-103182927D01*
X128897524Y-103219795D01*
X128813240Y-103335800D01*
X128727454Y-103504163D01*
X128669059Y-103683881D01*
X128639500Y-103870513D01*
X125960500Y-103870513D01*
X125930940Y-103683881D01*
X125881478Y-103531654D01*
X125872547Y-103504168D01*
X125872545Y-103504165D01*
X125872545Y-103504163D01*
X125810941Y-103383260D01*
X125786760Y-103335801D01*
X125675690Y-103182927D01*
X125542073Y-103049310D01*
X125389199Y-102938240D01*
X125328317Y-102907219D01*
X125220836Y-102852454D01*
X125041118Y-102794059D01*
X124854486Y-102764500D01*
X124854481Y-102764500D01*
X124665519Y-102764500D01*
X124665514Y-102764500D01*
X124478881Y-102794059D01*
X124299163Y-102852454D01*
X124130800Y-102938240D01*
X124102004Y-102959162D01*
X123977927Y-103049310D01*
X123977925Y-103049312D01*
X123977924Y-103049312D01*
X123844312Y-103182924D01*
X123844312Y-103182925D01*
X123844310Y-103182927D01*
X123817524Y-103219795D01*
X123733240Y-103335800D01*
X123647454Y-103504163D01*
X123589059Y-103683881D01*
X123559500Y-103870513D01*
X122718687Y-103870513D01*
X122692124Y-103711326D01*
X122584488Y-103286282D01*
X122442121Y-102871579D01*
X122265993Y-102470048D01*
X122057309Y-102084433D01*
X121939064Y-101903446D01*
X121817487Y-101717359D01*
X121548193Y-101371371D01*
X121548185Y-101371362D01*
X121251224Y-101048775D01*
X120928637Y-100751814D01*
X120928628Y-100751806D01*
X120582640Y-100482512D01*
X120404453Y-100366096D01*
X122015000Y-100366096D01*
X122017897Y-100408824D01*
X122063831Y-100593523D01*
X122148390Y-100764022D01*
X122148392Y-100764025D01*
X122267632Y-100912366D01*
X122267633Y-100912367D01*
X122415974Y-101031607D01*
X122415977Y-101031609D01*
X122586476Y-101116168D01*
X122771175Y-101162102D01*
X122813903Y-101165000D01*
X123265000Y-101165000D01*
X123765000Y-101165000D01*
X124216097Y-101165000D01*
X124258824Y-101162102D01*
X124443523Y-101116168D01*
X124614022Y-101031609D01*
X124614025Y-101031607D01*
X124762366Y-100912367D01*
X124762367Y-100912366D01*
X124881607Y-100764025D01*
X124881609Y-100764022D01*
X124966168Y-100593523D01*
X125012102Y-100408824D01*
X125015000Y-100366096D01*
X125015000Y-100165000D01*
X123765000Y-100165000D01*
X123765000Y-101165000D01*
X123265000Y-101165000D01*
X123265000Y-100165000D01*
X122015000Y-100165000D01*
X122015000Y-100366096D01*
X120404453Y-100366096D01*
X120215563Y-100242688D01*
X120178614Y-100222693D01*
X119829961Y-100034011D01*
X119829947Y-100034005D01*
X119796238Y-100019219D01*
X119611847Y-99938337D01*
X119428424Y-99857880D01*
X119013731Y-99715516D01*
X119013725Y-99715514D01*
X119013718Y-99715512D01*
X118588674Y-99607876D01*
X118588670Y-99607875D01*
X118156188Y-99535707D01*
X118156182Y-99535706D01*
X117719240Y-99499500D01*
X117719230Y-99499500D01*
X117565892Y-99499500D01*
X113124500Y-99499500D01*
X113057461Y-99479815D01*
X113011706Y-99427011D01*
X113000500Y-99375500D01*
X113000500Y-92865602D01*
X113349500Y-92865602D01*
X113349500Y-93134397D01*
X113384582Y-93400880D01*
X113384583Y-93400885D01*
X113384584Y-93400891D01*
X113412302Y-93504336D01*
X113454152Y-93660524D01*
X113557011Y-93908850D01*
X113557019Y-93908866D01*
X113612124Y-94004309D01*
X113691413Y-94141641D01*
X113691415Y-94141644D01*
X113691416Y-94141645D01*
X113855042Y-94354888D01*
X113855048Y-94354895D01*
X114045104Y-94544951D01*
X114045111Y-94544957D01*
X114084916Y-94575500D01*
X114258359Y-94708587D01*
X114400413Y-94790602D01*
X114491133Y-94842980D01*
X114491149Y-94842988D01*
X114646008Y-94907132D01*
X114739474Y-94945847D01*
X114999109Y-95015416D01*
X115163066Y-95037001D01*
X115265602Y-95050500D01*
X115265603Y-95050500D01*
X115534398Y-95050500D01*
X115594905Y-95042534D01*
X115800891Y-95015416D01*
X116060526Y-94945847D01*
X116293237Y-94849455D01*
X116308850Y-94842988D01*
X116308853Y-94842986D01*
X116308859Y-94842984D01*
X116541641Y-94708587D01*
X116754890Y-94544956D01*
X116944956Y-94354890D01*
X117108587Y-94141641D01*
X117242984Y-93908859D01*
X117345847Y-93660526D01*
X117415416Y-93400891D01*
X117437257Y-93234986D01*
X119202501Y-93234986D01*
X119212994Y-93337697D01*
X119268141Y-93504119D01*
X119268143Y-93504124D01*
X119360184Y-93653345D01*
X119484154Y-93777315D01*
X119633375Y-93869356D01*
X119633380Y-93869358D01*
X119799802Y-93924505D01*
X119799809Y-93924506D01*
X119902519Y-93934999D01*
X120114999Y-93934999D01*
X120615000Y-93934999D01*
X120827472Y-93934999D01*
X120827486Y-93934998D01*
X120930197Y-93924505D01*
X121096619Y-93869358D01*
X121096624Y-93869356D01*
X121245845Y-93777315D01*
X121369815Y-93653345D01*
X121461856Y-93504124D01*
X121461858Y-93504119D01*
X121517005Y-93337697D01*
X121517006Y-93337690D01*
X121527499Y-93234986D01*
X121527500Y-93234973D01*
X121527500Y-92785000D01*
X120615000Y-92785000D01*
X120615000Y-93934999D01*
X120114999Y-93934999D01*
X120115000Y-93934998D01*
X120115000Y-92785000D01*
X119202501Y-92785000D01*
X119202501Y-93234986D01*
X117437257Y-93234986D01*
X117450500Y-93134397D01*
X117450500Y-92865603D01*
X117450500Y-92865602D01*
X117435258Y-92749823D01*
X117415417Y-92599119D01*
X117415416Y-92599109D01*
X117345847Y-92339474D01*
X117283405Y-92188726D01*
X117242988Y-92091149D01*
X117242983Y-92091140D01*
X117232216Y-92072491D01*
X117108587Y-91858359D01*
X117090673Y-91835013D01*
X119202500Y-91835013D01*
X119202500Y-92285000D01*
X120115000Y-92285000D01*
X120615000Y-92285000D01*
X121527499Y-92285000D01*
X121527499Y-91835028D01*
X121527498Y-91835013D01*
X121517005Y-91732302D01*
X121461858Y-91565880D01*
X121461856Y-91565875D01*
X121369815Y-91416654D01*
X121245845Y-91292684D01*
X121096624Y-91200643D01*
X121096619Y-91200641D01*
X120930197Y-91145494D01*
X120930190Y-91145493D01*
X120827486Y-91135000D01*
X120615000Y-91135000D01*
X120615000Y-92285000D01*
X120115000Y-92285000D01*
X120115000Y-91135000D01*
X119902529Y-91135000D01*
X119902512Y-91135001D01*
X119799802Y-91145494D01*
X119633380Y-91200641D01*
X119633375Y-91200643D01*
X119484154Y-91292684D01*
X119360184Y-91416654D01*
X119268143Y-91565875D01*
X119268141Y-91565880D01*
X119212994Y-91732302D01*
X119212993Y-91732309D01*
X119202500Y-91835013D01*
X117090673Y-91835013D01*
X117011866Y-91732309D01*
X116944957Y-91645111D01*
X116944951Y-91645104D01*
X116754895Y-91455048D01*
X116754888Y-91455042D01*
X116541645Y-91291416D01*
X116541644Y-91291415D01*
X116541641Y-91291413D01*
X116415612Y-91218650D01*
X116308866Y-91157019D01*
X116308850Y-91157011D01*
X116060524Y-91054152D01*
X115930708Y-91019368D01*
X115800891Y-90984584D01*
X115800885Y-90984583D01*
X115800880Y-90984582D01*
X115534398Y-90949500D01*
X115534397Y-90949500D01*
X115265603Y-90949500D01*
X115265602Y-90949500D01*
X114999119Y-90984582D01*
X114999112Y-90984583D01*
X114999109Y-90984584D01*
X114984935Y-90988382D01*
X114739475Y-91054152D01*
X114491149Y-91157011D01*
X114491133Y-91157019D01*
X114258354Y-91291416D01*
X114045111Y-91455042D01*
X114045104Y-91455048D01*
X113855048Y-91645104D01*
X113855042Y-91645111D01*
X113691416Y-91858354D01*
X113557019Y-92091133D01*
X113557011Y-92091149D01*
X113454152Y-92339475D01*
X113384585Y-92599106D01*
X113384582Y-92599119D01*
X113349500Y-92865602D01*
X113000500Y-92865602D01*
X113000500Y-85474428D01*
X114040000Y-85474428D01*
X114040000Y-85586000D01*
X114859670Y-85586000D01*
X114839925Y-85605745D01*
X114790556Y-85691255D01*
X114765000Y-85786630D01*
X114765000Y-85885370D01*
X114790556Y-85980745D01*
X114839925Y-86066255D01*
X114859670Y-86086000D01*
X114040000Y-86086000D01*
X114040000Y-86197571D01*
X114067085Y-86368584D01*
X114120591Y-86533257D01*
X114199195Y-86687524D01*
X114300967Y-86827602D01*
X114423397Y-86950032D01*
X114563475Y-87051804D01*
X114717744Y-87130408D01*
X114882415Y-87183914D01*
X114882414Y-87183914D01*
X114889999Y-87185115D01*
X114890000Y-87185114D01*
X114890000Y-86116330D01*
X114909745Y-86136075D01*
X114995255Y-86185444D01*
X115090630Y-86211000D01*
X115189370Y-86211000D01*
X115284745Y-86185444D01*
X115370255Y-86136075D01*
X115390000Y-86116330D01*
X115390000Y-87185115D01*
X115397584Y-87183914D01*
X115562255Y-87130408D01*
X115716524Y-87051804D01*
X115856598Y-86950035D01*
X115964199Y-86842434D01*
X116025522Y-86808949D01*
X116095214Y-86813933D01*
X116151148Y-86855804D01*
X116157418Y-86865016D01*
X116197288Y-86929656D01*
X116321344Y-87053712D01*
X116470666Y-87145814D01*
X116637203Y-87200999D01*
X116739991Y-87211500D01*
X117540008Y-87211499D01*
X117540016Y-87211498D01*
X117540019Y-87211498D01*
X117596302Y-87205748D01*
X117642797Y-87200999D01*
X117809334Y-87145814D01*
X117958656Y-87053712D01*
X118082712Y-86929656D01*
X118174814Y-86780334D01*
X118229999Y-86613797D01*
X118240500Y-86511009D01*
X118240499Y-85160992D01*
X118240337Y-85159411D01*
X118229999Y-85058203D01*
X118229998Y-85058200D01*
X118222789Y-85036445D01*
X118174814Y-84891666D01*
X118082712Y-84742344D01*
X117958656Y-84618288D01*
X117828003Y-84537701D01*
X117809336Y-84526187D01*
X117809331Y-84526185D01*
X117807862Y-84525698D01*
X117642797Y-84471001D01*
X117642795Y-84471000D01*
X117540010Y-84460500D01*
X116739998Y-84460500D01*
X116739980Y-84460501D01*
X116637203Y-84471000D01*
X116637200Y-84471001D01*
X116470668Y-84526185D01*
X116470663Y-84526187D01*
X116321342Y-84618289D01*
X116197289Y-84742342D01*
X116157420Y-84806981D01*
X116105472Y-84853705D01*
X116036509Y-84864928D01*
X115972427Y-84837084D01*
X115964200Y-84829565D01*
X115856602Y-84721967D01*
X115716524Y-84620195D01*
X115562257Y-84541591D01*
X115397589Y-84488087D01*
X115397581Y-84488085D01*
X115390000Y-84486884D01*
X115390000Y-85555670D01*
X115370255Y-85535925D01*
X115284745Y-85486556D01*
X115189370Y-85461000D01*
X115090630Y-85461000D01*
X114995255Y-85486556D01*
X114909745Y-85535925D01*
X114890000Y-85555670D01*
X114890000Y-84486884D01*
X114889999Y-84486884D01*
X114882418Y-84488085D01*
X114882410Y-84488087D01*
X114717742Y-84541591D01*
X114563475Y-84620195D01*
X114423397Y-84721967D01*
X114300967Y-84844397D01*
X114199195Y-84984475D01*
X114120591Y-85138742D01*
X114067085Y-85303415D01*
X114040000Y-85474428D01*
X113000500Y-85474428D01*
X113000500Y-83624500D01*
X113020185Y-83557461D01*
X113072989Y-83511706D01*
X113124500Y-83500500D01*
X122235893Y-83500500D01*
X122302932Y-83520185D01*
G37*
G04 #@! TD.AperFunction*
G04 #@! TA.AperFunction,Conductor*
G36*
X136233703Y-102865449D02*
G01*
X136252819Y-102886277D01*
X136268034Y-102907219D01*
X136412786Y-103051971D01*
X136578385Y-103172284D01*
X136578387Y-103172285D01*
X136578390Y-103172287D01*
X136634105Y-103200675D01*
X136671628Y-103219794D01*
X136722424Y-103267769D01*
X136739219Y-103335590D01*
X136716682Y-103401724D01*
X136671627Y-103440764D01*
X136660160Y-103446606D01*
X136660159Y-103446607D01*
X137289764Y-104076212D01*
X137247708Y-104087482D01*
X137122292Y-104159890D01*
X137019890Y-104262292D01*
X136947482Y-104387708D01*
X136936212Y-104429763D01*
X136264686Y-103758237D01*
X136264685Y-103758238D01*
X136252818Y-103774572D01*
X136197488Y-103817237D01*
X136127874Y-103823216D01*
X136066080Y-103790610D01*
X136031722Y-103729771D01*
X136028500Y-103701686D01*
X136028500Y-102959162D01*
X136048185Y-102892123D01*
X136100989Y-102846368D01*
X136170147Y-102836424D01*
X136233703Y-102865449D01*
G37*
G04 #@! TD.AperFunction*
G04 #@! TD*
M02*
