G04 #@! TF.GenerationSoftware,KiCad,Pcbnew,9.0.0*
G04 #@! TF.CreationDate,2025-04-09T20:43:05+09:00*
G04 #@! TF.ProjectId,2_wheels_mini_Motor_inverted_Pendulum,325f7768-6565-46c7-935f-6d696e695f4d,rev?*
G04 #@! TF.SameCoordinates,Original*
G04 #@! TF.FileFunction,Copper,L1,Top*
G04 #@! TF.FilePolarity,Positive*
%FSLAX46Y46*%
G04 Gerber Fmt 4.6, Leading zero omitted, Abs format (unit mm)*
G04 Created by KiCad (PCBNEW 9.0.0) date 2025-04-09 20:43:05*
%MOMM*%
%LPD*%
G01*
G04 APERTURE LIST*
G04 Aperture macros list*
%AMRoundRect*
0 Rectangle with rounded corners*
0 $1 Rounding radius*
0 $2 $3 $4 $5 $6 $7 $8 $9 X,Y pos of 4 corners*
0 Add a 4 corners polygon primitive as box body*
4,1,4,$2,$3,$4,$5,$6,$7,$8,$9,$2,$3,0*
0 Add four circle primitives for the rounded corners*
1,1,$1+$1,$2,$3*
1,1,$1+$1,$4,$5*
1,1,$1+$1,$6,$7*
1,1,$1+$1,$8,$9*
0 Add four rect primitives between the rounded corners*
20,1,$1+$1,$2,$3,$4,$5,0*
20,1,$1+$1,$4,$5,$6,$7,0*
20,1,$1+$1,$6,$7,$8,$9,0*
20,1,$1+$1,$8,$9,$2,$3,0*%
G04 Aperture macros list end*
G04 #@! TA.AperFunction,ComponentPad*
%ADD10O,1.600000X2.000000*%
G04 #@! TD*
G04 #@! TA.AperFunction,SMDPad,CuDef*
%ADD11RoundRect,0.237500X0.237500X-0.300000X0.237500X0.300000X-0.237500X0.300000X-0.237500X-0.300000X0*%
G04 #@! TD*
G04 #@! TA.AperFunction,ComponentPad*
%ADD12C,1.400000*%
G04 #@! TD*
G04 #@! TA.AperFunction,ComponentPad*
%ADD13O,1.400000X1.400000*%
G04 #@! TD*
G04 #@! TA.AperFunction,ComponentPad*
%ADD14O,2.000000X1.200000*%
G04 #@! TD*
G04 #@! TA.AperFunction,SMDPad,CuDef*
%ADD15RoundRect,0.237500X0.300000X0.237500X-0.300000X0.237500X-0.300000X-0.237500X0.300000X-0.237500X0*%
G04 #@! TD*
G04 #@! TA.AperFunction,ComponentPad*
%ADD16RoundRect,0.250000X-0.625000X0.350000X-0.625000X-0.350000X0.625000X-0.350000X0.625000X0.350000X0*%
G04 #@! TD*
G04 #@! TA.AperFunction,ComponentPad*
%ADD17O,1.750000X1.200000*%
G04 #@! TD*
G04 #@! TA.AperFunction,SMDPad,CuDef*
%ADD18RoundRect,0.237500X-0.300000X-0.237500X0.300000X-0.237500X0.300000X0.237500X-0.300000X0.237500X0*%
G04 #@! TD*
G04 #@! TA.AperFunction,ComponentPad*
%ADD19O,2.000000X1.600000*%
G04 #@! TD*
G04 #@! TA.AperFunction,ComponentPad*
%ADD20R,1.800000X1.800000*%
G04 #@! TD*
G04 #@! TA.AperFunction,ComponentPad*
%ADD21C,1.800000*%
G04 #@! TD*
G04 #@! TA.AperFunction,ComponentPad*
%ADD22RoundRect,0.250000X0.350000X0.625000X-0.350000X0.625000X-0.350000X-0.625000X0.350000X-0.625000X0*%
G04 #@! TD*
G04 #@! TA.AperFunction,ComponentPad*
%ADD23O,1.200000X1.750000*%
G04 #@! TD*
G04 #@! TA.AperFunction,ViaPad*
%ADD24C,0.800000*%
G04 #@! TD*
G04 #@! TA.AperFunction,ViaPad*
%ADD25C,1.200000*%
G04 #@! TD*
G04 #@! TA.AperFunction,ViaPad*
%ADD26C,0.900000*%
G04 #@! TD*
G04 #@! TA.AperFunction,ViaPad*
%ADD27C,0.600000*%
G04 #@! TD*
G04 #@! TA.AperFunction,Conductor*
%ADD28C,1.000000*%
G04 #@! TD*
G04 #@! TA.AperFunction,Conductor*
%ADD29C,0.500000*%
G04 #@! TD*
G04 #@! TA.AperFunction,Conductor*
%ADD30C,0.200000*%
G04 #@! TD*
G04 APERTURE END LIST*
D10*
G04 #@! TO.P,IC4,1,VCC*
G04 #@! TO.N,+3.3V*
X148636000Y-111204000D03*
G04 #@! TO.P,IC4,2,GND*
G04 #@! TO.N,GND*
X146096000Y-111204000D03*
G04 #@! TO.P,IC4,3,SCL*
G04 #@! TO.N,Net-(IC4-SCL)*
X143556000Y-111204000D03*
G04 #@! TO.P,IC4,4,SDA*
G04 #@! TO.N,Net-(IC2-GPIO8)*
X141016000Y-111204000D03*
G04 #@! TO.P,IC4,5,XDA*
G04 #@! TO.N,unconnected-(IC4-XDA-Pad5)*
X138476000Y-111204000D03*
G04 #@! TO.P,IC4,6,XCL*
G04 #@! TO.N,unconnected-(IC4-XCL-Pad6)*
X135936000Y-111204000D03*
G04 #@! TO.P,IC4,7,ADO*
G04 #@! TO.N,unconnected-(IC4-ADO-Pad7)*
X133396000Y-111204000D03*
G04 #@! TO.P,IC4,8,INT*
G04 #@! TO.N,unconnected-(IC4-INT-Pad8)*
X130856000Y-111204000D03*
G04 #@! TD*
D11*
G04 #@! TO.P,C2,1*
G04 #@! TO.N,+3.3V*
X145080000Y-91900000D03*
G04 #@! TO.P,C2,2*
G04 #@! TO.N,GND*
X145080000Y-90175000D03*
G04 #@! TD*
D12*
G04 #@! TO.P,R1,1*
G04 #@! TO.N,Net-(IC1-VI)*
X124760000Y-103965000D03*
D13*
G04 #@! TO.P,R1,2*
G04 #@! TO.N,Net-(IC2-GPIO0)*
X129840000Y-103965000D03*
G04 #@! TD*
D14*
G04 #@! TO.P,SW2,1,A*
G04 #@! TO.N,Net-(IC4-SCL)*
X157780000Y-84320000D03*
G04 #@! TO.P,SW2,2,B*
G04 #@! TO.N,Net-(IC2-GPIO9)*
X157780000Y-86820000D03*
G04 #@! TO.P,SW2,3,C*
G04 #@! TO.N,GND*
X157780000Y-89320000D03*
G04 #@! TD*
G04 #@! TO.P,SW1,1,A*
G04 #@! TO.N,unconnected-(SW1-A-Pad1)*
X125014000Y-89614000D03*
G04 #@! TO.P,SW1,2,B*
G04 #@! TO.N,Net-(CN1-Pin_1)*
X125014000Y-87114000D03*
G04 #@! TO.P,SW1,3,C*
G04 #@! TO.N,Net-(IC1-VI)*
X125014000Y-84614000D03*
G04 #@! TD*
D15*
G04 #@! TO.P,C5,1*
G04 #@! TO.N,+3.3V*
X148636000Y-107902000D03*
G04 #@! TO.P,C5,2*
G04 #@! TO.N,GND*
X146911000Y-107902000D03*
G04 #@! TD*
D16*
G04 #@! TO.P,CN2,1,Pin_1*
G04 #@! TO.N,Net-(CN2-Pin_1)*
X164892000Y-85836000D03*
D17*
G04 #@! TO.P,CN2,2,Pin_2*
G04 #@! TO.N,Net-(CN2-Pin_2)*
X164892000Y-87836000D03*
G04 #@! TD*
D12*
G04 #@! TO.P,R2,1*
G04 #@! TO.N,Net-(IC2-GPIO0)*
X129840000Y-106505000D03*
D13*
G04 #@! TO.P,R2,2*
G04 #@! TO.N,GND*
X124760000Y-106505000D03*
G04 #@! TD*
D12*
G04 #@! TO.P,R3,1*
G04 #@! TO.N,Net-(IC2-GPIO1)*
X156002000Y-104600000D03*
D13*
G04 #@! TO.P,R3,2*
G04 #@! TO.N,Net-(D1-A)*
X156002000Y-99520000D03*
G04 #@! TD*
D18*
G04 #@! TO.P,C4,1*
G04 #@! TO.N,+3.3V*
X152245000Y-84280000D03*
G04 #@! TO.P,C4,2*
G04 #@! TO.N,GND*
X153970000Y-84280000D03*
G04 #@! TD*
D19*
G04 #@! TO.P,IC2,1,GPIO5*
G04 #@! TO.N,Net-(IC2-GPIO5)*
X133650000Y-86820000D03*
G04 #@! TO.P,IC2,2,GPIO6*
G04 #@! TO.N,Net-(IC2-GPIO6)*
X133650000Y-89360000D03*
G04 #@! TO.P,IC2,3,GPIO7*
G04 #@! TO.N,Net-(IC2-GPIO7)*
X133650000Y-91900000D03*
G04 #@! TO.P,IC2,4,GPIO8*
G04 #@! TO.N,Net-(IC2-GPIO8)*
X133650000Y-94440000D03*
G04 #@! TO.P,IC2,5,GPIO9*
G04 #@! TO.N,Net-(IC2-GPIO9)*
X133650000Y-96980000D03*
G04 #@! TO.P,IC2,6,GPIO10*
G04 #@! TO.N,unconnected-(IC2-GPIO10-Pad6)*
X133650000Y-99520000D03*
G04 #@! TO.P,IC2,7,GPIO20*
G04 #@! TO.N,unconnected-(IC2-GPIO20-Pad7)*
X133650000Y-102060000D03*
G04 #@! TO.P,IC2,8,GPIO21*
G04 #@! TO.N,unconnected-(IC2-GPIO21-Pad8)*
X133650000Y-104600000D03*
G04 #@! TO.P,IC2,9,GPIO0*
G04 #@! TO.N,Net-(IC2-GPIO0)*
X148890000Y-104600000D03*
G04 #@! TO.P,IC2,10,GPIO1*
G04 #@! TO.N,Net-(IC2-GPIO1)*
X148890000Y-102060000D03*
G04 #@! TO.P,IC2,11,GPIO2*
G04 #@! TO.N,unconnected-(IC2-GPIO2-Pad11)*
X148890000Y-99520000D03*
G04 #@! TO.P,IC2,12,GPIO3*
G04 #@! TO.N,unconnected-(IC2-GPIO3-Pad12)*
X148890000Y-96980000D03*
G04 #@! TO.P,IC2,13,GPIO4*
G04 #@! TO.N,unconnected-(IC2-GPIO4-Pad13)*
X148890000Y-94440000D03*
G04 #@! TO.P,IC2,14,3.3V*
G04 #@! TO.N,+3.3V*
X148890000Y-91900000D03*
G04 #@! TO.P,IC2,15,GND*
G04 #@! TO.N,GND*
X148890000Y-89360000D03*
G04 #@! TO.P,IC2,16,5V*
G04 #@! TO.N,unconnected-(IC2-5V-Pad16)*
X148890000Y-86820000D03*
G04 #@! TD*
D20*
G04 #@! TO.P,D1,1,K*
G04 #@! TO.N,GND*
X159812000Y-95710000D03*
D21*
G04 #@! TO.P,D1,2,A*
G04 #@! TO.N,Net-(D1-A)*
X157272000Y-95710000D03*
G04 #@! TD*
D22*
G04 #@! TO.P,CN1,1,Pin_1*
G04 #@! TO.N,Net-(CN1-Pin_1)*
X117140000Y-85836000D03*
D23*
G04 #@! TO.P,CN1,2,Pin_2*
G04 #@! TO.N,GND*
X115140000Y-85836000D03*
G04 #@! TD*
D19*
G04 #@! TO.P,IC3,1,VM*
G04 #@! TO.N,+3.3V*
X152700000Y-86820000D03*
G04 #@! TO.P,IC3,2,NC*
G04 #@! TO.N,unconnected-(IC3-NC-Pad2)*
X152700000Y-89360000D03*
G04 #@! TO.P,IC3,3,GND*
G04 #@! TO.N,GND*
X152700000Y-91900000D03*
G04 #@! TO.P,IC3,4,AO1*
G04 #@! TO.N,Net-(CN2-Pin_1)*
X152700000Y-94440000D03*
G04 #@! TO.P,IC3,5,AO2*
G04 #@! TO.N,Net-(CN2-Pin_2)*
X152700000Y-96980000D03*
G04 #@! TO.P,IC3,6,BO2*
G04 #@! TO.N,unconnected-(IC3-BO2-Pad6)*
X152700000Y-99520000D03*
G04 #@! TO.P,IC3,7,BO1*
G04 #@! TO.N,unconnected-(IC3-BO1-Pad7)*
X152700000Y-102060000D03*
G04 #@! TO.P,IC3,8,GND*
G04 #@! TO.N,GND*
X152700000Y-104600000D03*
G04 #@! TO.P,IC3,9,GND*
X137460000Y-104600000D03*
G04 #@! TO.P,IC3,10,NC*
G04 #@! TO.N,unconnected-(IC3-NC-Pad10)*
X137460000Y-102060000D03*
G04 #@! TO.P,IC3,11,BIN2*
G04 #@! TO.N,unconnected-(IC3-BIN2-Pad11)*
X137460000Y-99520000D03*
G04 #@! TO.P,IC3,12,BIN1*
G04 #@! TO.N,unconnected-(IC3-BIN1-Pad12)*
X137460000Y-96980000D03*
G04 #@! TO.P,IC3,13,STBY*
G04 #@! TO.N,Net-(IC2-GPIO7)*
X137460000Y-94440000D03*
G04 #@! TO.P,IC3,14,AIN1*
G04 #@! TO.N,Net-(IC2-GPIO5)*
X137460000Y-91900000D03*
G04 #@! TO.P,IC3,15,AIN2*
G04 #@! TO.N,Net-(IC2-GPIO6)*
X137460000Y-89360000D03*
G04 #@! TO.P,IC3,16,NC*
G04 #@! TO.N,unconnected-(IC3-NC-Pad16)*
X137460000Y-86820000D03*
G04 #@! TD*
D24*
G04 #@! TO.N,GND*
X145080000Y-121110000D03*
X151430000Y-126190000D03*
X140000000Y-86820000D03*
X145080000Y-126190000D03*
X160574000Y-84280000D03*
X140000000Y-100790000D03*
X162860000Y-96980000D03*
X126030000Y-126190000D03*
X132380000Y-116030000D03*
X126284000Y-110188000D03*
X165400000Y-96980000D03*
X138730000Y-121110000D03*
X145842000Y-95964000D03*
X145080000Y-116284000D03*
X151684000Y-109934000D03*
X145842000Y-100790000D03*
X145588000Y-86820000D03*
X161082000Y-92408000D03*
X119172000Y-90122000D03*
X138730000Y-126190000D03*
X132380000Y-126190000D03*
X126030000Y-116030000D03*
X128062000Y-85804000D03*
X138730000Y-116030000D03*
X151430000Y-116030000D03*
X118918000Y-97742000D03*
X126030000Y-121110000D03*
X114854000Y-97742000D03*
X151430000Y-121110000D03*
X132380000Y-121110000D03*
D25*
G04 #@! TO.N,+3.3V*
X142540000Y-84280000D03*
D26*
X142540000Y-91900000D03*
D25*
X131364000Y-85804000D03*
D24*
X142540000Y-104600000D03*
D27*
G04 #@! TO.N,Net-(IC1-VI)*
X126500000Y-95500000D03*
D24*
G04 #@! TO.N,Net-(IC2-GPIO8)*
X141016000Y-106886000D03*
X135428000Y-106886000D03*
G04 #@! TO.N,Net-(IC2-GPIO9)*
X140000000Y-88344000D03*
X140000000Y-95710000D03*
G04 #@! TO.N,Net-(IC4-SCL)*
X155494000Y-89360000D03*
X144191000Y-93551000D03*
G04 #@! TD*
D28*
G04 #@! TO.N,+3.3V*
X131364000Y-85296000D02*
X132380000Y-84280000D01*
D29*
X148636000Y-107902000D02*
X148636000Y-106886000D01*
X145080000Y-91900000D02*
X148890000Y-91900000D01*
D28*
X132380000Y-84280000D02*
X142540000Y-84280000D01*
X150160000Y-84280000D02*
X152245000Y-84280000D01*
D29*
X145080000Y-91900000D02*
X142540000Y-91900000D01*
X148636000Y-107902000D02*
X148636000Y-111204000D01*
X144064000Y-106124000D02*
X147874000Y-106124000D01*
X152700000Y-85550000D02*
X152700000Y-86820000D01*
D28*
X131364000Y-85804000D02*
X131364000Y-85296000D01*
D29*
X148636000Y-106886000D02*
X147874000Y-106124000D01*
D28*
X142540000Y-84280000D02*
X150160000Y-84280000D01*
D29*
X142540000Y-104600000D02*
X144064000Y-106124000D01*
X152245000Y-84280000D02*
X152245000Y-85095000D01*
X152245000Y-85095000D02*
X152700000Y-85550000D01*
D28*
G04 #@! TO.N,Net-(CN1-Pin_1)*
X119966000Y-85836000D02*
X121244000Y-87114000D01*
X117140000Y-85836000D02*
X119966000Y-85836000D01*
X121244000Y-87114000D02*
X125014000Y-87114000D01*
D29*
G04 #@! TO.N,Net-(CN2-Pin_1)*
X154224000Y-94440000D02*
X154732000Y-93932000D01*
X163844000Y-85836000D02*
X164892000Y-85836000D01*
X152700000Y-94440000D02*
X154224000Y-94440000D01*
X160066000Y-90122000D02*
X160066000Y-88598000D01*
X162860000Y-86820000D02*
X163844000Y-85836000D01*
X161844000Y-86820000D02*
X162860000Y-86820000D01*
X154732000Y-93932000D02*
X154732000Y-91900000D01*
X154732000Y-91900000D02*
X155748000Y-90884000D01*
X159304000Y-90884000D02*
X160066000Y-90122000D01*
X155748000Y-90884000D02*
X159304000Y-90884000D01*
X160066000Y-88598000D02*
X161844000Y-86820000D01*
G04 #@! TO.N,Net-(CN2-Pin_2)*
X154224000Y-96980000D02*
X152700000Y-96980000D01*
X161082000Y-88598000D02*
X161082000Y-90376000D01*
X156256000Y-91646000D02*
X155494000Y-92408000D01*
X154732000Y-95456000D02*
X154732000Y-96472000D01*
X155494000Y-92408000D02*
X155494000Y-94694000D01*
X159812000Y-91646000D02*
X156256000Y-91646000D01*
X161844000Y-87836000D02*
X161082000Y-88598000D01*
X154732000Y-96472000D02*
X154224000Y-96980000D01*
X155494000Y-94694000D02*
X154732000Y-95456000D01*
X164892000Y-87836000D02*
X161844000Y-87836000D01*
X161082000Y-90376000D02*
X159812000Y-91646000D01*
D30*
G04 #@! TO.N,Net-(IC1-VI)*
X124760000Y-103965000D02*
X126500000Y-102225000D01*
X126500000Y-102225000D02*
X126500000Y-95500000D01*
G04 #@! TO.N,Net-(IC2-GPIO8)*
X135428000Y-106886000D02*
X141016000Y-106886000D01*
G04 #@! TO.N,Net-(IC2-GPIO0)*
X146350000Y-103330000D02*
X147620000Y-104600000D01*
X130983000Y-103965000D02*
X129840000Y-103965000D01*
X147620000Y-104600000D02*
X148890000Y-104600000D01*
X131618000Y-103330000D02*
X130983000Y-103965000D01*
X131618000Y-103330000D02*
X146350000Y-103330000D01*
G04 #@! TO.N,Net-(IC2-GPIO1)*
X151684000Y-103330000D02*
X154351000Y-103330000D01*
X154478000Y-103457000D02*
X154478000Y-104346000D01*
X150414000Y-102060000D02*
X151684000Y-103330000D01*
X154732000Y-104600000D02*
X156002000Y-104600000D01*
X148890000Y-102060000D02*
X150414000Y-102060000D01*
D29*
X148890000Y-102060000D02*
X149144000Y-102060000D01*
D30*
X154351000Y-103330000D02*
X154478000Y-103457000D01*
X154478000Y-104346000D02*
X154732000Y-104600000D01*
G04 #@! TO.N,Net-(IC2-GPIO7)*
X134920000Y-91900000D02*
X135428000Y-92408000D01*
X135428000Y-93424000D02*
X136444000Y-94440000D01*
X135428000Y-92408000D02*
X135428000Y-93424000D01*
X136444000Y-94440000D02*
X137460000Y-94440000D01*
X133650000Y-91900000D02*
X134920000Y-91900000D01*
G04 #@! TO.N,Net-(IC2-GPIO6)*
X137460000Y-89360000D02*
X133650000Y-89360000D01*
G04 #@! TO.N,Net-(IC2-GPIO9)*
X134920000Y-96980000D02*
X135174000Y-96726000D01*
X135174000Y-96218000D02*
X135682000Y-95710000D01*
X157272000Y-86820000D02*
X157780000Y-86820000D01*
X135174000Y-96726000D02*
X135174000Y-96218000D01*
X135682000Y-95710000D02*
X140000000Y-95710000D01*
X140254000Y-88090000D02*
X156002000Y-88090000D01*
X140000000Y-88344000D02*
X140254000Y-88090000D01*
X156002000Y-88090000D02*
X157272000Y-86820000D01*
X133650000Y-96980000D02*
X134920000Y-96980000D01*
G04 #@! TO.N,Net-(IC4-SCL)*
X144191000Y-93551000D02*
X146223000Y-93551000D01*
X146604000Y-93170000D02*
X150287000Y-93170000D01*
X150795000Y-90630000D02*
X154224000Y-90630000D01*
X150541000Y-90884000D02*
X150795000Y-90630000D01*
X144191000Y-93551000D02*
X144318000Y-93424000D01*
X150287000Y-93170000D02*
X150541000Y-92916000D01*
X146223000Y-93551000D02*
X146604000Y-93170000D01*
X154224000Y-90630000D02*
X155494000Y-89360000D01*
X150541000Y-92916000D02*
X150541000Y-90884000D01*
G04 #@! TD*
G04 #@! TA.AperFunction,Conductor*
G04 #@! TO.N,GND*
G36*
X123959725Y-83520185D02*
G01*
X124005480Y-83572989D01*
X124015424Y-83642147D01*
X123986399Y-83705703D01*
X123965573Y-83724816D01*
X123897072Y-83774586D01*
X123897070Y-83774588D01*
X123897069Y-83774588D01*
X123774588Y-83897069D01*
X123774588Y-83897070D01*
X123774586Y-83897072D01*
X123730859Y-83957256D01*
X123672768Y-84037211D01*
X123594128Y-84191552D01*
X123540597Y-84356302D01*
X123532629Y-84406611D01*
X123513500Y-84527389D01*
X123513500Y-84700611D01*
X123519026Y-84735500D01*
X123537747Y-84853705D01*
X123540598Y-84871701D01*
X123594127Y-85036445D01*
X123672768Y-85190788D01*
X123774586Y-85330928D01*
X123897072Y-85453414D01*
X124037212Y-85555232D01*
X124191555Y-85633873D01*
X124356299Y-85687402D01*
X124527389Y-85714500D01*
X124527390Y-85714500D01*
X125500610Y-85714500D01*
X125500611Y-85714500D01*
X125671701Y-85687402D01*
X125836445Y-85633873D01*
X125990788Y-85555232D01*
X126130928Y-85453414D01*
X126253414Y-85330928D01*
X126355232Y-85190788D01*
X126433873Y-85036445D01*
X126487402Y-84871701D01*
X126514500Y-84700611D01*
X126514500Y-84527389D01*
X126487402Y-84356299D01*
X126433873Y-84191555D01*
X126355232Y-84037212D01*
X126253414Y-83897072D01*
X126130928Y-83774586D01*
X126062427Y-83724817D01*
X126019763Y-83669488D01*
X126013784Y-83599874D01*
X126046390Y-83538079D01*
X126107229Y-83503722D01*
X126135314Y-83500500D01*
X131445217Y-83500500D01*
X131512256Y-83520185D01*
X131558011Y-83572989D01*
X131567955Y-83642147D01*
X131538930Y-83705703D01*
X131532898Y-83712181D01*
X130726221Y-84518858D01*
X130726218Y-84518861D01*
X130678438Y-84566641D01*
X130586859Y-84658219D01*
X130477371Y-84822079D01*
X130477364Y-84822092D01*
X130448382Y-84892062D01*
X130448370Y-84892093D01*
X130447566Y-84894035D01*
X130401949Y-85004164D01*
X130398906Y-85019464D01*
X130396940Y-85029342D01*
X130396939Y-85029348D01*
X130363500Y-85197456D01*
X130363500Y-85313763D01*
X130349984Y-85370059D01*
X130344128Y-85381550D01*
X130290597Y-85546302D01*
X130263500Y-85717389D01*
X130263500Y-85890610D01*
X130287255Y-86040598D01*
X130290598Y-86061701D01*
X130344127Y-86226445D01*
X130422768Y-86380788D01*
X130524586Y-86520928D01*
X130647072Y-86643414D01*
X130787212Y-86745232D01*
X130941555Y-86823873D01*
X131106299Y-86877402D01*
X131277389Y-86904500D01*
X131277390Y-86904500D01*
X131450610Y-86904500D01*
X131450611Y-86904500D01*
X131621701Y-86877402D01*
X131786445Y-86823873D01*
X131940788Y-86745232D01*
X131952611Y-86736641D01*
X132018416Y-86713159D01*
X132086471Y-86728982D01*
X132135168Y-86779086D01*
X132149500Y-86836957D01*
X132149500Y-86922351D01*
X132181522Y-87124534D01*
X132244781Y-87319223D01*
X132337715Y-87501613D01*
X132458028Y-87667213D01*
X132602786Y-87811971D01*
X132747981Y-87917459D01*
X132768390Y-87932287D01*
X132859840Y-87978883D01*
X132861080Y-87979515D01*
X132911876Y-88027490D01*
X132928671Y-88095311D01*
X132906134Y-88161446D01*
X132861080Y-88200485D01*
X132768386Y-88247715D01*
X132602786Y-88368028D01*
X132458028Y-88512786D01*
X132337715Y-88678386D01*
X132244781Y-88860776D01*
X132181522Y-89055465D01*
X132149500Y-89257648D01*
X132149500Y-89462351D01*
X132181522Y-89664534D01*
X132244781Y-89859223D01*
X132305001Y-89977409D01*
X132335082Y-90036447D01*
X132337715Y-90041613D01*
X132458028Y-90207213D01*
X132602786Y-90351971D01*
X132703304Y-90425000D01*
X132768390Y-90472287D01*
X132849059Y-90513390D01*
X132861080Y-90519515D01*
X132911876Y-90567490D01*
X132928671Y-90635311D01*
X132906134Y-90701446D01*
X132861080Y-90740485D01*
X132768386Y-90787715D01*
X132602786Y-90908028D01*
X132458028Y-91052786D01*
X132337715Y-91218386D01*
X132244781Y-91400776D01*
X132181522Y-91595465D01*
X132149500Y-91797648D01*
X132149500Y-92002351D01*
X132181522Y-92204534D01*
X132244781Y-92399223D01*
X132270654Y-92450000D01*
X132337582Y-92581353D01*
X132337715Y-92581613D01*
X132458028Y-92747213D01*
X132602786Y-92891971D01*
X132744673Y-92995056D01*
X132768390Y-93012287D01*
X132824105Y-93040675D01*
X132861080Y-93059515D01*
X132911876Y-93107490D01*
X132928671Y-93175311D01*
X132906134Y-93241446D01*
X132861080Y-93280485D01*
X132768386Y-93327715D01*
X132602786Y-93448028D01*
X132458028Y-93592786D01*
X132337715Y-93758386D01*
X132244781Y-93940776D01*
X132181522Y-94135465D01*
X132153958Y-94309500D01*
X132149500Y-94337648D01*
X132149500Y-94542352D01*
X132149913Y-94544957D01*
X132181522Y-94744534D01*
X132244781Y-94939223D01*
X132308691Y-95064653D01*
X132337314Y-95120827D01*
X132337715Y-95121613D01*
X132458028Y-95287213D01*
X132602786Y-95431971D01*
X132746394Y-95536306D01*
X132768390Y-95552287D01*
X132841519Y-95589548D01*
X132861080Y-95599515D01*
X132911876Y-95647490D01*
X132928671Y-95715311D01*
X132906134Y-95781446D01*
X132861080Y-95820485D01*
X132768386Y-95867715D01*
X132602786Y-95988028D01*
X132458028Y-96132786D01*
X132337715Y-96298386D01*
X132244781Y-96480776D01*
X132181522Y-96675465D01*
X132149500Y-96877648D01*
X132149500Y-97082352D01*
X132152865Y-97103596D01*
X132181522Y-97284534D01*
X132244781Y-97479223D01*
X132294848Y-97577483D01*
X132337710Y-97661605D01*
X132337715Y-97661613D01*
X132458028Y-97827213D01*
X132602786Y-97971971D01*
X132757749Y-98084556D01*
X132768390Y-98092287D01*
X132859840Y-98138883D01*
X132861080Y-98139515D01*
X132911876Y-98187490D01*
X132928671Y-98255311D01*
X132906134Y-98321446D01*
X132861080Y-98360485D01*
X132768386Y-98407715D01*
X132602786Y-98528028D01*
X132458028Y-98672786D01*
X132337715Y-98838386D01*
X132244781Y-99020776D01*
X132181522Y-99215465D01*
X132149500Y-99417648D01*
X132149500Y-99622351D01*
X132181522Y-99824534D01*
X132244781Y-100019223D01*
X132337715Y-100201613D01*
X132458028Y-100367213D01*
X132602786Y-100511971D01*
X132757749Y-100624556D01*
X132768390Y-100632287D01*
X132831869Y-100664631D01*
X132861080Y-100679515D01*
X132911876Y-100727490D01*
X132928671Y-100795311D01*
X132906134Y-100861446D01*
X132861080Y-100900485D01*
X132768386Y-100947715D01*
X132602786Y-101068028D01*
X132458028Y-101212786D01*
X132337715Y-101378386D01*
X132244781Y-101560776D01*
X132181522Y-101755465D01*
X132149500Y-101957648D01*
X132149500Y-102162351D01*
X132181522Y-102364534D01*
X132215808Y-102470052D01*
X132244780Y-102559219D01*
X132244781Y-102559222D01*
X132246286Y-102563852D01*
X132244964Y-102564281D01*
X132251764Y-102627514D01*
X132220491Y-102689994D01*
X132160403Y-102725648D01*
X132129734Y-102729500D01*
X131704670Y-102729500D01*
X131704654Y-102729499D01*
X131697058Y-102729499D01*
X131538943Y-102729499D01*
X131462579Y-102749961D01*
X131386214Y-102770423D01*
X131386209Y-102770426D01*
X131249290Y-102849475D01*
X131249282Y-102849481D01*
X130923444Y-103175319D01*
X130862121Y-103208804D01*
X130792429Y-103203820D01*
X130748082Y-103175319D01*
X130622075Y-103049312D01*
X130622073Y-103049310D01*
X130469199Y-102938240D01*
X130408317Y-102907219D01*
X130300836Y-102852454D01*
X130121118Y-102794059D01*
X129934486Y-102764500D01*
X129934481Y-102764500D01*
X129745519Y-102764500D01*
X129745514Y-102764500D01*
X129558881Y-102794059D01*
X129379163Y-102852454D01*
X129210800Y-102938240D01*
X129169351Y-102968355D01*
X129057927Y-103049310D01*
X129057925Y-103049312D01*
X129057924Y-103049312D01*
X128924312Y-103182924D01*
X128924312Y-103182925D01*
X128924310Y-103182927D01*
X128905509Y-103208804D01*
X128813240Y-103335800D01*
X128727454Y-103504163D01*
X128669059Y-103683881D01*
X128639500Y-103870513D01*
X128639500Y-104059486D01*
X128669059Y-104246118D01*
X128727454Y-104425836D01*
X128787950Y-104544565D01*
X128813240Y-104594199D01*
X128924310Y-104747073D01*
X129057927Y-104880690D01*
X129210801Y-104991760D01*
X129279061Y-105026540D01*
X129379163Y-105077545D01*
X129379165Y-105077545D01*
X129379168Y-105077547D01*
X129468734Y-105106649D01*
X129500803Y-105117069D01*
X129558478Y-105156507D01*
X129585676Y-105220866D01*
X129573761Y-105289712D01*
X129526516Y-105341188D01*
X129500803Y-105352931D01*
X129379163Y-105392454D01*
X129210800Y-105478240D01*
X129123579Y-105541610D01*
X129057927Y-105589310D01*
X129057925Y-105589312D01*
X129057924Y-105589312D01*
X128924312Y-105722924D01*
X128924312Y-105722925D01*
X128924310Y-105722927D01*
X128902177Y-105753391D01*
X128813240Y-105875800D01*
X128727454Y-106044163D01*
X128669059Y-106223881D01*
X128639500Y-106410513D01*
X128639500Y-106599486D01*
X128669059Y-106786118D01*
X128727454Y-106965836D01*
X128799702Y-107107629D01*
X128813240Y-107134199D01*
X128924310Y-107287073D01*
X129057927Y-107420690D01*
X129210801Y-107531760D01*
X129290347Y-107572290D01*
X129379163Y-107617545D01*
X129379165Y-107617545D01*
X129379168Y-107617547D01*
X129475497Y-107648846D01*
X129558881Y-107675940D01*
X129745514Y-107705500D01*
X129745519Y-107705500D01*
X129934486Y-107705500D01*
X130121118Y-107675940D01*
X130134213Y-107671685D01*
X130300832Y-107617547D01*
X130469199Y-107531760D01*
X130622073Y-107420690D01*
X130755690Y-107287073D01*
X130866760Y-107134199D01*
X130952547Y-106965832D01*
X131007305Y-106797304D01*
X134527500Y-106797304D01*
X134527500Y-106974695D01*
X134562103Y-107148658D01*
X134562106Y-107148667D01*
X134629983Y-107312540D01*
X134629990Y-107312553D01*
X134728535Y-107460034D01*
X134728538Y-107460038D01*
X134853961Y-107585461D01*
X134853965Y-107585464D01*
X135001446Y-107684009D01*
X135001459Y-107684016D01*
X135099172Y-107724489D01*
X135165334Y-107751894D01*
X135165336Y-107751894D01*
X135165341Y-107751896D01*
X135339304Y-107786499D01*
X135339307Y-107786500D01*
X135339309Y-107786500D01*
X135516693Y-107786500D01*
X135516694Y-107786499D01*
X135574682Y-107774964D01*
X135690658Y-107751896D01*
X135690661Y-107751894D01*
X135690666Y-107751894D01*
X135854547Y-107684013D01*
X136002035Y-107585464D01*
X136064681Y-107522817D01*
X136126002Y-107489334D01*
X136152361Y-107486500D01*
X140291639Y-107486500D01*
X140358678Y-107506185D01*
X140379315Y-107522814D01*
X140441962Y-107585461D01*
X140441966Y-107585465D01*
X140589446Y-107684009D01*
X140589459Y-107684016D01*
X140687172Y-107724489D01*
X140753334Y-107751894D01*
X140753336Y-107751894D01*
X140753341Y-107751896D01*
X140927304Y-107786499D01*
X140927307Y-107786500D01*
X140927309Y-107786500D01*
X141104693Y-107786500D01*
X141104694Y-107786499D01*
X141162682Y-107774964D01*
X141278658Y-107751896D01*
X141278661Y-107751894D01*
X141278666Y-107751894D01*
X141442547Y-107684013D01*
X141590035Y-107585464D01*
X141715464Y-107460035D01*
X141814013Y-107312547D01*
X141881894Y-107148666D01*
X141884824Y-107133940D01*
X141916499Y-106974695D01*
X141916500Y-106974693D01*
X141916500Y-106797306D01*
X141916499Y-106797304D01*
X141881896Y-106623341D01*
X141881893Y-106623332D01*
X141873229Y-106602416D01*
X141843444Y-106530506D01*
X141814016Y-106459459D01*
X141814009Y-106459446D01*
X141715464Y-106311965D01*
X141715461Y-106311961D01*
X141590038Y-106186538D01*
X141590034Y-106186535D01*
X141442553Y-106087990D01*
X141442540Y-106087983D01*
X141278667Y-106020106D01*
X141278658Y-106020103D01*
X141104694Y-105985500D01*
X141104691Y-105985500D01*
X140927309Y-105985500D01*
X140927306Y-105985500D01*
X140753341Y-106020103D01*
X140753332Y-106020106D01*
X140589459Y-106087983D01*
X140589446Y-106087990D01*
X140441966Y-106186534D01*
X140410643Y-106217857D01*
X140379318Y-106249182D01*
X140317998Y-106282666D01*
X140291639Y-106285500D01*
X136152361Y-106285500D01*
X136085322Y-106265815D01*
X136064684Y-106249185D01*
X136002035Y-106186536D01*
X136002034Y-106186535D01*
X136002033Y-106186534D01*
X135854553Y-106087990D01*
X135854540Y-106087983D01*
X135690667Y-106020106D01*
X135690658Y-106020103D01*
X135516694Y-105985500D01*
X135516691Y-105985500D01*
X135339309Y-105985500D01*
X135339306Y-105985500D01*
X135165341Y-106020103D01*
X135165332Y-106020106D01*
X135001459Y-106087983D01*
X135001446Y-106087990D01*
X134853965Y-106186535D01*
X134853961Y-106186538D01*
X134728538Y-106311961D01*
X134728535Y-106311965D01*
X134629990Y-106459446D01*
X134629983Y-106459459D01*
X134562106Y-106623332D01*
X134562103Y-106623341D01*
X134527500Y-106797304D01*
X131007305Y-106797304D01*
X131010940Y-106786118D01*
X131022067Y-106715863D01*
X131040500Y-106599486D01*
X131040500Y-106410513D01*
X131010940Y-106223881D01*
X130966783Y-106087983D01*
X130952547Y-106044168D01*
X130952545Y-106044165D01*
X130952545Y-106044163D01*
X130891947Y-105925233D01*
X130866760Y-105875801D01*
X130755690Y-105722927D01*
X130622073Y-105589310D01*
X130469199Y-105478240D01*
X130408317Y-105447219D01*
X130300836Y-105392454D01*
X130181917Y-105353815D01*
X130179195Y-105352930D01*
X130121521Y-105313493D01*
X130094323Y-105249134D01*
X130106238Y-105180288D01*
X130153482Y-105128812D01*
X130179194Y-105117069D01*
X130300832Y-105077547D01*
X130469199Y-104991760D01*
X130622073Y-104880690D01*
X130755690Y-104747073D01*
X130850474Y-104616615D01*
X130905805Y-104573950D01*
X130950792Y-104565501D01*
X131062054Y-104565501D01*
X131062057Y-104565501D01*
X131214785Y-104524577D01*
X131270021Y-104492686D01*
X131351716Y-104445520D01*
X131463520Y-104333716D01*
X131463520Y-104333714D01*
X131473721Y-104323514D01*
X131473724Y-104323509D01*
X131830418Y-103966817D01*
X131857350Y-103952111D01*
X131883163Y-103935523D01*
X131889363Y-103934631D01*
X131891740Y-103933334D01*
X131918098Y-103930500D01*
X132129734Y-103930500D01*
X132196773Y-103950185D01*
X132242528Y-104002989D01*
X132252472Y-104072147D01*
X132245919Y-104096029D01*
X132246286Y-104096148D01*
X132244781Y-104100777D01*
X132244780Y-104100781D01*
X132230800Y-104143807D01*
X132181522Y-104295465D01*
X132149500Y-104497648D01*
X132149500Y-104702351D01*
X132181522Y-104904534D01*
X132244781Y-105099223D01*
X132286220Y-105180550D01*
X132327357Y-105261286D01*
X132337715Y-105281613D01*
X132458028Y-105447213D01*
X132602786Y-105591971D01*
X132757749Y-105704556D01*
X132768390Y-105712287D01*
X132883503Y-105770940D01*
X132950776Y-105805218D01*
X132950778Y-105805218D01*
X132950781Y-105805220D01*
X133055137Y-105839127D01*
X133145465Y-105868477D01*
X133191707Y-105875801D01*
X133347648Y-105900500D01*
X133347649Y-105900500D01*
X133952351Y-105900500D01*
X133952352Y-105900500D01*
X134154534Y-105868477D01*
X134349219Y-105805220D01*
X134531610Y-105712287D01*
X134672305Y-105610067D01*
X134672307Y-105610066D01*
X134697212Y-105591971D01*
X134697210Y-105591971D01*
X134697219Y-105591966D01*
X134841966Y-105447219D01*
X134841968Y-105447215D01*
X134841971Y-105447213D01*
X134895526Y-105373500D01*
X134962287Y-105281610D01*
X135055220Y-105099219D01*
X135118477Y-104904534D01*
X135150500Y-104702352D01*
X135150500Y-104497648D01*
X135132550Y-104384315D01*
X135118477Y-104295465D01*
X135096822Y-104228820D01*
X135055220Y-104100781D01*
X135055218Y-104100777D01*
X135053714Y-104096148D01*
X135055035Y-104095718D01*
X135048236Y-104032486D01*
X135079509Y-103970006D01*
X135139597Y-103934352D01*
X135170266Y-103930500D01*
X135940276Y-103930500D01*
X136007315Y-103950185D01*
X136053070Y-104002989D01*
X136063014Y-104072147D01*
X136056408Y-104096229D01*
X136056749Y-104096340D01*
X135992009Y-104295582D01*
X135960000Y-104497682D01*
X135960000Y-104702317D01*
X135992009Y-104904417D01*
X136055244Y-105099031D01*
X136148142Y-105281352D01*
X136264684Y-105441760D01*
X136264686Y-105441761D01*
X136936212Y-104770234D01*
X136947482Y-104812292D01*
X137019890Y-104937708D01*
X137122292Y-105040110D01*
X137247708Y-105112518D01*
X137289764Y-105123787D01*
X136660159Y-105753391D01*
X136760965Y-105804753D01*
X136760972Y-105804756D01*
X136955582Y-105867990D01*
X137157683Y-105900000D01*
X137762317Y-105900000D01*
X137964417Y-105867990D01*
X138159031Y-105804755D01*
X138259838Y-105753390D01*
X137630235Y-105123787D01*
X137672292Y-105112518D01*
X137797708Y-105040110D01*
X137900110Y-104937708D01*
X137972518Y-104812292D01*
X137983787Y-104770236D01*
X138655312Y-105441761D01*
X138655312Y-105441760D01*
X138771859Y-105281349D01*
X138864755Y-105099031D01*
X138927990Y-104904417D01*
X138960000Y-104702317D01*
X138960000Y-104497682D01*
X138927990Y-104295582D01*
X138863251Y-104096340D01*
X138864512Y-104095930D01*
X138857697Y-104032470D01*
X138888978Y-103969994D01*
X138949071Y-103934348D01*
X138979724Y-103930500D01*
X141672335Y-103930500D01*
X141739374Y-103950185D01*
X141785129Y-104002989D01*
X141795073Y-104072147D01*
X141775437Y-104123391D01*
X141741990Y-104173446D01*
X141741983Y-104173459D01*
X141674106Y-104337332D01*
X141674103Y-104337341D01*
X141639500Y-104511304D01*
X141639500Y-104688695D01*
X141674103Y-104862658D01*
X141674106Y-104862667D01*
X141741983Y-105026540D01*
X141741990Y-105026553D01*
X141840535Y-105174034D01*
X141840538Y-105174038D01*
X141965961Y-105299461D01*
X141965965Y-105299464D01*
X142113446Y-105398009D01*
X142113459Y-105398016D01*
X142190106Y-105429763D01*
X142277334Y-105465894D01*
X142324318Y-105475239D01*
X142386227Y-105507622D01*
X142387807Y-105509175D01*
X142966616Y-106087983D01*
X143481048Y-106602415D01*
X143481049Y-106602416D01*
X143545721Y-106667088D01*
X143585585Y-106706952D01*
X143708498Y-106789080D01*
X143708511Y-106789087D01*
X143845082Y-106845656D01*
X143845087Y-106845658D01*
X143845091Y-106845658D01*
X143845092Y-106845659D01*
X143990079Y-106874500D01*
X143990082Y-106874500D01*
X146058655Y-106874500D01*
X146125694Y-106894185D01*
X146171449Y-106946989D01*
X146181393Y-107016147D01*
X146152368Y-107079703D01*
X146146336Y-107086181D01*
X146028555Y-107203961D01*
X146028552Y-107203965D01*
X145938051Y-107350688D01*
X145938046Y-107350699D01*
X145883819Y-107514347D01*
X145873500Y-107615345D01*
X145873500Y-107652000D01*
X146787000Y-107652000D01*
X146854039Y-107671685D01*
X146899794Y-107724489D01*
X146911000Y-107776000D01*
X146911000Y-107902000D01*
X147037000Y-107902000D01*
X147104039Y-107921685D01*
X147149794Y-107974489D01*
X147161000Y-108026000D01*
X147161000Y-108876999D01*
X147260140Y-108876999D01*
X147260154Y-108876998D01*
X147361152Y-108866680D01*
X147524800Y-108812453D01*
X147524811Y-108812448D01*
X147671537Y-108721945D01*
X147673813Y-108719670D01*
X147675762Y-108718605D01*
X147677206Y-108717464D01*
X147677400Y-108717710D01*
X147735134Y-108686181D01*
X147804826Y-108691160D01*
X147860762Y-108733028D01*
X147885183Y-108798491D01*
X147885500Y-108807345D01*
X147885500Y-109878582D01*
X147865815Y-109945621D01*
X147834385Y-109978900D01*
X147788787Y-110012028D01*
X147788782Y-110012032D01*
X147644028Y-110156786D01*
X147523713Y-110322388D01*
X147476203Y-110415630D01*
X147428228Y-110466426D01*
X147360407Y-110483220D01*
X147294272Y-110460682D01*
X147255234Y-110415628D01*
X147249390Y-110404160D01*
X146619786Y-111033763D01*
X146608518Y-110991708D01*
X146536110Y-110866292D01*
X146433708Y-110763890D01*
X146308292Y-110691482D01*
X146266235Y-110680212D01*
X146937761Y-110008686D01*
X146937760Y-110008684D01*
X146777352Y-109892142D01*
X146595031Y-109799244D01*
X146400417Y-109736009D01*
X146198317Y-109704000D01*
X145993683Y-109704000D01*
X145791582Y-109736009D01*
X145596968Y-109799244D01*
X145414649Y-109892141D01*
X145414640Y-109892147D01*
X145254238Y-110008685D01*
X145254237Y-110008686D01*
X145925764Y-110680212D01*
X145883708Y-110691482D01*
X145758292Y-110763890D01*
X145655890Y-110866292D01*
X145583482Y-110991708D01*
X145572212Y-111033764D01*
X144942607Y-110404159D01*
X144942606Y-110404160D01*
X144936764Y-110415627D01*
X144888790Y-110466423D01*
X144820969Y-110483219D01*
X144754834Y-110460682D01*
X144715794Y-110415628D01*
X144668287Y-110322390D01*
X144668285Y-110322387D01*
X144668284Y-110322385D01*
X144547971Y-110156786D01*
X144403213Y-110012028D01*
X144237613Y-109891715D01*
X144237612Y-109891714D01*
X144237610Y-109891713D01*
X144180653Y-109862691D01*
X144055223Y-109798781D01*
X143860534Y-109735522D01*
X143685995Y-109707878D01*
X143658352Y-109703500D01*
X143453648Y-109703500D01*
X143429329Y-109707351D01*
X143251465Y-109735522D01*
X143056776Y-109798781D01*
X142874386Y-109891715D01*
X142708786Y-110012028D01*
X142564028Y-110156786D01*
X142443715Y-110322386D01*
X142396485Y-110415080D01*
X142348510Y-110465876D01*
X142280689Y-110482671D01*
X142214554Y-110460134D01*
X142175515Y-110415080D01*
X142169950Y-110404159D01*
X142128287Y-110322390D01*
X142120556Y-110311749D01*
X142007971Y-110156786D01*
X141863213Y-110012028D01*
X141697613Y-109891715D01*
X141697612Y-109891714D01*
X141697610Y-109891713D01*
X141640653Y-109862691D01*
X141515223Y-109798781D01*
X141320534Y-109735522D01*
X141145995Y-109707878D01*
X141118352Y-109703500D01*
X140913648Y-109703500D01*
X140889329Y-109707351D01*
X140711465Y-109735522D01*
X140516776Y-109798781D01*
X140334386Y-109891715D01*
X140168786Y-110012028D01*
X140024028Y-110156786D01*
X139903715Y-110322386D01*
X139856485Y-110415080D01*
X139808510Y-110465876D01*
X139740689Y-110482671D01*
X139674554Y-110460134D01*
X139635515Y-110415080D01*
X139629950Y-110404159D01*
X139588287Y-110322390D01*
X139580556Y-110311749D01*
X139467971Y-110156786D01*
X139323213Y-110012028D01*
X139157613Y-109891715D01*
X139157612Y-109891714D01*
X139157610Y-109891713D01*
X139100653Y-109862691D01*
X138975223Y-109798781D01*
X138780534Y-109735522D01*
X138605995Y-109707878D01*
X138578352Y-109703500D01*
X138373648Y-109703500D01*
X138349329Y-109707351D01*
X138171465Y-109735522D01*
X137976776Y-109798781D01*
X137794386Y-109891715D01*
X137628786Y-110012028D01*
X137484028Y-110156786D01*
X137363715Y-110322386D01*
X137316485Y-110415080D01*
X137268510Y-110465876D01*
X137200689Y-110482671D01*
X137134554Y-110460134D01*
X137095515Y-110415080D01*
X137089950Y-110404159D01*
X137048287Y-110322390D01*
X137040556Y-110311749D01*
X136927971Y-110156786D01*
X136783213Y-110012028D01*
X136617613Y-109891715D01*
X136617612Y-109891714D01*
X136617610Y-109891713D01*
X136560653Y-109862691D01*
X136435223Y-109798781D01*
X136240534Y-109735522D01*
X136065995Y-109707878D01*
X136038352Y-109703500D01*
X135833648Y-109703500D01*
X135809329Y-109707351D01*
X135631465Y-109735522D01*
X135436776Y-109798781D01*
X135254386Y-109891715D01*
X135088786Y-110012028D01*
X134944028Y-110156786D01*
X134823715Y-110322386D01*
X134776485Y-110415080D01*
X134728510Y-110465876D01*
X134660689Y-110482671D01*
X134594554Y-110460134D01*
X134555515Y-110415080D01*
X134549950Y-110404159D01*
X134508287Y-110322390D01*
X134500556Y-110311749D01*
X134387971Y-110156786D01*
X134243213Y-110012028D01*
X134077613Y-109891715D01*
X134077612Y-109891714D01*
X134077610Y-109891713D01*
X134020653Y-109862691D01*
X133895223Y-109798781D01*
X133700534Y-109735522D01*
X133525995Y-109707878D01*
X133498352Y-109703500D01*
X133293648Y-109703500D01*
X133269329Y-109707351D01*
X133091465Y-109735522D01*
X132896776Y-109798781D01*
X132714386Y-109891715D01*
X132548786Y-110012028D01*
X132404028Y-110156786D01*
X132283715Y-110322386D01*
X132236485Y-110415080D01*
X132188510Y-110465876D01*
X132120689Y-110482671D01*
X132054554Y-110460134D01*
X132015515Y-110415080D01*
X132009950Y-110404159D01*
X131968287Y-110322390D01*
X131960556Y-110311749D01*
X131847971Y-110156786D01*
X131703213Y-110012028D01*
X131537613Y-109891715D01*
X131537612Y-109891714D01*
X131537610Y-109891713D01*
X131480653Y-109862691D01*
X131355223Y-109798781D01*
X131160534Y-109735522D01*
X130985995Y-109707878D01*
X130958352Y-109703500D01*
X130753648Y-109703500D01*
X130729329Y-109707351D01*
X130551465Y-109735522D01*
X130356776Y-109798781D01*
X130174386Y-109891715D01*
X130008786Y-110012028D01*
X129864028Y-110156786D01*
X129743715Y-110322386D01*
X129650781Y-110504776D01*
X129587522Y-110699465D01*
X129555500Y-110901648D01*
X129555500Y-111506351D01*
X129587522Y-111708534D01*
X129650781Y-111903223D01*
X129743715Y-112085613D01*
X129864028Y-112251213D01*
X130008786Y-112395971D01*
X130163749Y-112508556D01*
X130174390Y-112516287D01*
X130290607Y-112575503D01*
X130356776Y-112609218D01*
X130356778Y-112609218D01*
X130356781Y-112609220D01*
X130461137Y-112643127D01*
X130551465Y-112672477D01*
X130652557Y-112688488D01*
X130753648Y-112704500D01*
X130753649Y-112704500D01*
X130958351Y-112704500D01*
X130958352Y-112704500D01*
X131160534Y-112672477D01*
X131355219Y-112609220D01*
X131537610Y-112516287D01*
X131698614Y-112399312D01*
X131703213Y-112395971D01*
X131703215Y-112395968D01*
X131703219Y-112395966D01*
X131847966Y-112251219D01*
X131847968Y-112251215D01*
X131847971Y-112251213D01*
X131968284Y-112085614D01*
X131968285Y-112085613D01*
X131968287Y-112085610D01*
X132015516Y-111992917D01*
X132063489Y-111942123D01*
X132131310Y-111925328D01*
X132197445Y-111947865D01*
X132236485Y-111992919D01*
X132283715Y-112085614D01*
X132404028Y-112251213D01*
X132548786Y-112395971D01*
X132703749Y-112508556D01*
X132714390Y-112516287D01*
X132830607Y-112575503D01*
X132896776Y-112609218D01*
X132896778Y-112609218D01*
X132896781Y-112609220D01*
X133001137Y-112643127D01*
X133091465Y-112672477D01*
X133192557Y-112688488D01*
X133293648Y-112704500D01*
X133293649Y-112704500D01*
X133498351Y-112704500D01*
X133498352Y-112704500D01*
X133700534Y-112672477D01*
X133895219Y-112609220D01*
X134077610Y-112516287D01*
X134238614Y-112399312D01*
X134243213Y-112395971D01*
X134243215Y-112395968D01*
X134243219Y-112395966D01*
X134387966Y-112251219D01*
X134387968Y-112251215D01*
X134387971Y-112251213D01*
X134508284Y-112085614D01*
X134508285Y-112085613D01*
X134508287Y-112085610D01*
X134555516Y-111992917D01*
X134603489Y-111942123D01*
X134671310Y-111925328D01*
X134737445Y-111947865D01*
X134776485Y-111992919D01*
X134823715Y-112085614D01*
X134944028Y-112251213D01*
X135088786Y-112395971D01*
X135243749Y-112508556D01*
X135254390Y-112516287D01*
X135370607Y-112575503D01*
X135436776Y-112609218D01*
X135436778Y-112609218D01*
X135436781Y-112609220D01*
X135541137Y-112643127D01*
X135631465Y-112672477D01*
X135732557Y-112688488D01*
X135833648Y-112704500D01*
X135833649Y-112704500D01*
X136038351Y-112704500D01*
X136038352Y-112704500D01*
X136240534Y-112672477D01*
X136435219Y-112609220D01*
X136617610Y-112516287D01*
X136778614Y-112399312D01*
X136783213Y-112395971D01*
X136783215Y-112395968D01*
X136783219Y-112395966D01*
X136927966Y-112251219D01*
X136927968Y-112251215D01*
X136927971Y-112251213D01*
X137048284Y-112085614D01*
X137048285Y-112085613D01*
X137048287Y-112085610D01*
X137095516Y-111992917D01*
X137143489Y-111942123D01*
X137211310Y-111925328D01*
X137277445Y-111947865D01*
X137316485Y-111992919D01*
X137363715Y-112085614D01*
X137484028Y-112251213D01*
X137628786Y-112395971D01*
X137783749Y-112508556D01*
X137794390Y-112516287D01*
X137910607Y-112575503D01*
X137976776Y-112609218D01*
X137976778Y-112609218D01*
X137976781Y-112609220D01*
X138081137Y-112643127D01*
X138171465Y-112672477D01*
X138272557Y-112688488D01*
X138373648Y-112704500D01*
X138373649Y-112704500D01*
X138578351Y-112704500D01*
X138578352Y-112704500D01*
X138780534Y-112672477D01*
X138975219Y-112609220D01*
X139157610Y-112516287D01*
X139318614Y-112399312D01*
X139323213Y-112395971D01*
X139323215Y-112395968D01*
X139323219Y-112395966D01*
X139467966Y-112251219D01*
X139467968Y-112251215D01*
X139467971Y-112251213D01*
X139588284Y-112085614D01*
X139588285Y-112085613D01*
X139588287Y-112085610D01*
X139635516Y-111992917D01*
X139683489Y-111942123D01*
X139751310Y-111925328D01*
X139817445Y-111947865D01*
X139856485Y-111992919D01*
X139903715Y-112085614D01*
X140024028Y-112251213D01*
X140168786Y-112395971D01*
X140323749Y-112508556D01*
X140334390Y-112516287D01*
X140450607Y-112575503D01*
X140516776Y-112609218D01*
X140516778Y-112609218D01*
X140516781Y-112609220D01*
X140621137Y-112643127D01*
X140711465Y-112672477D01*
X140812557Y-112688488D01*
X140913648Y-112704500D01*
X140913649Y-112704500D01*
X141118351Y-112704500D01*
X141118352Y-112704500D01*
X141320534Y-112672477D01*
X141515219Y-112609220D01*
X141697610Y-112516287D01*
X141858614Y-112399312D01*
X141863213Y-112395971D01*
X141863215Y-112395968D01*
X141863219Y-112395966D01*
X142007966Y-112251219D01*
X142007968Y-112251215D01*
X142007971Y-112251213D01*
X142128284Y-112085614D01*
X142128285Y-112085613D01*
X142128287Y-112085610D01*
X142175516Y-111992917D01*
X142223489Y-111942123D01*
X142291310Y-111925328D01*
X142357445Y-111947865D01*
X142396485Y-111992919D01*
X142443715Y-112085614D01*
X142564028Y-112251213D01*
X142708786Y-112395971D01*
X142863749Y-112508556D01*
X142874390Y-112516287D01*
X142990607Y-112575503D01*
X143056776Y-112609218D01*
X143056778Y-112609218D01*
X143056781Y-112609220D01*
X143161137Y-112643127D01*
X143251465Y-112672477D01*
X143352557Y-112688488D01*
X143453648Y-112704500D01*
X143453649Y-112704500D01*
X143658351Y-112704500D01*
X143658352Y-112704500D01*
X143860534Y-112672477D01*
X144055219Y-112609220D01*
X144237610Y-112516287D01*
X144398614Y-112399312D01*
X144403213Y-112395971D01*
X144403215Y-112395968D01*
X144403219Y-112395966D01*
X144547966Y-112251219D01*
X144547968Y-112251215D01*
X144547971Y-112251213D01*
X144668284Y-112085614D01*
X144668285Y-112085613D01*
X144668287Y-112085610D01*
X144715795Y-111992369D01*
X144763770Y-111941574D01*
X144831591Y-111924779D01*
X144897725Y-111947316D01*
X144936765Y-111992371D01*
X144942608Y-112003839D01*
X145572212Y-111374235D01*
X145583482Y-111416292D01*
X145655890Y-111541708D01*
X145758292Y-111644110D01*
X145883708Y-111716518D01*
X145925764Y-111727787D01*
X145254237Y-112399312D01*
X145414650Y-112515859D01*
X145596968Y-112608755D01*
X145791582Y-112671990D01*
X145993683Y-112704000D01*
X146198317Y-112704000D01*
X146400417Y-112671990D01*
X146595031Y-112608755D01*
X146777349Y-112515859D01*
X146937760Y-112399312D01*
X146937761Y-112399312D01*
X146266235Y-111727787D01*
X146308292Y-111716518D01*
X146433708Y-111644110D01*
X146536110Y-111541708D01*
X146608518Y-111416292D01*
X146619787Y-111374235D01*
X147249390Y-112003838D01*
X147255234Y-111992370D01*
X147303207Y-111941574D01*
X147371028Y-111924778D01*
X147437163Y-111947315D01*
X147476204Y-111992369D01*
X147523715Y-112085613D01*
X147644028Y-112251213D01*
X147788786Y-112395971D01*
X147943749Y-112508556D01*
X147954390Y-112516287D01*
X148070607Y-112575503D01*
X148136776Y-112609218D01*
X148136778Y-112609218D01*
X148136781Y-112609220D01*
X148241137Y-112643127D01*
X148331465Y-112672477D01*
X148432557Y-112688488D01*
X148533648Y-112704500D01*
X148533649Y-112704500D01*
X148738351Y-112704500D01*
X148738352Y-112704500D01*
X148940534Y-112672477D01*
X149135219Y-112609220D01*
X149317610Y-112516287D01*
X149478614Y-112399312D01*
X149483213Y-112395971D01*
X149483215Y-112395968D01*
X149483219Y-112395966D01*
X149627966Y-112251219D01*
X149627968Y-112251215D01*
X149627971Y-112251213D01*
X149680732Y-112178590D01*
X149748287Y-112085610D01*
X149841220Y-111903219D01*
X149904477Y-111708534D01*
X149936500Y-111506352D01*
X149936500Y-110901648D01*
X149904477Y-110699466D01*
X149841220Y-110504781D01*
X149841218Y-110504778D01*
X149841218Y-110504776D01*
X149789950Y-110404159D01*
X149748287Y-110322390D01*
X149740556Y-110311749D01*
X149627971Y-110156786D01*
X149483217Y-110012032D01*
X149483212Y-110012028D01*
X149437615Y-109978900D01*
X149394949Y-109923571D01*
X149386500Y-109878582D01*
X149386500Y-108784052D01*
X149406185Y-108717013D01*
X149422819Y-108696371D01*
X149433009Y-108686181D01*
X149518840Y-108600350D01*
X149609408Y-108453516D01*
X149663674Y-108289753D01*
X149674000Y-108188677D01*
X149673999Y-107615324D01*
X149670948Y-107585461D01*
X149663674Y-107514247D01*
X149609408Y-107350484D01*
X149518840Y-107203650D01*
X149422819Y-107107629D01*
X149389334Y-107046306D01*
X149386500Y-107019948D01*
X149386500Y-106812079D01*
X149377820Y-106768448D01*
X149365588Y-106706951D01*
X149357659Y-106667088D01*
X149302222Y-106533255D01*
X149301423Y-106531013D01*
X149253609Y-106459453D01*
X149253609Y-106459452D01*
X149218950Y-106407581D01*
X149218947Y-106407578D01*
X148923549Y-106112181D01*
X148890064Y-106050858D01*
X148895048Y-105981167D01*
X148936919Y-105925233D01*
X149002384Y-105900816D01*
X149011230Y-105900500D01*
X149192351Y-105900500D01*
X149192352Y-105900500D01*
X149394534Y-105868477D01*
X149589219Y-105805220D01*
X149771610Y-105712287D01*
X149912305Y-105610067D01*
X149912307Y-105610066D01*
X149937212Y-105591971D01*
X149937210Y-105591971D01*
X149937219Y-105591966D01*
X150081966Y-105447219D01*
X150081968Y-105447215D01*
X150081971Y-105447213D01*
X150135526Y-105373500D01*
X150202287Y-105281610D01*
X150295220Y-105099219D01*
X150358477Y-104904534D01*
X150390500Y-104702352D01*
X150390500Y-104497648D01*
X150372550Y-104384315D01*
X150358477Y-104295465D01*
X150329127Y-104205137D01*
X150295220Y-104100781D01*
X150295218Y-104100778D01*
X150295218Y-104100776D01*
X150245392Y-104002989D01*
X150202287Y-103918390D01*
X150152236Y-103849500D01*
X150081971Y-103752786D01*
X149937213Y-103608028D01*
X149771614Y-103487715D01*
X149765006Y-103484348D01*
X149678917Y-103440483D01*
X149628123Y-103392511D01*
X149611328Y-103324690D01*
X149633865Y-103258555D01*
X149678917Y-103219516D01*
X149771610Y-103172287D01*
X149792770Y-103156913D01*
X149937213Y-103051971D01*
X149937215Y-103051968D01*
X149937219Y-103051966D01*
X150081966Y-102907219D01*
X150135502Y-102833531D01*
X150190830Y-102790867D01*
X150260443Y-102784886D01*
X150322239Y-102817491D01*
X150323501Y-102818736D01*
X151203478Y-103698713D01*
X151203480Y-103698716D01*
X151315284Y-103810520D01*
X151325445Y-103816386D01*
X151336406Y-103826977D01*
X151346443Y-103844631D01*
X151360457Y-103859327D01*
X151363360Y-103874385D01*
X151370939Y-103887716D01*
X151369838Y-103907991D01*
X151373683Y-103927933D01*
X151367627Y-103948741D01*
X151367153Y-103957483D01*
X151363686Y-103962283D01*
X151360729Y-103972446D01*
X151295245Y-104100965D01*
X151232009Y-104295582D01*
X151200000Y-104497682D01*
X151200000Y-104702317D01*
X151232009Y-104904417D01*
X151295244Y-105099031D01*
X151388142Y-105281352D01*
X151504684Y-105441760D01*
X151504686Y-105441761D01*
X152176212Y-104770234D01*
X152187482Y-104812292D01*
X152259890Y-104937708D01*
X152362292Y-105040110D01*
X152487708Y-105112518D01*
X152529764Y-105123787D01*
X151900159Y-105753391D01*
X152000965Y-105804753D01*
X152000972Y-105804756D01*
X152195582Y-105867990D01*
X152397683Y-105900000D01*
X153002317Y-105900000D01*
X153204417Y-105867990D01*
X153399031Y-105804755D01*
X153499838Y-105753390D01*
X152870235Y-105123787D01*
X152912292Y-105112518D01*
X153037708Y-105040110D01*
X153140110Y-104937708D01*
X153212518Y-104812292D01*
X153223787Y-104770236D01*
X153895312Y-105441761D01*
X153895312Y-105441760D01*
X154011859Y-105281349D01*
X154104755Y-105099030D01*
X154110165Y-105082380D01*
X154149601Y-105024703D01*
X154213959Y-104997504D01*
X154282806Y-105009416D01*
X154301426Y-105020701D01*
X154309072Y-105026308D01*
X154363284Y-105080520D01*
X154450095Y-105130639D01*
X154455961Y-105134026D01*
X154455964Y-105134028D01*
X154500213Y-105159576D01*
X154500215Y-105159577D01*
X154652942Y-105200500D01*
X154652943Y-105200500D01*
X154891208Y-105200500D01*
X154958247Y-105220185D01*
X154991524Y-105251612D01*
X155086310Y-105382073D01*
X155219927Y-105515690D01*
X155372801Y-105626760D01*
X155452347Y-105667290D01*
X155541163Y-105712545D01*
X155541165Y-105712545D01*
X155541168Y-105712547D01*
X155637497Y-105743846D01*
X155720881Y-105770940D01*
X155907514Y-105800500D01*
X155907519Y-105800500D01*
X156096486Y-105800500D01*
X156283118Y-105770940D01*
X156462832Y-105712547D01*
X156631199Y-105626760D01*
X156784073Y-105515690D01*
X156917690Y-105382073D01*
X156975182Y-105302941D01*
X157030512Y-105260276D01*
X157100125Y-105254297D01*
X157161920Y-105286903D01*
X157196277Y-105347741D01*
X157199500Y-105375827D01*
X157199500Y-129375500D01*
X157179815Y-129442539D01*
X157127011Y-129488294D01*
X157075500Y-129499500D01*
X122924500Y-129499500D01*
X122857461Y-129479815D01*
X122811706Y-129427011D01*
X122800500Y-129375500D01*
X122800500Y-108188654D01*
X145873501Y-108188654D01*
X145883819Y-108289652D01*
X145938046Y-108453300D01*
X145938051Y-108453311D01*
X146028552Y-108600034D01*
X146028555Y-108600038D01*
X146150461Y-108721944D01*
X146150465Y-108721947D01*
X146297188Y-108812448D01*
X146297199Y-108812453D01*
X146460847Y-108866680D01*
X146561851Y-108876999D01*
X146661000Y-108876998D01*
X146661000Y-108152000D01*
X145873501Y-108152000D01*
X145873501Y-108188654D01*
X122800500Y-108188654D01*
X122800500Y-106755000D01*
X123584638Y-106755000D01*
X123589548Y-106786002D01*
X123647914Y-106965637D01*
X123733670Y-107133940D01*
X123844685Y-107286741D01*
X123844689Y-107286746D01*
X123978253Y-107420310D01*
X123978258Y-107420314D01*
X124131059Y-107531329D01*
X124299362Y-107617085D01*
X124478997Y-107675451D01*
X124510000Y-107680362D01*
X124510000Y-107680361D01*
X125010000Y-107680361D01*
X125041002Y-107675451D01*
X125220637Y-107617085D01*
X125388940Y-107531329D01*
X125541741Y-107420314D01*
X125541746Y-107420310D01*
X125675310Y-107286746D01*
X125675314Y-107286741D01*
X125786329Y-107133940D01*
X125872085Y-106965637D01*
X125930451Y-106786002D01*
X125935362Y-106755000D01*
X125010000Y-106755000D01*
X125010000Y-107680361D01*
X124510000Y-107680361D01*
X124510000Y-106755000D01*
X123584638Y-106755000D01*
X122800500Y-106755000D01*
X122800500Y-104580774D01*
X122800499Y-104580759D01*
X122764293Y-104143817D01*
X122764292Y-104143811D01*
X122764292Y-104143807D01*
X122718687Y-103870513D01*
X123559500Y-103870513D01*
X123559500Y-104059486D01*
X123589059Y-104246118D01*
X123647454Y-104425836D01*
X123707950Y-104544565D01*
X123733240Y-104594199D01*
X123844310Y-104747073D01*
X123977927Y-104880690D01*
X124130801Y-104991760D01*
X124299168Y-105077547D01*
X124421612Y-105117331D01*
X124479287Y-105156769D01*
X124506485Y-105221127D01*
X124494570Y-105289974D01*
X124447326Y-105341449D01*
X124421612Y-105353193D01*
X124299361Y-105392915D01*
X124131059Y-105478670D01*
X123978258Y-105589685D01*
X123978253Y-105589689D01*
X123844689Y-105723253D01*
X123844685Y-105723258D01*
X123733670Y-105876059D01*
X123647914Y-106044362D01*
X123589548Y-106223997D01*
X123584638Y-106255000D01*
X124515025Y-106255000D01*
X124479930Y-106290095D01*
X124433852Y-106369905D01*
X124410000Y-106458922D01*
X124410000Y-106551078D01*
X124433852Y-106640095D01*
X124479930Y-106719905D01*
X124545095Y-106785070D01*
X124624905Y-106831148D01*
X124713922Y-106855000D01*
X124806078Y-106855000D01*
X124895095Y-106831148D01*
X124974905Y-106785070D01*
X125040070Y-106719905D01*
X125086148Y-106640095D01*
X125110000Y-106551078D01*
X125110000Y-106458922D01*
X125086148Y-106369905D01*
X125040070Y-106290095D01*
X125004975Y-106255000D01*
X125935362Y-106255000D01*
X125930451Y-106223997D01*
X125872085Y-106044362D01*
X125786329Y-105876059D01*
X125675314Y-105723258D01*
X125675310Y-105723253D01*
X125541746Y-105589689D01*
X125541741Y-105589685D01*
X125388940Y-105478670D01*
X125220637Y-105392914D01*
X125098388Y-105353193D01*
X125040712Y-105313755D01*
X125013514Y-105249397D01*
X125025429Y-105180550D01*
X125072673Y-105129075D01*
X125098382Y-105117333D01*
X125220832Y-105077547D01*
X125389199Y-104991760D01*
X125542073Y-104880690D01*
X125675690Y-104747073D01*
X125786760Y-104594199D01*
X125872547Y-104425832D01*
X125930940Y-104246118D01*
X125947144Y-104143811D01*
X125960500Y-104059486D01*
X125960500Y-103870513D01*
X125935274Y-103711246D01*
X125944228Y-103641953D01*
X125970063Y-103604170D01*
X126980520Y-102593716D01*
X127059577Y-102456784D01*
X127100501Y-102304057D01*
X127100501Y-102145942D01*
X127100501Y-102138347D01*
X127100500Y-102138329D01*
X127100500Y-96079765D01*
X127120185Y-96012726D01*
X127121398Y-96010874D01*
X127209390Y-95879185D01*
X127209390Y-95879184D01*
X127209394Y-95879179D01*
X127269737Y-95733497D01*
X127300500Y-95578842D01*
X127300500Y-95421158D01*
X127300500Y-95421155D01*
X127300499Y-95421153D01*
X127284612Y-95341284D01*
X127269737Y-95266503D01*
X127221657Y-95150426D01*
X127209397Y-95120827D01*
X127209390Y-95120814D01*
X127121789Y-94989711D01*
X127121786Y-94989707D01*
X127010292Y-94878213D01*
X127010288Y-94878210D01*
X126879185Y-94790609D01*
X126879172Y-94790602D01*
X126733501Y-94730264D01*
X126733489Y-94730261D01*
X126578845Y-94699500D01*
X126578842Y-94699500D01*
X126421158Y-94699500D01*
X126421155Y-94699500D01*
X126266510Y-94730261D01*
X126266498Y-94730264D01*
X126120827Y-94790602D01*
X126120814Y-94790609D01*
X125989711Y-94878210D01*
X125989707Y-94878213D01*
X125878213Y-94989707D01*
X125878210Y-94989711D01*
X125790609Y-95120814D01*
X125790602Y-95120827D01*
X125730264Y-95266498D01*
X125730261Y-95266510D01*
X125699500Y-95421153D01*
X125699500Y-95578846D01*
X125730261Y-95733489D01*
X125730264Y-95733501D01*
X125790602Y-95879172D01*
X125790609Y-95879185D01*
X125878602Y-96010874D01*
X125899480Y-96077551D01*
X125899500Y-96079765D01*
X125899500Y-101924902D01*
X125879815Y-101991941D01*
X125863181Y-102012583D01*
X125120830Y-102754933D01*
X125059507Y-102788418D01*
X125013751Y-102789725D01*
X124854486Y-102764500D01*
X124854481Y-102764500D01*
X124665519Y-102764500D01*
X124665514Y-102764500D01*
X124478881Y-102794059D01*
X124299163Y-102852454D01*
X124130800Y-102938240D01*
X124089351Y-102968355D01*
X123977927Y-103049310D01*
X123977925Y-103049312D01*
X123977924Y-103049312D01*
X123844312Y-103182924D01*
X123844312Y-103182925D01*
X123844310Y-103182927D01*
X123825509Y-103208804D01*
X123733240Y-103335800D01*
X123647454Y-103504163D01*
X123589059Y-103683881D01*
X123559500Y-103870513D01*
X122718687Y-103870513D01*
X122692124Y-103711326D01*
X122584488Y-103286282D01*
X122442121Y-102871579D01*
X122265993Y-102470048D01*
X122258818Y-102456790D01*
X122057311Y-102084436D01*
X121817487Y-101717359D01*
X121548193Y-101371371D01*
X121548185Y-101371362D01*
X121251224Y-101048775D01*
X120928637Y-100751814D01*
X120928628Y-100751806D01*
X120582640Y-100482512D01*
X120215563Y-100242688D01*
X119829961Y-100034011D01*
X119829947Y-100034005D01*
X119796238Y-100019219D01*
X119677576Y-99967168D01*
X119428424Y-99857880D01*
X119013731Y-99715516D01*
X119013725Y-99715514D01*
X119013718Y-99715512D01*
X118588674Y-99607876D01*
X118588670Y-99607875D01*
X118156188Y-99535707D01*
X118156182Y-99535706D01*
X117719240Y-99499500D01*
X117719230Y-99499500D01*
X117565892Y-99499500D01*
X113124500Y-99499500D01*
X113057461Y-99479815D01*
X113011706Y-99427011D01*
X113000500Y-99375500D01*
X113000500Y-92865602D01*
X113349500Y-92865602D01*
X113349500Y-93134397D01*
X113384582Y-93400880D01*
X113384583Y-93400885D01*
X113384584Y-93400891D01*
X113397216Y-93448034D01*
X113454152Y-93660524D01*
X113557011Y-93908850D01*
X113557019Y-93908866D01*
X113612124Y-94004309D01*
X113691413Y-94141641D01*
X113691415Y-94141644D01*
X113691416Y-94141645D01*
X113855042Y-94354888D01*
X113855048Y-94354895D01*
X114045104Y-94544951D01*
X114045111Y-94544957D01*
X114170387Y-94641084D01*
X114258359Y-94708587D01*
X114400413Y-94790602D01*
X114491133Y-94842980D01*
X114491149Y-94842988D01*
X114646008Y-94907132D01*
X114739474Y-94945847D01*
X114999109Y-95015416D01*
X115163142Y-95037011D01*
X115265602Y-95050500D01*
X115265603Y-95050500D01*
X115534398Y-95050500D01*
X115594905Y-95042534D01*
X115800891Y-95015416D01*
X116060526Y-94945847D01*
X116247457Y-94868417D01*
X116308850Y-94842988D01*
X116308853Y-94842986D01*
X116308859Y-94842984D01*
X116541641Y-94708587D01*
X116754890Y-94544956D01*
X116944956Y-94354890D01*
X117108587Y-94141641D01*
X117242984Y-93908859D01*
X117244782Y-93904520D01*
X117282414Y-93813666D01*
X117345847Y-93660526D01*
X117415416Y-93400891D01*
X117450500Y-93134397D01*
X117450500Y-92865603D01*
X117450049Y-92862181D01*
X117429118Y-92703191D01*
X117415416Y-92599109D01*
X117345847Y-92339474D01*
X117273352Y-92164456D01*
X117242988Y-92091149D01*
X117242980Y-92091133D01*
X117174434Y-91972409D01*
X117108587Y-91858359D01*
X117041084Y-91770387D01*
X116944957Y-91645111D01*
X116944951Y-91645104D01*
X116754895Y-91455048D01*
X116754888Y-91455042D01*
X116541645Y-91291416D01*
X116541644Y-91291415D01*
X116541641Y-91291413D01*
X116436137Y-91230500D01*
X116308866Y-91157019D01*
X116308850Y-91157011D01*
X116060524Y-91054152D01*
X115887732Y-91007853D01*
X115800891Y-90984584D01*
X115800885Y-90984583D01*
X115800880Y-90984582D01*
X115534398Y-90949500D01*
X115534397Y-90949500D01*
X115265603Y-90949500D01*
X115265602Y-90949500D01*
X114999119Y-90984582D01*
X114999112Y-90984583D01*
X114999109Y-90984584D01*
X114993724Y-90986027D01*
X114739475Y-91054152D01*
X114491149Y-91157011D01*
X114491133Y-91157019D01*
X114258354Y-91291416D01*
X114045111Y-91455042D01*
X114045104Y-91455048D01*
X113855048Y-91645104D01*
X113855042Y-91645111D01*
X113691416Y-91858354D01*
X113691413Y-91858358D01*
X113691413Y-91858359D01*
X113682629Y-91873573D01*
X113557019Y-92091133D01*
X113557011Y-92091149D01*
X113454152Y-92339475D01*
X113384585Y-92599106D01*
X113384582Y-92599119D01*
X113349500Y-92865602D01*
X113000500Y-92865602D01*
X113000500Y-89527389D01*
X123513500Y-89527389D01*
X123513500Y-89700610D01*
X123539422Y-89864281D01*
X123540598Y-89871701D01*
X123591870Y-90029500D01*
X123594128Y-90036447D01*
X123611440Y-90070424D01*
X123672768Y-90190788D01*
X123774586Y-90330928D01*
X123897072Y-90453414D01*
X124037212Y-90555232D01*
X124191555Y-90633873D01*
X124356299Y-90687402D01*
X124527389Y-90714500D01*
X124527390Y-90714500D01*
X125500610Y-90714500D01*
X125500611Y-90714500D01*
X125671701Y-90687402D01*
X125836445Y-90633873D01*
X125990788Y-90555232D01*
X126130928Y-90453414D01*
X126253414Y-90330928D01*
X126355232Y-90190788D01*
X126433873Y-90036445D01*
X126487402Y-89871701D01*
X126514500Y-89700611D01*
X126514500Y-89527389D01*
X126487402Y-89356299D01*
X126433873Y-89191555D01*
X126355232Y-89037212D01*
X126253414Y-88897072D01*
X126130928Y-88774586D01*
X125990788Y-88672768D01*
X125854652Y-88603404D01*
X125836447Y-88594128D01*
X125836446Y-88594127D01*
X125836445Y-88594127D01*
X125671701Y-88540598D01*
X125671699Y-88540597D01*
X125671698Y-88540597D01*
X125535071Y-88518958D01*
X125500611Y-88513500D01*
X124527389Y-88513500D01*
X124492929Y-88518958D01*
X124356302Y-88540597D01*
X124191552Y-88594128D01*
X124037211Y-88672768D01*
X123969103Y-88722252D01*
X123897072Y-88774586D01*
X123897070Y-88774588D01*
X123897069Y-88774588D01*
X123774588Y-88897069D01*
X123774588Y-88897070D01*
X123774586Y-88897072D01*
X123758008Y-88919890D01*
X123672768Y-89037211D01*
X123594128Y-89191552D01*
X123540597Y-89356302D01*
X123513500Y-89527389D01*
X113000500Y-89527389D01*
X113000500Y-85474428D01*
X114040000Y-85474428D01*
X114040000Y-85586000D01*
X114859670Y-85586000D01*
X114839925Y-85605745D01*
X114790556Y-85691255D01*
X114765000Y-85786630D01*
X114765000Y-85885370D01*
X114790556Y-85980745D01*
X114839925Y-86066255D01*
X114859670Y-86086000D01*
X114040000Y-86086000D01*
X114040000Y-86197571D01*
X114067085Y-86368584D01*
X114120591Y-86533257D01*
X114199195Y-86687524D01*
X114300967Y-86827602D01*
X114423397Y-86950032D01*
X114563475Y-87051804D01*
X114717744Y-87130408D01*
X114882415Y-87183914D01*
X114882414Y-87183914D01*
X114889999Y-87185115D01*
X114890000Y-87185114D01*
X114890000Y-86116330D01*
X114909745Y-86136075D01*
X114995255Y-86185444D01*
X115090630Y-86211000D01*
X115189370Y-86211000D01*
X115284745Y-86185444D01*
X115370255Y-86136075D01*
X115390000Y-86116330D01*
X115390000Y-87185115D01*
X115397584Y-87183914D01*
X115562255Y-87130408D01*
X115716524Y-87051804D01*
X115856598Y-86950035D01*
X115964199Y-86842434D01*
X116025522Y-86808949D01*
X116095214Y-86813933D01*
X116151148Y-86855804D01*
X116157418Y-86865016D01*
X116197288Y-86929656D01*
X116321344Y-87053712D01*
X116470666Y-87145814D01*
X116637203Y-87200999D01*
X116739991Y-87211500D01*
X117540008Y-87211499D01*
X117540016Y-87211498D01*
X117540019Y-87211498D01*
X117596302Y-87205748D01*
X117642797Y-87200999D01*
X117809334Y-87145814D01*
X117958656Y-87053712D01*
X118082712Y-86929656D01*
X118103839Y-86895402D01*
X118155787Y-86848679D01*
X118209378Y-86836500D01*
X119500218Y-86836500D01*
X119567257Y-86856185D01*
X119587899Y-86872819D01*
X120463735Y-87748655D01*
X120463764Y-87748686D01*
X120606214Y-87891136D01*
X120606218Y-87891139D01*
X120770079Y-88000628D01*
X120770092Y-88000635D01*
X120898833Y-88053961D01*
X120901902Y-88055232D01*
X120952164Y-88076051D01*
X121048812Y-88095275D01*
X121097135Y-88104887D01*
X121145458Y-88114500D01*
X121145459Y-88114500D01*
X121145460Y-88114500D01*
X121342540Y-88114500D01*
X124123763Y-88114500D01*
X124180059Y-88128016D01*
X124191550Y-88133871D01*
X124191552Y-88133871D01*
X124191555Y-88133873D01*
X124356299Y-88187402D01*
X124527389Y-88214500D01*
X124527390Y-88214500D01*
X125500610Y-88214500D01*
X125500611Y-88214500D01*
X125671701Y-88187402D01*
X125836445Y-88133873D01*
X125990788Y-88055232D01*
X126130928Y-87953414D01*
X126253414Y-87830928D01*
X126355232Y-87690788D01*
X126433873Y-87536445D01*
X126487402Y-87371701D01*
X126514500Y-87200611D01*
X126514500Y-87027389D01*
X126487402Y-86856299D01*
X126433873Y-86691555D01*
X126355232Y-86537212D01*
X126253414Y-86397072D01*
X126130928Y-86274586D01*
X125990788Y-86172768D01*
X125836445Y-86094127D01*
X125671701Y-86040598D01*
X125671699Y-86040597D01*
X125671698Y-86040597D01*
X125540271Y-86019781D01*
X125500611Y-86013500D01*
X124527389Y-86013500D01*
X124487728Y-86019781D01*
X124356302Y-86040597D01*
X124191550Y-86094128D01*
X124180059Y-86099984D01*
X124123763Y-86113500D01*
X121709782Y-86113500D01*
X121642743Y-86093815D01*
X121622101Y-86077181D01*
X120747479Y-85202559D01*
X120747459Y-85202537D01*
X120603785Y-85058863D01*
X120603781Y-85058860D01*
X120439920Y-84949371D01*
X120439907Y-84949364D01*
X120292552Y-84888329D01*
X120292551Y-84888328D01*
X120284312Y-84884916D01*
X120257836Y-84873949D01*
X120161188Y-84854724D01*
X120157963Y-84854082D01*
X120157961Y-84854082D01*
X120064544Y-84835500D01*
X120064541Y-84835500D01*
X118209378Y-84835500D01*
X118142339Y-84815815D01*
X118103839Y-84776597D01*
X118082712Y-84742344D01*
X117958656Y-84618288D01*
X117815518Y-84530000D01*
X117809336Y-84526187D01*
X117809331Y-84526185D01*
X117807862Y-84525698D01*
X117642797Y-84471001D01*
X117642795Y-84471000D01*
X117540010Y-84460500D01*
X116739998Y-84460500D01*
X116739980Y-84460501D01*
X116637203Y-84471000D01*
X116637200Y-84471001D01*
X116470668Y-84526185D01*
X116470663Y-84526187D01*
X116321342Y-84618289D01*
X116197289Y-84742342D01*
X116157420Y-84806981D01*
X116105472Y-84853705D01*
X116036509Y-84864928D01*
X115972427Y-84837084D01*
X115964200Y-84829565D01*
X115856602Y-84721967D01*
X115716524Y-84620195D01*
X115562257Y-84541591D01*
X115397589Y-84488087D01*
X115397581Y-84488085D01*
X115390000Y-84486884D01*
X115390000Y-85555670D01*
X115370255Y-85535925D01*
X115284745Y-85486556D01*
X115189370Y-85461000D01*
X115090630Y-85461000D01*
X114995255Y-85486556D01*
X114909745Y-85535925D01*
X114890000Y-85555670D01*
X114890000Y-84486884D01*
X114889999Y-84486884D01*
X114882418Y-84488085D01*
X114882410Y-84488087D01*
X114717742Y-84541591D01*
X114563475Y-84620195D01*
X114423397Y-84721967D01*
X114300967Y-84844397D01*
X114199195Y-84984475D01*
X114120591Y-85138742D01*
X114067085Y-85303415D01*
X114040000Y-85474428D01*
X113000500Y-85474428D01*
X113000500Y-83624500D01*
X113020185Y-83557461D01*
X113072989Y-83511706D01*
X113124500Y-83500500D01*
X123892686Y-83500500D01*
X123959725Y-83520185D01*
G37*
G04 #@! TD.AperFunction*
G04 #@! TA.AperFunction,Conductor*
G36*
X156438784Y-83520185D02*
G01*
X156484539Y-83572989D01*
X156494483Y-83642147D01*
X156472063Y-83697386D01*
X156438768Y-83743211D01*
X156360128Y-83897552D01*
X156306597Y-84062302D01*
X156279500Y-84233389D01*
X156279500Y-84406610D01*
X156300878Y-84541591D01*
X156306598Y-84577701D01*
X156360127Y-84742445D01*
X156438768Y-84896788D01*
X156540586Y-85036928D01*
X156663072Y-85159414D01*
X156803212Y-85261232D01*
X156957555Y-85339873D01*
X157122299Y-85393402D01*
X157293389Y-85420500D01*
X157293390Y-85420500D01*
X158266610Y-85420500D01*
X158266611Y-85420500D01*
X158437701Y-85393402D01*
X158602445Y-85339873D01*
X158756788Y-85261232D01*
X158896928Y-85159414D01*
X159019414Y-85036928D01*
X159121232Y-84896788D01*
X159199873Y-84742445D01*
X159253402Y-84577701D01*
X159280500Y-84406611D01*
X159280500Y-84233389D01*
X159253402Y-84062299D01*
X159199873Y-83897555D01*
X159121232Y-83743212D01*
X159087936Y-83697385D01*
X159064457Y-83631580D01*
X159080282Y-83563526D01*
X159130388Y-83514831D01*
X159188255Y-83500500D01*
X166875500Y-83500500D01*
X166942539Y-83520185D01*
X166988294Y-83572989D01*
X166999500Y-83624500D01*
X166999500Y-99375500D01*
X166979815Y-99442539D01*
X166927011Y-99488294D01*
X166875500Y-99499500D01*
X162280759Y-99499500D01*
X161843817Y-99535706D01*
X161843811Y-99535707D01*
X161411329Y-99607875D01*
X161411325Y-99607876D01*
X161259280Y-99646379D01*
X160986282Y-99715512D01*
X160986276Y-99715513D01*
X160986268Y-99715516D01*
X160571575Y-99857880D01*
X160170052Y-100034005D01*
X160170038Y-100034011D01*
X159784436Y-100242688D01*
X159417359Y-100482512D01*
X159071371Y-100751806D01*
X159071362Y-100751814D01*
X158748775Y-101048775D01*
X158451814Y-101371362D01*
X158451806Y-101371371D01*
X158182512Y-101717359D01*
X157942688Y-102084436D01*
X157734011Y-102470038D01*
X157734005Y-102470052D01*
X157557880Y-102871575D01*
X157415516Y-103286268D01*
X157415513Y-103286276D01*
X157415512Y-103286282D01*
X157364568Y-103487454D01*
X157307876Y-103711325D01*
X157307875Y-103711329D01*
X157268342Y-103948239D01*
X157237891Y-104011124D01*
X157178276Y-104047564D01*
X157108424Y-104045988D01*
X157050513Y-104006898D01*
X157035548Y-103984123D01*
X157028761Y-103970802D01*
X156990678Y-103918386D01*
X156917690Y-103817927D01*
X156784073Y-103684310D01*
X156631199Y-103573240D01*
X156462836Y-103487454D01*
X156283118Y-103429059D01*
X156096486Y-103399500D01*
X156096481Y-103399500D01*
X155907519Y-103399500D01*
X155907514Y-103399500D01*
X155720881Y-103429059D01*
X155541163Y-103487454D01*
X155372797Y-103573242D01*
X155275385Y-103644016D01*
X155209579Y-103667496D01*
X155141525Y-103651670D01*
X155092830Y-103601565D01*
X155078500Y-103543698D01*
X155078500Y-103377945D01*
X155078500Y-103377943D01*
X155044470Y-103250942D01*
X155037577Y-103225215D01*
X155007019Y-103172287D01*
X154958520Y-103088284D01*
X154846716Y-102976480D01*
X154846715Y-102976479D01*
X154842385Y-102972149D01*
X154842374Y-102972139D01*
X154838590Y-102968355D01*
X154838588Y-102968352D01*
X154719717Y-102849481D01*
X154719709Y-102849475D01*
X154602245Y-102781658D01*
X154602245Y-102781657D01*
X154602240Y-102781656D01*
X154595451Y-102777736D01*
X154582786Y-102770423D01*
X154524976Y-102754933D01*
X154430057Y-102729499D01*
X154271943Y-102729499D01*
X154264347Y-102729499D01*
X154264331Y-102729500D01*
X154220266Y-102729500D01*
X154153227Y-102709815D01*
X154107472Y-102657011D01*
X154097528Y-102587853D01*
X154104080Y-102563970D01*
X154103714Y-102563852D01*
X154105218Y-102559222D01*
X154105220Y-102559219D01*
X154168477Y-102364534D01*
X154200500Y-102162352D01*
X154200500Y-101957648D01*
X154168477Y-101755466D01*
X154105220Y-101560781D01*
X154105218Y-101560778D01*
X154105218Y-101560776D01*
X154071503Y-101494607D01*
X154012287Y-101378390D01*
X154004556Y-101367749D01*
X153891971Y-101212786D01*
X153747213Y-101068028D01*
X153581614Y-100947715D01*
X153575006Y-100944348D01*
X153488917Y-100900483D01*
X153438123Y-100852511D01*
X153421328Y-100784690D01*
X153443865Y-100718555D01*
X153488917Y-100679516D01*
X153581610Y-100632287D01*
X153699329Y-100546760D01*
X153747213Y-100511971D01*
X153747215Y-100511968D01*
X153747219Y-100511966D01*
X153891966Y-100367219D01*
X153891968Y-100367215D01*
X153891971Y-100367213D01*
X153982442Y-100242688D01*
X154012287Y-100201610D01*
X154105220Y-100019219D01*
X154168477Y-99824534D01*
X154200500Y-99622352D01*
X154200500Y-99425513D01*
X154801500Y-99425513D01*
X154801500Y-99614486D01*
X154831059Y-99801118D01*
X154889454Y-99980836D01*
X154932793Y-100065892D01*
X154975240Y-100149199D01*
X155086310Y-100302073D01*
X155219927Y-100435690D01*
X155372801Y-100546760D01*
X155425688Y-100573707D01*
X155541163Y-100632545D01*
X155541165Y-100632545D01*
X155541168Y-100632547D01*
X155637497Y-100663846D01*
X155720881Y-100690940D01*
X155907514Y-100720500D01*
X155907519Y-100720500D01*
X156096486Y-100720500D01*
X156283118Y-100690940D01*
X156318280Y-100679515D01*
X156462832Y-100632547D01*
X156631199Y-100546760D01*
X156784073Y-100435690D01*
X156917690Y-100302073D01*
X157028760Y-100149199D01*
X157114547Y-99980832D01*
X157172940Y-99801118D01*
X157186498Y-99715516D01*
X157202500Y-99614486D01*
X157202500Y-99425513D01*
X157172940Y-99238881D01*
X157114545Y-99059163D01*
X157028759Y-98890800D01*
X156917690Y-98737927D01*
X156784073Y-98604310D01*
X156631199Y-98493240D01*
X156462836Y-98407454D01*
X156283118Y-98349059D01*
X156096486Y-98319500D01*
X156096481Y-98319500D01*
X155907519Y-98319500D01*
X155907514Y-98319500D01*
X155720881Y-98349059D01*
X155541163Y-98407454D01*
X155372800Y-98493240D01*
X155324911Y-98528034D01*
X155219927Y-98604310D01*
X155219925Y-98604312D01*
X155219924Y-98604312D01*
X155086312Y-98737924D01*
X155086312Y-98737925D01*
X155086310Y-98737927D01*
X155038610Y-98803579D01*
X154975240Y-98890800D01*
X154889454Y-99059163D01*
X154831059Y-99238881D01*
X154801500Y-99425513D01*
X154200500Y-99425513D01*
X154200500Y-99417648D01*
X154168477Y-99215466D01*
X154105220Y-99020781D01*
X154105218Y-99020778D01*
X154105218Y-99020776D01*
X154071503Y-98954607D01*
X154012287Y-98838390D01*
X154004556Y-98827749D01*
X153891971Y-98672786D01*
X153747213Y-98528028D01*
X153581614Y-98407715D01*
X153575006Y-98404348D01*
X153488917Y-98360483D01*
X153438123Y-98312511D01*
X153421328Y-98244690D01*
X153443865Y-98178555D01*
X153488917Y-98139516D01*
X153581610Y-98092287D01*
X153602770Y-98076913D01*
X153747213Y-97971971D01*
X153747215Y-97971968D01*
X153747219Y-97971966D01*
X153891966Y-97827219D01*
X153894650Y-97823524D01*
X153925100Y-97781615D01*
X153980429Y-97738949D01*
X154025418Y-97730500D01*
X154297920Y-97730500D01*
X154395462Y-97711096D01*
X154442913Y-97701658D01*
X154579495Y-97645084D01*
X154676151Y-97580501D01*
X154702416Y-97562952D01*
X155314951Y-96950416D01*
X155397084Y-96827495D01*
X155453658Y-96690913D01*
X155457106Y-96673580D01*
X155462405Y-96646943D01*
X155482500Y-96545920D01*
X155482500Y-95818229D01*
X155491144Y-95788788D01*
X155497668Y-95758802D01*
X155501422Y-95753786D01*
X155502185Y-95751190D01*
X155518815Y-95730552D01*
X155659820Y-95589547D01*
X155721142Y-95556063D01*
X155790834Y-95561047D01*
X155846767Y-95602919D01*
X155871184Y-95668383D01*
X155871500Y-95677229D01*
X155871500Y-95820221D01*
X155905985Y-96037952D01*
X155974103Y-96247603D01*
X155974104Y-96247606D01*
X156024657Y-96346819D01*
X156058116Y-96412486D01*
X156074187Y-96444025D01*
X156203752Y-96622358D01*
X156203756Y-96622363D01*
X156359636Y-96778243D01*
X156359641Y-96778247D01*
X156496456Y-96877648D01*
X156537978Y-96907815D01*
X156636049Y-96957785D01*
X156734393Y-97007895D01*
X156734396Y-97007896D01*
X156839221Y-97041955D01*
X156944049Y-97076015D01*
X157161778Y-97110500D01*
X157161779Y-97110500D01*
X157382221Y-97110500D01*
X157382222Y-97110500D01*
X157599951Y-97076015D01*
X157809606Y-97007895D01*
X158006022Y-96907815D01*
X158184365Y-96778242D01*
X158234924Y-96727682D01*
X158296245Y-96694198D01*
X158365936Y-96699182D01*
X158421870Y-96741053D01*
X158438786Y-96772030D01*
X158468646Y-96852087D01*
X158468649Y-96852093D01*
X158554809Y-96967187D01*
X158554812Y-96967190D01*
X158669906Y-97053350D01*
X158669913Y-97053354D01*
X158804620Y-97103596D01*
X158804627Y-97103598D01*
X158864155Y-97109999D01*
X158864172Y-97110000D01*
X159562000Y-97110000D01*
X159562000Y-96085277D01*
X159638306Y-96129333D01*
X159752756Y-96160000D01*
X159871244Y-96160000D01*
X159985694Y-96129333D01*
X160062000Y-96085277D01*
X160062000Y-97110000D01*
X160759828Y-97110000D01*
X160759844Y-97109999D01*
X160819372Y-97103598D01*
X160819379Y-97103596D01*
X160954086Y-97053354D01*
X160954093Y-97053350D01*
X161069187Y-96967190D01*
X161069190Y-96967187D01*
X161155350Y-96852093D01*
X161155354Y-96852086D01*
X161205596Y-96717379D01*
X161205598Y-96717372D01*
X161211999Y-96657844D01*
X161212000Y-96657827D01*
X161212000Y-95960000D01*
X160187278Y-95960000D01*
X160231333Y-95883694D01*
X160262000Y-95769244D01*
X160262000Y-95650756D01*
X160231333Y-95536306D01*
X160187278Y-95460000D01*
X161212000Y-95460000D01*
X161212000Y-94762172D01*
X161211999Y-94762155D01*
X161205598Y-94702627D01*
X161205596Y-94702620D01*
X161155354Y-94567913D01*
X161155350Y-94567906D01*
X161069190Y-94452812D01*
X161069187Y-94452809D01*
X160954093Y-94366649D01*
X160954086Y-94366645D01*
X160819379Y-94316403D01*
X160819372Y-94316401D01*
X160759844Y-94310000D01*
X160062000Y-94310000D01*
X160062000Y-95334722D01*
X159985694Y-95290667D01*
X159871244Y-95260000D01*
X159752756Y-95260000D01*
X159638306Y-95290667D01*
X159562000Y-95334722D01*
X159562000Y-94310000D01*
X158864155Y-94310000D01*
X158804627Y-94316401D01*
X158804620Y-94316403D01*
X158669913Y-94366645D01*
X158669906Y-94366649D01*
X158554812Y-94452809D01*
X158554809Y-94452812D01*
X158468649Y-94567906D01*
X158468643Y-94567918D01*
X158438785Y-94647969D01*
X158396914Y-94703903D01*
X158331449Y-94728319D01*
X158263176Y-94713467D01*
X158234923Y-94692316D01*
X158184363Y-94641756D01*
X158184358Y-94641752D01*
X158006025Y-94512187D01*
X158006024Y-94512186D01*
X158006022Y-94512185D01*
X157943096Y-94480122D01*
X157809606Y-94412104D01*
X157809603Y-94412103D01*
X157599952Y-94343985D01*
X157491086Y-94326742D01*
X157382222Y-94309500D01*
X157161778Y-94309500D01*
X157089201Y-94320995D01*
X156944047Y-94343985D01*
X156734396Y-94412103D01*
X156734393Y-94412104D01*
X156537978Y-94512184D01*
X156441385Y-94582363D01*
X156375578Y-94605842D01*
X156307524Y-94590016D01*
X156258830Y-94539910D01*
X156244500Y-94482044D01*
X156244500Y-92865602D01*
X162549500Y-92865602D01*
X162549500Y-93134397D01*
X162584582Y-93400880D01*
X162584583Y-93400885D01*
X162584584Y-93400891D01*
X162597216Y-93448034D01*
X162654152Y-93660524D01*
X162757011Y-93908850D01*
X162757019Y-93908866D01*
X162812124Y-94004309D01*
X162891413Y-94141641D01*
X162891415Y-94141644D01*
X162891416Y-94141645D01*
X163055042Y-94354888D01*
X163055048Y-94354895D01*
X163245104Y-94544951D01*
X163245111Y-94544957D01*
X163370387Y-94641084D01*
X163458359Y-94708587D01*
X163600413Y-94790602D01*
X163691133Y-94842980D01*
X163691149Y-94842988D01*
X163846008Y-94907132D01*
X163939474Y-94945847D01*
X164199109Y-95015416D01*
X164363142Y-95037011D01*
X164465602Y-95050500D01*
X164465603Y-95050500D01*
X164734398Y-95050500D01*
X164794905Y-95042534D01*
X165000891Y-95015416D01*
X165260526Y-94945847D01*
X165447457Y-94868417D01*
X165508850Y-94842988D01*
X165508853Y-94842986D01*
X165508859Y-94842984D01*
X165741641Y-94708587D01*
X165954890Y-94544956D01*
X166144956Y-94354890D01*
X166308587Y-94141641D01*
X166442984Y-93908859D01*
X166444782Y-93904520D01*
X166482414Y-93813666D01*
X166545847Y-93660526D01*
X166615416Y-93400891D01*
X166650500Y-93134397D01*
X166650500Y-92865603D01*
X166650049Y-92862181D01*
X166629118Y-92703191D01*
X166615416Y-92599109D01*
X166545847Y-92339474D01*
X166473352Y-92164456D01*
X166442988Y-92091149D01*
X166442980Y-92091133D01*
X166374434Y-91972409D01*
X166308587Y-91858359D01*
X166241084Y-91770387D01*
X166144957Y-91645111D01*
X166144951Y-91645104D01*
X165954895Y-91455048D01*
X165954888Y-91455042D01*
X165741645Y-91291416D01*
X165741644Y-91291415D01*
X165741641Y-91291413D01*
X165636137Y-91230500D01*
X165508866Y-91157019D01*
X165508850Y-91157011D01*
X165260524Y-91054152D01*
X165087732Y-91007853D01*
X165000891Y-90984584D01*
X165000885Y-90984583D01*
X165000880Y-90984582D01*
X164734398Y-90949500D01*
X164734397Y-90949500D01*
X164465603Y-90949500D01*
X164465602Y-90949500D01*
X164199119Y-90984582D01*
X164199112Y-90984583D01*
X164199109Y-90984584D01*
X164193724Y-90986027D01*
X163939475Y-91054152D01*
X163691149Y-91157011D01*
X163691133Y-91157019D01*
X163458354Y-91291416D01*
X163245111Y-91455042D01*
X163245104Y-91455048D01*
X163055048Y-91645104D01*
X163055042Y-91645111D01*
X162891416Y-91858354D01*
X162891413Y-91858358D01*
X162891413Y-91858359D01*
X162882629Y-91873573D01*
X162757019Y-92091133D01*
X162757011Y-92091149D01*
X162654152Y-92339475D01*
X162584585Y-92599106D01*
X162584582Y-92599119D01*
X162549500Y-92865602D01*
X156244500Y-92865602D01*
X156244500Y-92770230D01*
X156264185Y-92703191D01*
X156280819Y-92682549D01*
X156530549Y-92432819D01*
X156591872Y-92399334D01*
X156618230Y-92396500D01*
X159885920Y-92396500D01*
X159983462Y-92377096D01*
X160030913Y-92367658D01*
X160167495Y-92311084D01*
X160216729Y-92278186D01*
X160290416Y-92228952D01*
X161664951Y-90854416D01*
X161747084Y-90731495D01*
X161803658Y-90594913D01*
X161819874Y-90513390D01*
X161832500Y-90449920D01*
X161832500Y-88960230D01*
X161852185Y-88893191D01*
X161868819Y-88872549D01*
X162118549Y-88622819D01*
X162179872Y-88589334D01*
X162206230Y-88586500D01*
X163759796Y-88586500D01*
X163826835Y-88606185D01*
X163847477Y-88622819D01*
X163900072Y-88675414D01*
X164040212Y-88777232D01*
X164194555Y-88855873D01*
X164359299Y-88909402D01*
X164530389Y-88936500D01*
X164530390Y-88936500D01*
X165253610Y-88936500D01*
X165253611Y-88936500D01*
X165424701Y-88909402D01*
X165589445Y-88855873D01*
X165743788Y-88777232D01*
X165883928Y-88675414D01*
X166006414Y-88552928D01*
X166108232Y-88412788D01*
X166186873Y-88258445D01*
X166240402Y-88093701D01*
X166267500Y-87922611D01*
X166267500Y-87749389D01*
X166240402Y-87578299D01*
X166186873Y-87413555D01*
X166108232Y-87259212D01*
X166006414Y-87119072D01*
X165898872Y-87011530D01*
X165865387Y-86950207D01*
X165870371Y-86880515D01*
X165912243Y-86824582D01*
X165921457Y-86818310D01*
X165928553Y-86813933D01*
X165985656Y-86778712D01*
X166109712Y-86654656D01*
X166201814Y-86505334D01*
X166256999Y-86338797D01*
X166267500Y-86236009D01*
X166267499Y-85435992D01*
X166265916Y-85420500D01*
X166256999Y-85333203D01*
X166256998Y-85333200D01*
X166253455Y-85322508D01*
X166201814Y-85166666D01*
X166109712Y-85017344D01*
X165985656Y-84893288D01*
X165870228Y-84822092D01*
X165836336Y-84801187D01*
X165836331Y-84801185D01*
X165762129Y-84776597D01*
X165669797Y-84746001D01*
X165669795Y-84746000D01*
X165567010Y-84735500D01*
X164216998Y-84735500D01*
X164216981Y-84735501D01*
X164114203Y-84746000D01*
X164114200Y-84746001D01*
X163947668Y-84801185D01*
X163947663Y-84801187D01*
X163798342Y-84893289D01*
X163674287Y-85017344D01*
X163631858Y-85086132D01*
X163579909Y-85132856D01*
X163573775Y-85135594D01*
X163488510Y-85170913D01*
X163488498Y-85170919D01*
X163365584Y-85253048D01*
X163365580Y-85253051D01*
X162585451Y-86033181D01*
X162524128Y-86066666D01*
X162497770Y-86069500D01*
X161770082Y-86069500D01*
X161756406Y-86072220D01*
X161756401Y-86072221D01*
X161751788Y-86073139D01*
X161625088Y-86098341D01*
X161553884Y-86127835D01*
X161546984Y-86130692D01*
X161546977Y-86130695D01*
X161488503Y-86154916D01*
X161439269Y-86187813D01*
X161365588Y-86237044D01*
X161365580Y-86237050D01*
X159483049Y-88119581D01*
X159434999Y-88191493D01*
X159435000Y-88191494D01*
X159400914Y-88242508D01*
X159344343Y-88379082D01*
X159344340Y-88379092D01*
X159315500Y-88524079D01*
X159315500Y-88629817D01*
X159295815Y-88696856D01*
X159243011Y-88742611D01*
X159173853Y-88752555D01*
X159110297Y-88723530D01*
X159091182Y-88702702D01*
X159019038Y-88603404D01*
X159019034Y-88603399D01*
X158934593Y-88518958D01*
X158934592Y-88518958D01*
X158180000Y-89273550D01*
X158180000Y-89267339D01*
X158152741Y-89165606D01*
X158100080Y-89074394D01*
X158025606Y-88999920D01*
X157934394Y-88947259D01*
X157832661Y-88920000D01*
X157826446Y-88920000D01*
X158484211Y-88262235D01*
X158437586Y-88247086D01*
X158266571Y-88220000D01*
X157293429Y-88220000D01*
X157122414Y-88247086D01*
X157122411Y-88247086D01*
X156979237Y-88293607D01*
X156972868Y-88293788D01*
X156967277Y-88296842D01*
X156938366Y-88294774D01*
X156909396Y-88295602D01*
X156903940Y-88292312D01*
X156897585Y-88291858D01*
X156874382Y-88274488D01*
X156849563Y-88259522D01*
X156846751Y-88253803D01*
X156841652Y-88249986D01*
X156831524Y-88222834D01*
X156818735Y-88196821D01*
X156819461Y-88190490D01*
X156817235Y-88184522D01*
X156823395Y-88156200D01*
X156826700Y-88127406D01*
X156831072Y-88120912D01*
X156832087Y-88116249D01*
X156853235Y-88087998D01*
X157013339Y-87927894D01*
X157074660Y-87894411D01*
X157120416Y-87893104D01*
X157224268Y-87909552D01*
X157293389Y-87920500D01*
X157293390Y-87920500D01*
X158266610Y-87920500D01*
X158266611Y-87920500D01*
X158437701Y-87893402D01*
X158602445Y-87839873D01*
X158756788Y-87761232D01*
X158896928Y-87659414D01*
X159019414Y-87536928D01*
X159121232Y-87396788D01*
X159199873Y-87242445D01*
X159253402Y-87077701D01*
X159280500Y-86906611D01*
X159280500Y-86733389D01*
X159253402Y-86562299D01*
X159199873Y-86397555D01*
X159121232Y-86243212D01*
X159019414Y-86103072D01*
X158896928Y-85980586D01*
X158756788Y-85878768D01*
X158602445Y-85800127D01*
X158437701Y-85746598D01*
X158437699Y-85746597D01*
X158437698Y-85746597D01*
X158306271Y-85725781D01*
X158266611Y-85719500D01*
X157293389Y-85719500D01*
X157253728Y-85725781D01*
X157122302Y-85746597D01*
X156957552Y-85800128D01*
X156803211Y-85878768D01*
X156723256Y-85936859D01*
X156663072Y-85980586D01*
X156663070Y-85980588D01*
X156663069Y-85980588D01*
X156540588Y-86103069D01*
X156540588Y-86103070D01*
X156540586Y-86103072D01*
X156533010Y-86113500D01*
X156438768Y-86243211D01*
X156360128Y-86397552D01*
X156306597Y-86562302D01*
X156279500Y-86733389D01*
X156279500Y-86911483D01*
X156277221Y-86911483D01*
X156264703Y-86970669D01*
X156243211Y-86999552D01*
X155789584Y-87453181D01*
X155728261Y-87486666D01*
X155701903Y-87489500D01*
X154220266Y-87489500D01*
X154153227Y-87469815D01*
X154107472Y-87417011D01*
X154097528Y-87347853D01*
X154104080Y-87323970D01*
X154103714Y-87323852D01*
X154105218Y-87319222D01*
X154105220Y-87319219D01*
X154168477Y-87124534D01*
X154200500Y-86922352D01*
X154200500Y-86717648D01*
X154171295Y-86533257D01*
X154168477Y-86515465D01*
X154120752Y-86368584D01*
X154105220Y-86320781D01*
X154105218Y-86320778D01*
X154105218Y-86320776D01*
X154071503Y-86254607D01*
X154012287Y-86138390D01*
X153980129Y-86094128D01*
X153891971Y-85972786D01*
X153747213Y-85828028D01*
X153581611Y-85707713D01*
X153518204Y-85675405D01*
X153511347Y-85668929D01*
X153502439Y-85665833D01*
X153486355Y-85645325D01*
X153467409Y-85627431D01*
X153463994Y-85616813D01*
X153459321Y-85610854D01*
X153455232Y-85589562D01*
X153451046Y-85576544D01*
X153450500Y-85570744D01*
X153450500Y-85476082D01*
X153433578Y-85391015D01*
X153432983Y-85384687D01*
X153438477Y-85356381D01*
X153441047Y-85327665D01*
X153445052Y-85322508D01*
X153446297Y-85316098D01*
X153466219Y-85295259D01*
X153483909Y-85272487D01*
X153490068Y-85270314D01*
X153494580Y-85265595D01*
X153522608Y-85258834D01*
X153549799Y-85249242D01*
X153561234Y-85249517D01*
X153562502Y-85249212D01*
X153563541Y-85249573D01*
X153569041Y-85249706D01*
X153620852Y-85254999D01*
X154220000Y-85254999D01*
X154319140Y-85254999D01*
X154319154Y-85254998D01*
X154420152Y-85244680D01*
X154583800Y-85190453D01*
X154583811Y-85190448D01*
X154730534Y-85099947D01*
X154730538Y-85099944D01*
X154852444Y-84978038D01*
X154852447Y-84978034D01*
X154942948Y-84831311D01*
X154942953Y-84831300D01*
X154997180Y-84667652D01*
X155007499Y-84566654D01*
X155007500Y-84566641D01*
X155007500Y-84530000D01*
X154220000Y-84530000D01*
X154220000Y-85254999D01*
X153620852Y-85254999D01*
X153720000Y-85254998D01*
X153720000Y-84404000D01*
X153739685Y-84336961D01*
X153792489Y-84291206D01*
X153844000Y-84280000D01*
X153970000Y-84280000D01*
X153970000Y-84154000D01*
X153989685Y-84086961D01*
X154042489Y-84041206D01*
X154094000Y-84030000D01*
X155007499Y-84030000D01*
X155007499Y-83993360D01*
X155007498Y-83993345D01*
X154997180Y-83892347D01*
X154942953Y-83728699D01*
X154942948Y-83728688D01*
X154918836Y-83689597D01*
X154900395Y-83622205D01*
X154921317Y-83555542D01*
X154974959Y-83510772D01*
X155024374Y-83500500D01*
X156371745Y-83500500D01*
X156438784Y-83520185D01*
G37*
G04 #@! TD.AperFunction*
G04 #@! TA.AperFunction,Conductor*
G36*
X142106059Y-85294016D02*
G01*
X142117550Y-85299871D01*
X142117552Y-85299871D01*
X142117555Y-85299873D01*
X142282299Y-85353402D01*
X142453389Y-85380500D01*
X142453390Y-85380500D01*
X142626610Y-85380500D01*
X142626611Y-85380500D01*
X142797701Y-85353402D01*
X142962445Y-85299873D01*
X142971501Y-85295259D01*
X142973941Y-85294016D01*
X143030237Y-85280500D01*
X148521069Y-85280500D01*
X148588108Y-85300185D01*
X148633863Y-85352989D01*
X148643807Y-85422147D01*
X148614782Y-85485703D01*
X148556004Y-85523477D01*
X148540469Y-85526972D01*
X148523429Y-85529671D01*
X148385465Y-85551522D01*
X148190776Y-85614781D01*
X148008386Y-85707715D01*
X147842786Y-85828028D01*
X147698028Y-85972786D01*
X147577715Y-86138386D01*
X147484781Y-86320776D01*
X147421522Y-86515465D01*
X147389500Y-86717648D01*
X147389500Y-86922351D01*
X147421522Y-87124534D01*
X147449780Y-87211500D01*
X147484780Y-87319219D01*
X147484781Y-87319222D01*
X147486286Y-87323852D01*
X147484964Y-87324281D01*
X147491764Y-87387514D01*
X147460491Y-87449994D01*
X147400403Y-87485648D01*
X147369734Y-87489500D01*
X140314838Y-87489500D01*
X140267388Y-87480062D01*
X140262666Y-87478106D01*
X140262658Y-87478103D01*
X140088694Y-87443500D01*
X140088691Y-87443500D01*
X139911309Y-87443500D01*
X139911306Y-87443500D01*
X139737341Y-87478103D01*
X139737332Y-87478106D01*
X139573459Y-87545983D01*
X139573446Y-87545990D01*
X139425965Y-87644535D01*
X139425961Y-87644538D01*
X139300538Y-87769961D01*
X139300535Y-87769965D01*
X139201990Y-87917446D01*
X139201983Y-87917459D01*
X139134106Y-88081332D01*
X139134103Y-88081341D01*
X139099500Y-88255304D01*
X139099500Y-88432695D01*
X139134103Y-88606658D01*
X139134106Y-88606667D01*
X139201983Y-88770540D01*
X139201990Y-88770553D01*
X139300535Y-88918034D01*
X139300538Y-88918038D01*
X139425961Y-89043461D01*
X139425965Y-89043464D01*
X139573446Y-89142009D01*
X139573459Y-89142016D01*
X139693052Y-89191552D01*
X139737334Y-89209894D01*
X139737336Y-89209894D01*
X139737341Y-89209896D01*
X139911304Y-89244499D01*
X139911307Y-89244500D01*
X139911309Y-89244500D01*
X140088693Y-89244500D01*
X140088694Y-89244499D01*
X140157042Y-89230904D01*
X140262658Y-89209896D01*
X140262661Y-89209894D01*
X140262666Y-89209894D01*
X140426547Y-89142013D01*
X140574035Y-89043464D01*
X140699464Y-88918035D01*
X140798013Y-88770547D01*
X140799460Y-88767052D01*
X140800708Y-88765503D01*
X140800881Y-88765181D01*
X140800942Y-88765213D01*
X140843298Y-88712647D01*
X140909591Y-88690579D01*
X140914023Y-88690500D01*
X147370276Y-88690500D01*
X147437315Y-88710185D01*
X147483070Y-88762989D01*
X147493014Y-88832147D01*
X147486408Y-88856229D01*
X147486749Y-88856340D01*
X147422009Y-89055582D01*
X147390000Y-89257682D01*
X147390000Y-89462317D01*
X147422009Y-89664417D01*
X147485244Y-89859031D01*
X147578142Y-90041352D01*
X147694684Y-90201760D01*
X147694686Y-90201761D01*
X148366212Y-89530234D01*
X148377482Y-89572292D01*
X148449890Y-89697708D01*
X148552292Y-89800110D01*
X148677708Y-89872518D01*
X148719763Y-89883786D01*
X148090160Y-90513390D01*
X148101628Y-90519234D01*
X148152424Y-90567207D01*
X148169220Y-90635028D01*
X148146683Y-90701163D01*
X148101630Y-90740203D01*
X148008388Y-90787713D01*
X147842786Y-90908028D01*
X147698032Y-91052782D01*
X147698028Y-91052787D01*
X147664900Y-91098385D01*
X147609571Y-91141051D01*
X147564582Y-91149500D01*
X145985346Y-91149500D01*
X145918307Y-91129815D01*
X145872552Y-91077011D01*
X145862608Y-91007853D01*
X145891633Y-90944297D01*
X145897665Y-90937819D01*
X145899943Y-90935540D01*
X145899945Y-90935537D01*
X145990448Y-90788811D01*
X145990453Y-90788800D01*
X146044680Y-90625152D01*
X146054999Y-90524154D01*
X146055000Y-90524141D01*
X146055000Y-90425000D01*
X144105001Y-90425000D01*
X144105001Y-90524154D01*
X144115319Y-90625152D01*
X144169546Y-90788800D01*
X144169551Y-90788811D01*
X144260052Y-90935534D01*
X144260055Y-90935538D01*
X144262336Y-90937819D01*
X144263401Y-90939769D01*
X144264533Y-90941201D01*
X144264288Y-90941394D01*
X144295821Y-90999142D01*
X144290837Y-91068834D01*
X144248965Y-91124767D01*
X144183501Y-91149184D01*
X144174655Y-91149500D01*
X143165267Y-91149500D01*
X143098228Y-91129815D01*
X143096376Y-91128602D01*
X142990236Y-91057681D01*
X142990228Y-91057676D01*
X142817251Y-90986027D01*
X142817243Y-90986025D01*
X142633620Y-90949500D01*
X142633616Y-90949500D01*
X142446384Y-90949500D01*
X142446379Y-90949500D01*
X142262756Y-90986025D01*
X142262748Y-90986027D01*
X142089771Y-91057676D01*
X142089762Y-91057681D01*
X141934092Y-91161697D01*
X141934088Y-91161700D01*
X141801700Y-91294088D01*
X141801697Y-91294092D01*
X141697681Y-91449762D01*
X141697676Y-91449771D01*
X141626027Y-91622748D01*
X141626025Y-91622756D01*
X141589500Y-91806379D01*
X141589500Y-91993620D01*
X141626025Y-92177243D01*
X141626027Y-92177251D01*
X141697676Y-92350228D01*
X141697681Y-92350237D01*
X141801697Y-92505907D01*
X141801700Y-92505911D01*
X141934088Y-92638299D01*
X141934092Y-92638302D01*
X142089762Y-92742318D01*
X142089768Y-92742321D01*
X142089769Y-92742322D01*
X142262749Y-92813973D01*
X142394391Y-92840158D01*
X142446379Y-92850499D01*
X142446383Y-92850500D01*
X142446384Y-92850500D01*
X142633617Y-92850500D01*
X142633618Y-92850499D01*
X142817251Y-92813973D01*
X142990231Y-92742322D01*
X143096376Y-92671397D01*
X143163053Y-92650520D01*
X143165267Y-92650500D01*
X143518638Y-92650500D01*
X143585677Y-92670185D01*
X143631432Y-92722989D01*
X143641376Y-92792147D01*
X143612351Y-92855703D01*
X143606319Y-92862181D01*
X143491538Y-92976961D01*
X143491535Y-92976965D01*
X143392990Y-93124446D01*
X143392983Y-93124459D01*
X143325106Y-93288332D01*
X143325103Y-93288341D01*
X143290500Y-93462304D01*
X143290500Y-93639695D01*
X143325103Y-93813658D01*
X143325106Y-93813667D01*
X143392983Y-93977540D01*
X143392990Y-93977553D01*
X143491535Y-94125034D01*
X143491538Y-94125038D01*
X143616961Y-94250461D01*
X143616965Y-94250464D01*
X143764446Y-94349009D01*
X143764459Y-94349016D01*
X143887363Y-94399923D01*
X143928334Y-94416894D01*
X143928336Y-94416894D01*
X143928341Y-94416896D01*
X144102304Y-94451499D01*
X144102307Y-94451500D01*
X144102309Y-94451500D01*
X144279693Y-94451500D01*
X144279694Y-94451499D01*
X144337682Y-94439964D01*
X144453658Y-94416896D01*
X144453661Y-94416894D01*
X144453666Y-94416894D01*
X144593535Y-94358958D01*
X144617540Y-94349016D01*
X144617540Y-94349015D01*
X144617547Y-94349013D01*
X144765035Y-94250464D01*
X144827681Y-94187817D01*
X144889002Y-94154334D01*
X144915361Y-94151500D01*
X146136331Y-94151500D01*
X146136347Y-94151501D01*
X146143943Y-94151501D01*
X146302054Y-94151501D01*
X146302057Y-94151501D01*
X146454785Y-94110577D01*
X146522842Y-94071284D01*
X146591716Y-94031520D01*
X146703520Y-93919716D01*
X146703520Y-93919714D01*
X146713725Y-93909510D01*
X146713731Y-93909503D01*
X146816418Y-93806818D01*
X146877741Y-93773334D01*
X146904098Y-93770500D01*
X147369734Y-93770500D01*
X147436773Y-93790185D01*
X147482528Y-93842989D01*
X147492472Y-93912147D01*
X147485919Y-93936029D01*
X147486286Y-93936148D01*
X147484781Y-93940777D01*
X147484780Y-93940781D01*
X147472834Y-93977547D01*
X147421522Y-94135465D01*
X147393958Y-94309500D01*
X147389500Y-94337648D01*
X147389500Y-94542352D01*
X147389913Y-94544957D01*
X147421522Y-94744534D01*
X147484781Y-94939223D01*
X147548691Y-95064653D01*
X147577314Y-95120827D01*
X147577715Y-95121613D01*
X147698028Y-95287213D01*
X147842786Y-95431971D01*
X147986394Y-95536306D01*
X148008390Y-95552287D01*
X148081519Y-95589548D01*
X148101080Y-95599515D01*
X148151876Y-95647490D01*
X148168671Y-95715311D01*
X148146134Y-95781446D01*
X148101080Y-95820485D01*
X148008386Y-95867715D01*
X147842786Y-95988028D01*
X147698028Y-96132786D01*
X147577715Y-96298386D01*
X147484781Y-96480776D01*
X147421522Y-96675465D01*
X147389500Y-96877648D01*
X147389500Y-97082352D01*
X147392865Y-97103596D01*
X147421522Y-97284534D01*
X147484781Y-97479223D01*
X147534848Y-97577483D01*
X147577710Y-97661605D01*
X147577715Y-97661613D01*
X147698028Y-97827213D01*
X147842786Y-97971971D01*
X147997749Y-98084556D01*
X148008390Y-98092287D01*
X148099840Y-98138883D01*
X148101080Y-98139515D01*
X148151876Y-98187490D01*
X148168671Y-98255311D01*
X148146134Y-98321446D01*
X148101080Y-98360485D01*
X148008386Y-98407715D01*
X147842786Y-98528028D01*
X147698028Y-98672786D01*
X147577715Y-98838386D01*
X147484781Y-99020776D01*
X147421522Y-99215465D01*
X147389500Y-99417648D01*
X147389500Y-99622351D01*
X147421522Y-99824534D01*
X147484781Y-100019223D01*
X147577715Y-100201613D01*
X147698028Y-100367213D01*
X147842786Y-100511971D01*
X147997749Y-100624556D01*
X148008390Y-100632287D01*
X148071869Y-100664631D01*
X148101080Y-100679515D01*
X148151876Y-100727490D01*
X148168671Y-100795311D01*
X148146134Y-100861446D01*
X148101080Y-100900485D01*
X148008386Y-100947715D01*
X147842786Y-101068028D01*
X147698028Y-101212786D01*
X147577715Y-101378386D01*
X147484781Y-101560776D01*
X147421522Y-101755465D01*
X147389500Y-101957648D01*
X147389500Y-102162351D01*
X147421522Y-102364534D01*
X147484781Y-102559223D01*
X147577715Y-102741613D01*
X147698028Y-102907213D01*
X147842786Y-103051971D01*
X147997749Y-103164556D01*
X148008390Y-103172287D01*
X148080059Y-103208804D01*
X148101080Y-103219515D01*
X148151876Y-103267490D01*
X148168671Y-103335311D01*
X148146134Y-103401446D01*
X148101080Y-103440485D01*
X148008386Y-103487715D01*
X147842786Y-103608028D01*
X147842782Y-103608032D01*
X147747706Y-103703109D01*
X147686383Y-103736594D01*
X147616691Y-103731610D01*
X147572344Y-103703109D01*
X146837590Y-102968355D01*
X146837588Y-102968352D01*
X146718717Y-102849481D01*
X146718709Y-102849475D01*
X146601245Y-102781658D01*
X146601245Y-102781657D01*
X146601240Y-102781656D01*
X146594451Y-102777736D01*
X146581786Y-102770423D01*
X146523976Y-102754933D01*
X146429057Y-102729499D01*
X146270943Y-102729499D01*
X146263347Y-102729499D01*
X146263331Y-102729500D01*
X138980266Y-102729500D01*
X138913227Y-102709815D01*
X138867472Y-102657011D01*
X138857528Y-102587853D01*
X138864080Y-102563970D01*
X138863714Y-102563852D01*
X138865218Y-102559222D01*
X138865220Y-102559219D01*
X138928477Y-102364534D01*
X138960500Y-102162352D01*
X138960500Y-101957648D01*
X138928477Y-101755466D01*
X138865220Y-101560781D01*
X138865218Y-101560778D01*
X138865218Y-101560776D01*
X138831503Y-101494607D01*
X138772287Y-101378390D01*
X138764556Y-101367749D01*
X138651971Y-101212786D01*
X138507213Y-101068028D01*
X138341614Y-100947715D01*
X138335006Y-100944348D01*
X138248917Y-100900483D01*
X138198123Y-100852511D01*
X138181328Y-100784690D01*
X138203865Y-100718555D01*
X138248917Y-100679516D01*
X138341610Y-100632287D01*
X138459329Y-100546760D01*
X138507213Y-100511971D01*
X138507215Y-100511968D01*
X138507219Y-100511966D01*
X138651966Y-100367219D01*
X138651968Y-100367215D01*
X138651971Y-100367213D01*
X138742442Y-100242688D01*
X138772287Y-100201610D01*
X138865220Y-100019219D01*
X138928477Y-99824534D01*
X138960500Y-99622352D01*
X138960500Y-99417648D01*
X138928477Y-99215466D01*
X138865220Y-99020781D01*
X138865218Y-99020778D01*
X138865218Y-99020776D01*
X138831503Y-98954607D01*
X138772287Y-98838390D01*
X138764556Y-98827749D01*
X138651971Y-98672786D01*
X138507213Y-98528028D01*
X138341614Y-98407715D01*
X138335006Y-98404348D01*
X138248917Y-98360483D01*
X138198123Y-98312511D01*
X138181328Y-98244690D01*
X138203865Y-98178555D01*
X138248917Y-98139516D01*
X138341610Y-98092287D01*
X138362770Y-98076913D01*
X138507213Y-97971971D01*
X138507215Y-97971968D01*
X138507219Y-97971966D01*
X138651966Y-97827219D01*
X138651968Y-97827215D01*
X138651971Y-97827213D01*
X138722236Y-97730500D01*
X138772287Y-97661610D01*
X138865220Y-97479219D01*
X138928477Y-97284534D01*
X138960500Y-97082352D01*
X138960500Y-96877648D01*
X138944755Y-96778242D01*
X138928477Y-96675465D01*
X138874068Y-96508013D01*
X138865220Y-96480781D01*
X138865218Y-96480777D01*
X138863714Y-96476148D01*
X138865035Y-96475718D01*
X138858236Y-96412486D01*
X138889509Y-96350006D01*
X138949597Y-96314352D01*
X138980266Y-96310500D01*
X139275639Y-96310500D01*
X139342678Y-96330185D01*
X139363315Y-96346814D01*
X139425962Y-96409461D01*
X139425966Y-96409465D01*
X139573446Y-96508009D01*
X139573459Y-96508016D01*
X139696363Y-96558923D01*
X139737334Y-96575894D01*
X139737336Y-96575894D01*
X139737341Y-96575896D01*
X139911304Y-96610499D01*
X139911307Y-96610500D01*
X139911309Y-96610500D01*
X140088693Y-96610500D01*
X140088694Y-96610499D01*
X140146682Y-96598964D01*
X140262658Y-96575896D01*
X140262661Y-96575894D01*
X140262666Y-96575894D01*
X140426547Y-96508013D01*
X140574035Y-96409464D01*
X140699464Y-96284035D01*
X140798013Y-96136547D01*
X140865894Y-95972666D01*
X140868414Y-95960000D01*
X140896217Y-95820221D01*
X140900500Y-95798691D01*
X140900500Y-95621309D01*
X140900500Y-95621306D01*
X140900499Y-95621304D01*
X140865896Y-95447341D01*
X140865893Y-95447332D01*
X140859530Y-95431971D01*
X140815128Y-95324773D01*
X140798016Y-95283459D01*
X140798009Y-95283446D01*
X140699464Y-95135965D01*
X140699461Y-95135961D01*
X140574038Y-95010538D01*
X140574034Y-95010535D01*
X140426553Y-94911990D01*
X140426540Y-94911983D01*
X140262667Y-94844106D01*
X140262658Y-94844103D01*
X140088694Y-94809500D01*
X140088691Y-94809500D01*
X139911309Y-94809500D01*
X139911306Y-94809500D01*
X139737341Y-94844103D01*
X139737332Y-94844106D01*
X139573459Y-94911983D01*
X139573446Y-94911990D01*
X139425966Y-95010534D01*
X139399490Y-95037011D01*
X139363318Y-95073182D01*
X139301998Y-95106666D01*
X139275639Y-95109500D01*
X138980266Y-95109500D01*
X138913227Y-95089815D01*
X138867472Y-95037011D01*
X138857528Y-94967853D01*
X138864080Y-94943970D01*
X138863714Y-94943852D01*
X138865218Y-94939222D01*
X138865220Y-94939219D01*
X138928477Y-94744534D01*
X138960500Y-94542352D01*
X138960500Y-94337648D01*
X138933145Y-94164938D01*
X138928477Y-94135465D01*
X138894702Y-94031518D01*
X138865220Y-93940781D01*
X138865218Y-93940778D01*
X138865218Y-93940776D01*
X138800452Y-93813667D01*
X138772287Y-93758390D01*
X138722236Y-93689500D01*
X138651971Y-93592786D01*
X138507213Y-93448028D01*
X138341614Y-93327715D01*
X138316777Y-93315060D01*
X138248917Y-93280483D01*
X138198123Y-93232511D01*
X138181328Y-93164690D01*
X138203865Y-93098555D01*
X138248917Y-93059516D01*
X138341610Y-93012287D01*
X138390227Y-92976965D01*
X138507213Y-92891971D01*
X138507215Y-92891968D01*
X138507219Y-92891966D01*
X138651966Y-92747219D01*
X138651968Y-92747215D01*
X138651971Y-92747213D01*
X138731100Y-92638299D01*
X138772287Y-92581610D01*
X138865220Y-92399219D01*
X138928477Y-92204534D01*
X138960500Y-92002352D01*
X138960500Y-91797648D01*
X138936339Y-91645104D01*
X138928477Y-91595465D01*
X138871296Y-91419481D01*
X138865220Y-91400781D01*
X138865218Y-91400778D01*
X138865218Y-91400776D01*
X138819799Y-91311637D01*
X138772287Y-91218390D01*
X138731100Y-91161700D01*
X138651971Y-91052786D01*
X138507213Y-90908028D01*
X138341614Y-90787715D01*
X138335006Y-90784348D01*
X138248917Y-90740483D01*
X138198123Y-90692511D01*
X138181328Y-90624690D01*
X138203865Y-90558555D01*
X138248917Y-90519516D01*
X138341610Y-90472287D01*
X138406696Y-90425000D01*
X138507213Y-90351971D01*
X138507215Y-90351968D01*
X138507219Y-90351966D01*
X138651966Y-90207219D01*
X138651968Y-90207215D01*
X138651971Y-90207213D01*
X138723533Y-90108715D01*
X138772287Y-90041610D01*
X138865220Y-89859219D01*
X138876064Y-89825845D01*
X144105000Y-89825845D01*
X144105000Y-89925000D01*
X144830000Y-89925000D01*
X145330000Y-89925000D01*
X146054999Y-89925000D01*
X146054999Y-89825860D01*
X146054998Y-89825845D01*
X146044680Y-89724847D01*
X145990453Y-89561199D01*
X145990448Y-89561188D01*
X145899947Y-89414465D01*
X145899944Y-89414461D01*
X145778038Y-89292555D01*
X145778034Y-89292552D01*
X145631311Y-89202051D01*
X145631300Y-89202046D01*
X145467652Y-89147819D01*
X145366654Y-89137500D01*
X145330000Y-89137500D01*
X145330000Y-89925000D01*
X144830000Y-89925000D01*
X144830000Y-89137500D01*
X144793361Y-89137500D01*
X144793343Y-89137501D01*
X144692347Y-89147819D01*
X144528699Y-89202046D01*
X144528688Y-89202051D01*
X144381965Y-89292552D01*
X144381961Y-89292555D01*
X144260055Y-89414461D01*
X144260052Y-89414465D01*
X144169551Y-89561188D01*
X144169546Y-89561199D01*
X144115319Y-89724847D01*
X144105000Y-89825845D01*
X138876064Y-89825845D01*
X138928477Y-89664534D01*
X138960500Y-89462352D01*
X138960500Y-89257648D01*
X138935513Y-89099889D01*
X138928477Y-89055465D01*
X138893318Y-88947259D01*
X138865220Y-88860781D01*
X138865218Y-88860778D01*
X138865218Y-88860776D01*
X138824924Y-88781695D01*
X138772287Y-88678390D01*
X138731913Y-88622819D01*
X138651971Y-88512786D01*
X138507213Y-88368028D01*
X138341614Y-88247715D01*
X138287220Y-88220000D01*
X138248917Y-88200483D01*
X138198123Y-88152511D01*
X138181328Y-88084690D01*
X138203865Y-88018555D01*
X138248917Y-87979516D01*
X138341610Y-87932287D01*
X138420267Y-87875140D01*
X138507213Y-87811971D01*
X138507215Y-87811968D01*
X138507219Y-87811966D01*
X138651966Y-87667219D01*
X138651968Y-87667215D01*
X138651971Y-87667213D01*
X138716567Y-87578302D01*
X138772287Y-87501610D01*
X138865220Y-87319219D01*
X138928477Y-87124534D01*
X138960500Y-86922352D01*
X138960500Y-86717648D01*
X138931295Y-86533257D01*
X138928477Y-86515465D01*
X138880752Y-86368584D01*
X138865220Y-86320781D01*
X138865218Y-86320778D01*
X138865218Y-86320776D01*
X138831503Y-86254607D01*
X138772287Y-86138390D01*
X138740129Y-86094128D01*
X138651971Y-85972786D01*
X138507213Y-85828028D01*
X138341613Y-85707715D01*
X138341612Y-85707714D01*
X138341610Y-85707713D01*
X138278202Y-85675405D01*
X138159223Y-85614781D01*
X137964534Y-85551522D01*
X137828931Y-85530045D01*
X137809532Y-85526972D01*
X137746398Y-85497044D01*
X137709467Y-85437732D01*
X137710465Y-85367870D01*
X137749075Y-85309637D01*
X137813038Y-85281523D01*
X137828931Y-85280500D01*
X142049763Y-85280500D01*
X142106059Y-85294016D01*
G37*
G04 #@! TD.AperFunction*
G04 #@! TA.AperFunction,Conductor*
G36*
X152187482Y-92112292D02*
G01*
X152259890Y-92237708D01*
X152362292Y-92340110D01*
X152487708Y-92412518D01*
X152529763Y-92423786D01*
X151900160Y-93053390D01*
X151911628Y-93059234D01*
X151962424Y-93107207D01*
X151979220Y-93175028D01*
X151956683Y-93241163D01*
X151911630Y-93280203D01*
X151818388Y-93327713D01*
X151652786Y-93448028D01*
X151508028Y-93592786D01*
X151387715Y-93758386D01*
X151294781Y-93940776D01*
X151231522Y-94135465D01*
X151203958Y-94309500D01*
X151199500Y-94337648D01*
X151199500Y-94542352D01*
X151199913Y-94544957D01*
X151231522Y-94744534D01*
X151294781Y-94939223D01*
X151358691Y-95064653D01*
X151387314Y-95120827D01*
X151387715Y-95121613D01*
X151508028Y-95287213D01*
X151652786Y-95431971D01*
X151796394Y-95536306D01*
X151818390Y-95552287D01*
X151891519Y-95589548D01*
X151911080Y-95599515D01*
X151961876Y-95647490D01*
X151978671Y-95715311D01*
X151956134Y-95781446D01*
X151911080Y-95820485D01*
X151818386Y-95867715D01*
X151652786Y-95988028D01*
X151508028Y-96132786D01*
X151387715Y-96298386D01*
X151294781Y-96480776D01*
X151231522Y-96675465D01*
X151199500Y-96877648D01*
X151199500Y-97082352D01*
X151202865Y-97103596D01*
X151231522Y-97284534D01*
X151294781Y-97479223D01*
X151344848Y-97577483D01*
X151387710Y-97661605D01*
X151387715Y-97661613D01*
X151508028Y-97827213D01*
X151652786Y-97971971D01*
X151807749Y-98084556D01*
X151818390Y-98092287D01*
X151909840Y-98138883D01*
X151911080Y-98139515D01*
X151961876Y-98187490D01*
X151978671Y-98255311D01*
X151956134Y-98321446D01*
X151911080Y-98360485D01*
X151818386Y-98407715D01*
X151652786Y-98528028D01*
X151508028Y-98672786D01*
X151387715Y-98838386D01*
X151294781Y-99020776D01*
X151231522Y-99215465D01*
X151199500Y-99417648D01*
X151199500Y-99622351D01*
X151231522Y-99824534D01*
X151294781Y-100019223D01*
X151387715Y-100201613D01*
X151508028Y-100367213D01*
X151652786Y-100511971D01*
X151807749Y-100624556D01*
X151818390Y-100632287D01*
X151881869Y-100664631D01*
X151911080Y-100679515D01*
X151961876Y-100727490D01*
X151978671Y-100795311D01*
X151956134Y-100861446D01*
X151911080Y-100900485D01*
X151818386Y-100947715D01*
X151652786Y-101068028D01*
X151508028Y-101212786D01*
X151387715Y-101378386D01*
X151294781Y-101560776D01*
X151231521Y-101755468D01*
X151230392Y-101760174D01*
X151226551Y-101766862D01*
X151226001Y-101774556D01*
X151209395Y-101796737D01*
X151195598Y-101820765D01*
X151188750Y-101824315D01*
X151184129Y-101830489D01*
X151158170Y-101840170D01*
X151133571Y-101852926D01*
X151125891Y-101852210D01*
X151118665Y-101854906D01*
X151091591Y-101849016D01*
X151064002Y-101846447D01*
X151056208Y-101841319D01*
X151050392Y-101840054D01*
X151022138Y-101818903D01*
X150901590Y-101698355D01*
X150901588Y-101698352D01*
X150782717Y-101579481D01*
X150782716Y-101579480D01*
X150695904Y-101529360D01*
X150695904Y-101529359D01*
X150695900Y-101529358D01*
X150645785Y-101500423D01*
X150493057Y-101459499D01*
X150334943Y-101459499D01*
X150327347Y-101459499D01*
X150327331Y-101459500D01*
X150319602Y-101459500D01*
X150252563Y-101439815D01*
X150209117Y-101391795D01*
X150202284Y-101378385D01*
X150081971Y-101212786D01*
X149937213Y-101068028D01*
X149771614Y-100947715D01*
X149765006Y-100944348D01*
X149678917Y-100900483D01*
X149628123Y-100852511D01*
X149611328Y-100784690D01*
X149633865Y-100718555D01*
X149678917Y-100679516D01*
X149771610Y-100632287D01*
X149889329Y-100546760D01*
X149937213Y-100511971D01*
X149937215Y-100511968D01*
X149937219Y-100511966D01*
X150081966Y-100367219D01*
X150081968Y-100367215D01*
X150081971Y-100367213D01*
X150172442Y-100242688D01*
X150202287Y-100201610D01*
X150295220Y-100019219D01*
X150358477Y-99824534D01*
X150390500Y-99622352D01*
X150390500Y-99417648D01*
X150358477Y-99215466D01*
X150295220Y-99020781D01*
X150295218Y-99020778D01*
X150295218Y-99020776D01*
X150261503Y-98954607D01*
X150202287Y-98838390D01*
X150194556Y-98827749D01*
X150081971Y-98672786D01*
X149937213Y-98528028D01*
X149771614Y-98407715D01*
X149765006Y-98404348D01*
X149678917Y-98360483D01*
X149628123Y-98312511D01*
X149611328Y-98244690D01*
X149633865Y-98178555D01*
X149678917Y-98139516D01*
X149771610Y-98092287D01*
X149792770Y-98076913D01*
X149937213Y-97971971D01*
X149937215Y-97971968D01*
X149937219Y-97971966D01*
X150081966Y-97827219D01*
X150081968Y-97827215D01*
X150081971Y-97827213D01*
X150152236Y-97730500D01*
X150202287Y-97661610D01*
X150295220Y-97479219D01*
X150358477Y-97284534D01*
X150390500Y-97082352D01*
X150390500Y-96877648D01*
X150374755Y-96778242D01*
X150358477Y-96675465D01*
X150295218Y-96480776D01*
X150258881Y-96409461D01*
X150202287Y-96298390D01*
X150165391Y-96247606D01*
X150081971Y-96132786D01*
X149937213Y-95988028D01*
X149771614Y-95867715D01*
X149735441Y-95849284D01*
X149678917Y-95820483D01*
X149628123Y-95772511D01*
X149611328Y-95704690D01*
X149633865Y-95638555D01*
X149678917Y-95599516D01*
X149771610Y-95552287D01*
X149859818Y-95488201D01*
X149937213Y-95431971D01*
X149937215Y-95431968D01*
X149937219Y-95431966D01*
X150081966Y-95287219D01*
X150081968Y-95287215D01*
X150081971Y-95287213D01*
X150152236Y-95190500D01*
X150202287Y-95121610D01*
X150295220Y-94939219D01*
X150358477Y-94744534D01*
X150390500Y-94542352D01*
X150390500Y-94337648D01*
X150363145Y-94164938D01*
X150358477Y-94135465D01*
X150337623Y-94071284D01*
X150295220Y-93940781D01*
X150295216Y-93940773D01*
X150295215Y-93940770D01*
X150293353Y-93936272D01*
X150295283Y-93935472D01*
X150284015Y-93875395D01*
X150310306Y-93810661D01*
X150367422Y-93770417D01*
X150375263Y-93768034D01*
X150518785Y-93729577D01*
X150588200Y-93689500D01*
X150655716Y-93650520D01*
X150767520Y-93538716D01*
X150767520Y-93538714D01*
X150777723Y-93528512D01*
X150777727Y-93528506D01*
X150899506Y-93406728D01*
X150899511Y-93406724D01*
X150909714Y-93396520D01*
X150909716Y-93396520D01*
X151021520Y-93284716D01*
X151081111Y-93181501D01*
X151084712Y-93175265D01*
X151100574Y-93147790D01*
X151100573Y-93147790D01*
X151100577Y-93147785D01*
X151141500Y-92995058D01*
X151141500Y-92836943D01*
X151141500Y-92613788D01*
X151161185Y-92546749D01*
X151213989Y-92500994D01*
X151283147Y-92491050D01*
X151346703Y-92520075D01*
X151375985Y-92557493D01*
X151388142Y-92581353D01*
X151504684Y-92741760D01*
X151504686Y-92741761D01*
X152176212Y-92070234D01*
X152187482Y-92112292D01*
G37*
G04 #@! TD.AperFunction*
G04 #@! TD*
M02*
