M48
; DRILL file {KiCad 9.0.0} date 2025-04-09T20:55:13+0900
; FORMAT={-:-/ absolute / metric / decimal}
; #@! TF.CreationDate,2025-04-09T20:55:13+09:00
; #@! TF.GenerationSoftware,Kicad,Pcbnew,9.0.0
; #@! TF.FileFunction,MixedPlating,1,2
FMAT,2
METRIC
; #@! TA.AperFunction,Plated,PTH,ViaDrill
T1C0.300
; #@! TA.AperFunction,Plated,PTH,ViaDrill
T2C0.500
; #@! TA.AperFunction,Plated,PTH,ViaDrill
T3C0.700
; #@! TA.AperFunction,Plated,PTH,ComponentDrill
T4C0.700
; #@! TA.AperFunction,Plated,PTH,ComponentDrill
T5C0.750
; #@! TA.AperFunction,Plated,PTH,ComponentDrill
T6C0.800
; #@! TA.AperFunction,Plated,PTH,ComponentDrill
T7C0.900
; #@! TA.AperFunction,Plated,PTH,ComponentDrill
T8C1.100
%
G90
G05
T1
X114.854Y-97.742
X118.918Y-97.742
X119.172Y-90.122
X126.03Y-116.03
X126.03Y-121.11
X126.03Y-126.19
X126.284Y-110.188
X126.5Y-95.5
X128.062Y-85.804
X132.38Y-116.03
X132.38Y-121.11
X132.38Y-126.19
X135.428Y-106.886
X138.73Y-116.03
X138.73Y-121.11
X138.73Y-126.19
X140.0Y-86.82
X140.0Y-88.344
X140.0Y-95.71
X140.0Y-100.79
X141.016Y-106.886
X142.54Y-104.6
X144.191Y-93.551
X145.08Y-116.284
X145.08Y-121.11
X145.08Y-126.19
X145.588Y-86.82
X145.842Y-95.964
X145.842Y-100.79
X151.43Y-116.03
X151.43Y-121.11
X151.43Y-126.19
X151.684Y-109.934
X155.494Y-89.36
X160.574Y-84.28
X161.082Y-92.408
X162.86Y-96.98
X165.4Y-96.98
T2
X142.54Y-91.9
T3
X131.364Y-85.804
X142.54Y-84.28
T4
X124.76Y-103.965
X124.76Y-106.505
X129.84Y-103.965
X129.84Y-106.505
X156.002Y-99.52
X156.002Y-104.6
T5
X115.14Y-85.836
X117.14Y-85.836
X164.892Y-85.836
X164.892Y-87.836
T6
X125.014Y-84.614
X125.014Y-87.114
X125.014Y-89.614
X157.78Y-84.32
X157.78Y-86.82
X157.78Y-89.32
T7
X157.272Y-95.71
X159.812Y-95.71
T8
X130.856Y-111.204
X133.396Y-111.204
X133.65Y-86.82
X133.65Y-89.36
X133.65Y-91.9
X133.65Y-94.44
X133.65Y-96.98
X133.65Y-99.52
X133.65Y-102.06
X133.65Y-104.6
X135.936Y-111.204
X137.46Y-86.82
X137.46Y-89.36
X137.46Y-91.9
X137.46Y-94.44
X137.46Y-96.98
X137.46Y-99.52
X137.46Y-102.06
X137.46Y-104.6
X138.476Y-111.204
X141.016Y-111.204
X143.556Y-111.204
X146.096Y-111.204
X148.636Y-111.204
X148.89Y-86.82
X148.89Y-89.36
X148.89Y-91.9
X148.89Y-94.44
X148.89Y-96.98
X148.89Y-99.52
X148.89Y-102.06
X148.89Y-104.6
X152.7Y-86.82
X152.7Y-89.36
X152.7Y-91.9
X152.7Y-94.44
X152.7Y-96.98
X152.7Y-99.52
X152.7Y-102.06
X152.7Y-104.6
M30
